G04 Layer_Color=2752767*
%FSLAX42Y42*%
%MOMM*%
G71*
G01*
G75*
%ADD42C,0.10*%
%ADD82C,0.05*%
%ADD83C,0.07*%
D42*
X137Y5000D02*
G03*
X0Y4863I0J-137D01*
G01*
X3000D02*
G03*
X2863Y5000I-137J0D01*
G01*
X2863Y0D02*
G03*
X3000Y137I0J137D01*
G01*
X0Y137D02*
G03*
X137Y0I137J0D01*
G01*
X0Y1740D02*
G03*
X60Y1800I0J60D01*
G01*
Y3420D02*
G03*
X0Y3480I-60J0D01*
G01*
X137Y5000D02*
X2863D01*
X3000Y137D02*
Y4863D01*
X137Y0D02*
X2863D01*
X60Y1800D02*
Y3420D01*
X0Y3480D02*
Y4863D01*
Y137D02*
Y1740D01*
D82*
X710Y1296D02*
Y1336D01*
X750D01*
Y1296D01*
X710D01*
Y1550D02*
Y1590D01*
X750D01*
Y1550D01*
X710D01*
Y1804D02*
Y1844D01*
X750D01*
Y1804D01*
X710D01*
Y788D02*
Y828D01*
X750D01*
Y788D01*
X710D01*
Y1042D02*
Y1082D01*
X750D01*
Y1042D01*
X710D01*
X700Y3480D02*
X680Y3520D01*
X720D01*
X700Y3480D01*
X2830Y2872D02*
Y2912D01*
X2870D01*
Y2872D01*
X2830D01*
Y3126D02*
Y3166D01*
X2870D01*
Y3126D01*
X2830D01*
Y3634D02*
Y3674D01*
X2870D01*
Y3634D01*
X2830D01*
Y3380D02*
Y3420D01*
X2870D01*
Y3380D01*
X2830D01*
X2800Y4780D02*
X2780Y4820D01*
X2820D01*
X2800Y4780D01*
X2800Y180D02*
X2780Y220D01*
X2820D01*
X2800Y180D01*
X200Y4780D02*
X180Y4820D01*
X220D01*
X200Y4780D01*
Y180D02*
X180Y220D01*
X220D01*
X200Y180D01*
X2830Y2110D02*
Y2150D01*
X2870D01*
Y2110D01*
X2830D01*
X949Y2470D02*
X960Y2480D01*
X970D01*
X960Y2490D01*
X970Y2500D01*
X960D01*
X949Y2510D01*
X939Y2500D01*
X929D01*
X939Y2490D01*
X929Y2480D01*
X939D01*
X949Y2470D01*
X370Y2230D02*
X380Y2240D01*
X390D01*
X380Y2250D01*
X390Y2260D01*
X380D01*
X370Y2270D01*
X360Y2260D01*
X350D01*
X360Y2250D01*
X350Y2240D01*
X360D01*
X370Y2230D01*
X690D02*
X700Y2240D01*
X710D01*
X700Y2250D01*
X710Y2260D01*
X700D01*
X690Y2270D01*
X680Y2260D01*
X670D01*
X680Y2250D01*
X670Y2240D01*
X680D01*
X690Y2230D01*
X1180Y2630D02*
X1190Y2640D01*
X1200D01*
X1190Y2650D01*
X1200Y2660D01*
X1190D01*
X1180Y2670D01*
X1170Y2660D01*
X1160D01*
X1170Y2650D01*
X1160Y2640D01*
X1170D01*
X1180Y2630D01*
X1710Y3610D02*
X1720Y3620D01*
X1730D01*
X1720Y3630D01*
X1730Y3640D01*
X1720D01*
X1710Y3650D01*
X1700Y3640D01*
X1690D01*
X1700Y3630D01*
X1690Y3620D01*
X1700D01*
X1710Y3610D01*
X1840Y2150D02*
X1850Y2160D01*
X1860D01*
X1850Y2170D01*
X1860Y2180D01*
X1850D01*
X1840Y2190D01*
X1830Y2180D01*
X1820D01*
X1830Y2170D01*
X1820Y2160D01*
X1830D01*
X1840Y2150D01*
X2300Y2160D02*
X2310Y2170D01*
X2320D01*
X2310Y2180D01*
X2320Y2190D01*
X2310D01*
X2300Y2200D01*
X2290Y2190D01*
X2280D01*
X2290Y2180D01*
X2280Y2170D01*
X2290D01*
X2300Y2160D01*
X1800Y2560D02*
X1810Y2570D01*
X1820D01*
X1810Y2580D01*
X1820Y2590D01*
X1810D01*
X1800Y2600D01*
X1790Y2590D01*
X1780D01*
X1790Y2580D01*
X1780Y2570D01*
X1790D01*
X1800Y2560D01*
X1250Y2460D02*
X1260Y2470D01*
X1270D01*
X1260Y2480D01*
X1270Y2490D01*
X1260D01*
X1250Y2500D01*
X1240Y2490D01*
X1230D01*
X1240Y2480D01*
X1230Y2470D01*
X1240D01*
X1250Y2460D01*
X2173Y2373D02*
X2183Y2383D01*
X2194D01*
X2183Y2393D01*
X2194Y2403D01*
X2183D01*
X2173Y2414D01*
X2163Y2403D01*
X2153D01*
X2163Y2393D01*
X2153Y2383D01*
X2163D01*
X2173Y2373D01*
X166Y1730D02*
X176Y1740D01*
X186D01*
X176Y1750D01*
X186Y1760D01*
X176D01*
X166Y1770D01*
X156Y1760D01*
X145D01*
X156Y1750D01*
X145Y1740D01*
X156D01*
X166Y1730D01*
Y1640D02*
X176Y1650D01*
X186D01*
X176Y1660D01*
X186Y1670D01*
X176D01*
X166Y1680D01*
X156Y1670D01*
X145D01*
X156Y1660D01*
X145Y1650D01*
X156D01*
X166Y1640D01*
X1520Y2190D02*
X1530Y2200D01*
X1540D01*
X1530Y2210D01*
X1540Y2220D01*
X1530D01*
X1520Y2230D01*
X1510Y2220D01*
X1500D01*
X1510Y2210D01*
X1500Y2200D01*
X1510D01*
X1520Y2190D01*
X1430D02*
X1440Y2200D01*
X1450D01*
X1440Y2210D01*
X1450Y2220D01*
X1440D01*
X1430Y2230D01*
X1420Y2220D01*
X1410D01*
X1420Y2210D01*
X1410Y2200D01*
X1420D01*
X1430Y2190D01*
X670Y2040D02*
X680Y2050D01*
X690D01*
X680Y2060D01*
X690Y2070D01*
X680D01*
X670Y2080D01*
X660Y2070D01*
X650D01*
X660Y2060D01*
X650Y2050D01*
X660D01*
X670Y2040D01*
X950D02*
X960Y2050D01*
X970D01*
X960Y2060D01*
X970Y2070D01*
X960D01*
X950Y2080D01*
X940Y2070D01*
X930D01*
X940Y2060D01*
X930Y2050D01*
X940D01*
X950Y2040D01*
X1150Y2940D02*
X1160Y2950D01*
X1170D01*
X1160Y2960D01*
X1170Y2970D01*
X1160D01*
X1150Y2980D01*
X1140Y2970D01*
X1130D01*
X1140Y2960D01*
X1130Y2950D01*
X1140D01*
X1150Y2940D01*
X1396Y973D02*
X1406Y983D01*
X1416D01*
X1406Y993D01*
X1416Y1003D01*
X1406D01*
X1396Y1013D01*
X1386Y1003D01*
X1376D01*
X1386Y993D01*
X1376Y983D01*
X1386D01*
X1396Y973D01*
X1440Y3050D02*
X1450Y3060D01*
X1460D01*
X1450Y3070D01*
X1460Y3080D01*
X1450D01*
X1440Y3090D01*
X1430Y3080D01*
X1420D01*
X1430Y3070D01*
X1420Y3060D01*
X1430D01*
X1440Y3050D01*
X1396Y1227D02*
X1406Y1237D01*
X1416D01*
X1406Y1247D01*
X1416Y1257D01*
X1406D01*
X1396Y1267D01*
X1386Y1257D01*
X1376D01*
X1386Y1247D01*
X1376Y1237D01*
X1386D01*
X1396Y1227D01*
X1650D02*
X1660Y1237D01*
X1670D01*
X1660Y1247D01*
X1670Y1257D01*
X1660D01*
X1650Y1267D01*
X1640Y1257D01*
X1630D01*
X1640Y1247D01*
X1630Y1237D01*
X1640D01*
X1650Y1227D01*
X1904D02*
X1914Y1237D01*
X1924D01*
X1914Y1247D01*
X1924Y1257D01*
X1914D01*
X1904Y1267D01*
X1894Y1257D01*
X1884D01*
X1894Y1247D01*
X1884Y1237D01*
X1894D01*
X1904Y1227D01*
X1910Y970D02*
X1920Y980D01*
X1930D01*
X1920Y990D01*
X1930Y1000D01*
X1920D01*
X1910Y1010D01*
X1900Y1000D01*
X1890D01*
X1900Y990D01*
X1890Y980D01*
X1900D01*
X1910Y970D01*
X940Y2710D02*
X950Y2720D01*
X960D01*
X950Y2730D01*
X960Y2740D01*
X950D01*
X940Y2750D01*
X930Y2740D01*
X920D01*
X930Y2730D01*
X920Y2720D01*
X930D01*
X940Y2710D01*
X500Y1671D02*
X510Y1681D01*
X520D01*
X510Y1691D01*
X520Y1701D01*
X510D01*
X500Y1712D01*
X490Y1701D01*
X480D01*
X490Y1691D01*
X480Y1681D01*
X490D01*
X500Y1671D01*
X1590Y3740D02*
X1600Y3750D01*
X1610D01*
X1600Y3761D01*
X1610Y3771D01*
X1600D01*
X1590Y3781D01*
X1580Y3771D01*
X1570D01*
X1580Y3761D01*
X1570Y3750D01*
X1580D01*
X1590Y3740D01*
X1790Y220D02*
X1800Y230D01*
X1810D01*
X1800Y240D01*
X1810Y250D01*
X1800D01*
X1790Y260D01*
X1780Y250D01*
X1770D01*
X1780Y240D01*
X1770Y230D01*
X1780D01*
X1790Y220D01*
X1690D02*
X1700Y230D01*
X1710D01*
X1700Y240D01*
X1710Y250D01*
X1700D01*
X1690Y260D01*
X1680Y250D01*
X1670D01*
X1680Y240D01*
X1670Y230D01*
X1680D01*
X1690Y220D01*
X1155Y3265D02*
X1165Y3275D01*
X1175D01*
X1165Y3285D01*
X1175Y3295D01*
X1165D01*
X1155Y3305D01*
X1145Y3295D01*
X1135D01*
X1145Y3285D01*
X1135Y3275D01*
X1145D01*
X1155Y3265D01*
X1005Y3265D02*
X1015Y3275D01*
X1025D01*
X1015Y3285D01*
X1025Y3295D01*
X1015D01*
X1005Y3305D01*
X995Y3295D01*
X985D01*
X995Y3285D01*
X985Y3275D01*
X995D01*
X1005Y3265D01*
X1065Y2845D02*
X1075Y2855D01*
X1085D01*
X1075Y2865D01*
X1085Y2875D01*
X1075D01*
X1065Y2885D01*
X1055Y2875D01*
X1045D01*
X1055Y2865D01*
X1045Y2855D01*
X1055D01*
X1065Y2845D01*
X2500Y3290D02*
X2510Y3300D01*
X2520D01*
X2510Y3310D01*
X2520Y3320D01*
X2510D01*
X2500Y3330D01*
X2490Y3320D01*
X2480D01*
X2490Y3310D01*
X2480Y3300D01*
X2490D01*
X2500Y3290D01*
Y3480D02*
X2510Y3490D01*
X2520D01*
X2510Y3500D01*
X2520Y3510D01*
X2510D01*
X2500Y3520D01*
X2490Y3510D01*
X2480D01*
X2490Y3500D01*
X2480Y3490D01*
X2490D01*
X2500Y3480D01*
X1580Y4610D02*
X1590Y4620D01*
X1600D01*
X1590Y4630D01*
X1600Y4640D01*
X1590D01*
X1580Y4650D01*
X1570Y4640D01*
X1560D01*
X1570Y4630D01*
X1560Y4620D01*
X1570D01*
X1580Y4610D01*
X1620Y4520D02*
X1630Y4530D01*
X1640D01*
X1630Y4540D01*
X1640Y4550D01*
X1630D01*
X1620Y4560D01*
X1610Y4550D01*
X1600D01*
X1610Y4540D01*
X1600Y4530D01*
X1610D01*
X1620Y4520D01*
X1700Y4460D02*
X1710Y4470D01*
X1720D01*
X1710Y4480D01*
X1720Y4490D01*
X1710D01*
X1700Y4500D01*
X1690Y4490D01*
X1680D01*
X1690Y4480D01*
X1680Y4470D01*
X1690D01*
X1700Y4460D01*
X1820Y4440D02*
X1830Y4450D01*
X1840D01*
X1830Y4460D01*
X1840Y4470D01*
X1830D01*
X1820Y4480D01*
X1810Y4470D01*
X1800D01*
X1810Y4460D01*
X1800Y4450D01*
X1810D01*
X1820Y4440D01*
X1950D02*
X1960Y4450D01*
X1970D01*
X1960Y4460D01*
X1970Y4470D01*
X1960D01*
X1950Y4480D01*
X1940Y4470D01*
X1930D01*
X1940Y4460D01*
X1930Y4450D01*
X1940D01*
X1950Y4440D01*
X2060D02*
X2070Y4450D01*
X2080D01*
X2070Y4460D01*
X2080Y4470D01*
X2070D01*
X2060Y4480D01*
X2050Y4470D01*
X2040D01*
X2050Y4460D01*
X2040Y4450D01*
X2050D01*
X2060Y4440D01*
Y4700D02*
X2070Y4710D01*
X2080D01*
X2070Y4720D01*
X2080Y4730D01*
X2070D01*
X2060Y4740D01*
X2050Y4730D01*
X2040D01*
X2050Y4720D01*
X2040Y4710D01*
X2050D01*
X2060Y4700D01*
X470Y3890D02*
X480Y3900D01*
X490D01*
X480Y3910D01*
X490Y3920D01*
X480D01*
X470Y3930D01*
X460Y3920D01*
X450D01*
X460Y3910D01*
X450Y3900D01*
X460D01*
X470Y3890D01*
X780D02*
X790Y3900D01*
X800D01*
X790Y3910D01*
X800Y3920D01*
X790D01*
X780Y3930D01*
X770Y3920D01*
X760D01*
X770Y3910D01*
X760Y3900D01*
X770D01*
X780Y3890D01*
X2000Y2230D02*
X2010Y2240D01*
X2020D01*
X2010Y2250D01*
X2020Y2260D01*
X2010D01*
X2000Y2270D01*
X1990Y2260D01*
X1980D01*
X1990Y2250D01*
X1980Y2240D01*
X1990D01*
X2000Y2230D01*
X640Y3200D02*
X650Y3210D01*
X660D01*
X650Y3220D01*
X660Y3230D01*
X650D01*
X640Y3240D01*
X630Y3230D01*
X620D01*
X630Y3220D01*
X620Y3210D01*
X630D01*
X640Y3200D01*
X1610Y2310D02*
X1620Y2320D01*
X1630D01*
X1620Y2330D01*
X1630Y2340D01*
X1620D01*
X1610Y2350D01*
X1600Y2340D01*
X1590D01*
X1600Y2330D01*
X1590Y2320D01*
X1600D01*
X1610Y2310D01*
X1550Y3126D02*
X1560Y3136D01*
X1570D01*
X1560Y3146D01*
X1570Y3156D01*
X1560D01*
X1550Y3166D01*
X1540Y3156D01*
X1530D01*
X1540Y3146D01*
X1530Y3136D01*
X1540D01*
X1550Y3126D01*
X1650Y980D02*
X1660Y990D01*
X1670D01*
X1660Y1000D01*
X1670Y1010D01*
X1660D01*
X1650Y1020D01*
X1640Y1010D01*
X1630D01*
X1640Y1000D01*
X1630Y990D01*
X1640D01*
X1650Y980D01*
X2740Y2430D02*
X2750Y2440D01*
X2760D01*
X2750Y2450D01*
X2760Y2460D01*
X2750D01*
X2740Y2470D01*
X2730Y2460D01*
X2720D01*
X2730Y2450D01*
X2720Y2440D01*
X2730D01*
X2740Y2430D01*
Y2310D02*
X2750Y2320D01*
X2760D01*
X2750Y2330D01*
X2760Y2340D01*
X2750D01*
X2740Y2350D01*
X2730Y2340D01*
X2720D01*
X2730Y2330D01*
X2720Y2320D01*
X2730D01*
X2740Y2310D01*
X2830Y2627D02*
X2840Y2637D01*
X2850D01*
X2840Y2647D01*
X2850Y2657D01*
X2840D01*
X2830Y2667D01*
X2820Y2657D01*
X2810D01*
X2820Y2647D01*
X2810Y2637D01*
X2820D01*
X2830Y2627D01*
X1910Y1920D02*
X1920Y1930D01*
X1930D01*
X1920Y1940D01*
X1930Y1950D01*
X1920D01*
X1910Y1960D01*
X1900Y1950D01*
X1890D01*
X1900Y1940D01*
X1890Y1930D01*
X1900D01*
X1910Y1920D01*
D83*
X280Y2360D02*
G03*
X280Y2360I-20J0D01*
G01*
Y2060D02*
G03*
X280Y2060I-20J0D01*
G01*
M02*
