G04 Layer_Color=8388736*
%FSLAX42Y42*%
%MOMM*%
G71*
G01*
G75*
%ADD39R,1.30X2.50*%
%ADD40R,0.80X0.60*%
%ADD41R,0.80X0.60*%
%ADD42C,0.10*%
%ADD55R,1.15X1.10*%
%ADD56R,2.30X1.15*%
%ADD57R,1.07X0.76*%
%ADD58R,0.45X0.60*%
%ADD59R,0.90X0.90*%
%ADD60R,0.76X1.07*%
%ADD61R,1.70X0.40*%
%ADD62R,0.70X0.70*%
%ADD63R,1.70X0.70*%
%ADD64R,1.90X1.30*%
%ADD65R,1.65X0.70*%
%ADD66R,1.60X2.10*%
%ADD67R,0.80X1.00*%
%ADD68R,2.80X1.30*%
G04:AMPARAMS|DCode=69|XSize=0.76mm|YSize=1.07mm|CornerRadius=0.22mm|HoleSize=0mm|Usage=FLASHONLY|Rotation=270.000|XOffset=0mm|YOffset=0mm|HoleType=Round|Shape=RoundedRectangle|*
%AMROUNDEDRECTD69*
21,1,0.76,0.64,0,0,270.0*
21,1,0.33,1.07,0,0,270.0*
1,1,0.43,-0.32,-0.17*
1,1,0.43,-0.32,0.17*
1,1,0.43,0.32,0.17*
1,1,0.43,0.32,-0.17*
%
%ADD69ROUNDEDRECTD69*%
%ADD70O,1.62X0.86*%
%ADD71R,0.65X1.60*%
%ADD72R,1.60X0.65*%
%ADD73R,0.60X0.70*%
%ADD74R,0.70X0.60*%
%ADD75R,0.55X1.55*%
%ADD76O,1.45X0.60*%
%ADD77R,1.60X1.60*%
%ADD78C,1.60*%
%ADD79C,0.85*%
%ADD80C,2.10*%
%ADD81R,1.10X1.10*%
D39*
X945Y225D02*
D03*
D40*
X2240Y4040D02*
D03*
Y4200D02*
D03*
D41*
Y3870D02*
D03*
D42*
X2485Y735D02*
X2545D01*
Y705D01*
X2535Y695D01*
X2515D01*
X2505Y705D01*
Y735D01*
Y715D02*
X2485Y695D01*
X2545Y635D02*
Y675D01*
X2485D01*
Y635D01*
X2515Y675D02*
Y655D01*
X2545Y615D02*
X2505D01*
X2485Y595D01*
X2505Y575D01*
X2545D01*
X2525Y555D02*
Y545D01*
X2515D01*
Y555D01*
X2525D01*
X2495D02*
Y545D01*
X2485D01*
Y555D01*
X2495D01*
X2535Y465D02*
X2545Y475D01*
Y495D01*
X2535Y505D01*
X2495D01*
X2485Y495D01*
Y475D01*
X2495Y465D01*
X137Y5000D02*
G03*
X0Y4863I0J-137D01*
G01*
X3000D02*
G03*
X2863Y5000I-137J0D01*
G01*
X2863Y0D02*
G03*
X3000Y137I0J137D01*
G01*
X0Y137D02*
G03*
X137Y0I137J0D01*
G01*
X0Y1740D02*
G03*
X60Y1800I0J60D01*
G01*
Y3420D02*
G03*
X0Y3480I-60J0D01*
G01*
X137Y5000D02*
X2863D01*
X3000Y137D02*
Y4863D01*
X137Y0D02*
X2863D01*
X60Y1800D02*
Y3420D01*
X0Y3480D02*
Y4863D01*
Y137D02*
Y1740D01*
D55*
X799Y247D02*
D03*
X2080Y4580D02*
D03*
D56*
X646Y100D02*
D03*
Y395D02*
D03*
X2232Y4728D02*
D03*
Y4433D02*
D03*
D57*
X2700Y4121D02*
D03*
Y3959D02*
D03*
X1930Y4579D02*
D03*
X1930Y4741D02*
D03*
X840Y2499D02*
D03*
Y2661D02*
D03*
X2090Y2651D02*
D03*
Y2489D02*
D03*
X1590Y3701D02*
D03*
Y3539D02*
D03*
X570Y1529D02*
D03*
X570Y1691D02*
D03*
X390Y3691D02*
D03*
Y3529D02*
D03*
X1155Y3696D02*
D03*
Y3534D02*
D03*
X1005Y3696D02*
D03*
X1005Y3534D02*
D03*
D58*
X2492Y3960D02*
D03*
Y4120D02*
D03*
X2427Y3960D02*
D03*
Y4120D02*
D03*
X2558D02*
D03*
Y3960D02*
D03*
X2362D02*
D03*
Y4120D02*
D03*
D59*
X300Y4340D02*
D03*
X300Y4560D02*
D03*
D60*
X2349Y3660D02*
D03*
X2511Y3660D02*
D03*
X2309Y3120D02*
D03*
X2471Y3120D02*
D03*
D61*
X840Y2345D02*
D03*
Y2250D02*
D03*
Y2155D02*
D03*
D62*
X95Y1845D02*
D03*
Y2575D02*
D03*
X425D02*
D03*
Y1845D02*
D03*
D63*
X510Y2435D02*
D03*
Y2135D02*
D03*
Y1985D02*
D03*
D64*
X145Y2690D02*
D03*
Y3350D02*
D03*
D65*
X535Y2920D02*
D03*
Y3020D02*
D03*
Y3120D02*
D03*
Y3220D02*
D03*
Y2820D02*
D03*
D66*
X2340Y320D02*
D03*
X2140D02*
D03*
X1740D02*
D03*
X1940D02*
D03*
X1140D02*
D03*
X940D02*
D03*
X1340D02*
D03*
X1540D02*
D03*
Y1800D02*
D03*
X1340D02*
D03*
X940D02*
D03*
X1940D02*
D03*
X1740D02*
D03*
X2140D02*
D03*
X2340D02*
D03*
D67*
X1800Y3830D02*
D03*
X1690Y3830D02*
D03*
X1580D02*
D03*
X1470Y3830D02*
D03*
X1360Y3830D02*
D03*
X1250D02*
D03*
X1020D02*
D03*
X910D02*
D03*
X1130D02*
D03*
X1130Y4740D02*
D03*
X910D02*
D03*
X1020D02*
D03*
X1250D02*
D03*
X1360D02*
D03*
X1470D02*
D03*
X1580D02*
D03*
X1690D02*
D03*
X1800D02*
D03*
D68*
X300Y4230D02*
D03*
Y3890D02*
D03*
D69*
X220Y3529D02*
D03*
X220Y3691D02*
D03*
D70*
X166Y1610D02*
D03*
X394Y1704D02*
D03*
Y1516D02*
D03*
D71*
X1200Y2960D02*
D03*
X1280D02*
D03*
X1360D02*
D03*
X1440D02*
D03*
X1520D02*
D03*
X1600D02*
D03*
X1680D02*
D03*
X1760D02*
D03*
Y2100D02*
D03*
X1680D02*
D03*
X1600D02*
D03*
X1520D02*
D03*
X1440D02*
D03*
X1360D02*
D03*
X1280D02*
D03*
X1200D02*
D03*
D72*
X1910Y2810D02*
D03*
Y2730D02*
D03*
Y2650D02*
D03*
Y2570D02*
D03*
Y2490D02*
D03*
Y2410D02*
D03*
Y2330D02*
D03*
Y2250D02*
D03*
X1050D02*
D03*
Y2330D02*
D03*
Y2410D02*
D03*
Y2490D02*
D03*
Y2570D02*
D03*
Y2650D02*
D03*
Y2730D02*
D03*
Y2810D02*
D03*
D73*
X2595Y3240D02*
D03*
Y3390D02*
D03*
Y3540D02*
D03*
X2305D02*
D03*
Y3390D02*
D03*
Y3240D02*
D03*
D74*
X2450D02*
D03*
D75*
X528Y4500D02*
D03*
X528Y3910D02*
D03*
X658Y4500D02*
D03*
X593D02*
D03*
X723D02*
D03*
X658Y3910D02*
D03*
X593D02*
D03*
X723D02*
D03*
D76*
X2290Y2583D02*
D03*
X2830D02*
D03*
Y2710D02*
D03*
X2290D02*
D03*
X2830Y2457D02*
D03*
X2290D02*
D03*
X2830Y2330D02*
D03*
X2290D02*
D03*
D77*
X185Y1150D02*
D03*
X615D02*
D03*
X185Y570D02*
D03*
X615D02*
D03*
D78*
X730Y1316D02*
D03*
Y1570D02*
D03*
Y1824D02*
D03*
Y808D02*
D03*
Y1062D02*
D03*
X2850Y2892D02*
D03*
Y3146D02*
D03*
Y3654D02*
D03*
Y3400D02*
D03*
Y2130D02*
D03*
D79*
X260Y2360D02*
D03*
Y2060D02*
D03*
D80*
X700Y3500D02*
D03*
X2800Y4800D02*
D03*
X2800Y200D02*
D03*
X200Y4800D02*
D03*
Y200D02*
D03*
D81*
X730Y1930D02*
D03*
X920D02*
D03*
M02*
