G04 Layer_Color=8421504*
%FSLAX42Y42*%
%MOMM*%
G71*
G01*
G75*
%ADD13R,1.05X1.00*%
%ADD14R,2.20X1.05*%
%ADD15R,0.97X0.66*%
%ADD16R,0.35X0.50*%
%ADD18R,0.66X0.97*%
%ADD19R,1.60X0.30*%
%ADD20R,0.60X0.60*%
%ADD21R,1.60X0.60*%
%ADD22R,1.80X1.20*%
%ADD23R,1.55X0.60*%
%ADD24R,1.50X2.00*%
%ADD25R,0.70X0.90*%
%ADD26R,2.70X1.20*%
G04:AMPARAMS|DCode=27|XSize=0.66mm|YSize=0.97mm|CornerRadius=0.17mm|HoleSize=0mm|Usage=FLASHONLY|Rotation=270.000|XOffset=0mm|YOffset=0mm|HoleType=Round|Shape=RoundedRectangle|*
%AMROUNDEDRECTD27*
21,1,0.66,0.64,0,0,270.0*
21,1,0.33,0.97,0,0,270.0*
1,1,0.33,-0.32,-0.17*
1,1,0.33,-0.32,0.17*
1,1,0.33,0.32,0.17*
1,1,0.33,0.32,-0.17*
%
%ADD27ROUNDEDRECTD27*%
%ADD28O,1.52X0.76*%
%ADD29R,0.55X1.50*%
%ADD30R,1.50X0.55*%
%ADD31R,0.50X0.60*%
%ADD32R,0.60X0.50*%
%ADD33R,0.45X1.45*%
%ADD34O,1.35X0.50*%
%ADD35R,1.50X1.50*%
%ADD40R,0.80X0.60*%
%ADD41R,0.80X0.60*%
%ADD42C,0.10*%
%ADD54R,0.70X0.70*%
D13*
X799Y247D02*
D03*
X2080Y4580D02*
D03*
D14*
X646Y100D02*
D03*
Y395D02*
D03*
X2232Y4728D02*
D03*
Y4433D02*
D03*
D15*
X2700Y4121D02*
D03*
Y3959D02*
D03*
X1930Y4579D02*
D03*
X1930Y4741D02*
D03*
X840Y2499D02*
D03*
Y2661D02*
D03*
X2090Y2651D02*
D03*
Y2489D02*
D03*
X1590Y3701D02*
D03*
Y3539D02*
D03*
X570Y1529D02*
D03*
X570Y1691D02*
D03*
X390Y3691D02*
D03*
Y3529D02*
D03*
X1155Y3696D02*
D03*
Y3534D02*
D03*
X1005Y3696D02*
D03*
X1005Y3534D02*
D03*
D16*
X2492Y3960D02*
D03*
Y4120D02*
D03*
X2427Y3960D02*
D03*
Y4120D02*
D03*
X2558D02*
D03*
Y3960D02*
D03*
X2362D02*
D03*
Y4120D02*
D03*
D18*
X2349Y3660D02*
D03*
X2511Y3660D02*
D03*
X2309Y3120D02*
D03*
X2471Y3120D02*
D03*
D19*
X840Y2345D02*
D03*
Y2250D02*
D03*
Y2155D02*
D03*
D20*
X95Y1845D02*
D03*
Y2575D02*
D03*
X425D02*
D03*
Y1845D02*
D03*
D21*
X510Y2435D02*
D03*
Y2135D02*
D03*
Y1985D02*
D03*
D22*
X145Y2690D02*
D03*
Y3350D02*
D03*
D23*
X535Y2920D02*
D03*
Y3020D02*
D03*
Y3120D02*
D03*
Y3220D02*
D03*
Y2820D02*
D03*
D24*
X2340Y320D02*
D03*
X2140D02*
D03*
X1740D02*
D03*
X1940D02*
D03*
X1140D02*
D03*
X940D02*
D03*
X1340D02*
D03*
X1540D02*
D03*
Y1800D02*
D03*
X1340D02*
D03*
X940D02*
D03*
X1940D02*
D03*
X1740D02*
D03*
X2140D02*
D03*
X2340D02*
D03*
D25*
X1800Y3830D02*
D03*
X1690Y3830D02*
D03*
X1580D02*
D03*
X1470Y3830D02*
D03*
X1360Y3830D02*
D03*
X1250D02*
D03*
X1020D02*
D03*
X910D02*
D03*
X1130D02*
D03*
X1130Y4740D02*
D03*
X910D02*
D03*
X1020D02*
D03*
X1250D02*
D03*
X1360D02*
D03*
X1470D02*
D03*
X1580D02*
D03*
X1690D02*
D03*
X1800D02*
D03*
D26*
X300Y4230D02*
D03*
Y3890D02*
D03*
D27*
X220Y3529D02*
D03*
X220Y3691D02*
D03*
D28*
X166Y1610D02*
D03*
X394Y1704D02*
D03*
Y1516D02*
D03*
D29*
X1200Y2960D02*
D03*
X1280D02*
D03*
X1360D02*
D03*
X1440D02*
D03*
X1520D02*
D03*
X1600D02*
D03*
X1680D02*
D03*
X1760D02*
D03*
Y2100D02*
D03*
X1680D02*
D03*
X1600D02*
D03*
X1520D02*
D03*
X1440D02*
D03*
X1360D02*
D03*
X1280D02*
D03*
X1200D02*
D03*
D30*
X1910Y2810D02*
D03*
Y2730D02*
D03*
Y2650D02*
D03*
Y2570D02*
D03*
Y2490D02*
D03*
Y2410D02*
D03*
Y2330D02*
D03*
Y2250D02*
D03*
X1050D02*
D03*
Y2330D02*
D03*
Y2410D02*
D03*
Y2490D02*
D03*
Y2570D02*
D03*
Y2650D02*
D03*
Y2730D02*
D03*
Y2810D02*
D03*
D31*
X2595Y3240D02*
D03*
Y3390D02*
D03*
Y3540D02*
D03*
X2305D02*
D03*
Y3390D02*
D03*
Y3240D02*
D03*
D32*
X2450D02*
D03*
D33*
X528Y4500D02*
D03*
X528Y3910D02*
D03*
X658Y4500D02*
D03*
X593D02*
D03*
X723D02*
D03*
X658Y3910D02*
D03*
X593D02*
D03*
X723D02*
D03*
D34*
X2290Y2583D02*
D03*
X2830D02*
D03*
Y2710D02*
D03*
X2290D02*
D03*
X2830Y2457D02*
D03*
X2290D02*
D03*
X2830Y2330D02*
D03*
X2290D02*
D03*
D35*
X185Y1150D02*
D03*
X615D02*
D03*
X185Y570D02*
D03*
X615D02*
D03*
D40*
X2240Y4040D02*
D03*
Y4200D02*
D03*
D41*
Y3870D02*
D03*
D42*
X137Y5000D02*
G03*
X0Y4863I0J-137D01*
G01*
X3000D02*
G03*
X2863Y5000I-137J0D01*
G01*
X2863Y0D02*
G03*
X3000Y137I0J137D01*
G01*
X0Y137D02*
G03*
X137Y0I137J0D01*
G01*
X0Y1740D02*
G03*
X60Y1800I0J60D01*
G01*
Y3420D02*
G03*
X0Y3480I-60J0D01*
G01*
X137Y5000D02*
X2863D01*
X3000Y137D02*
Y4863D01*
X137Y0D02*
X2863D01*
X60Y1800D02*
Y3420D01*
X0Y3480D02*
Y4863D01*
Y137D02*
Y1740D01*
D54*
X300Y4340D02*
D03*
X300Y4560D02*
D03*
M02*
