M48
;Layer_Color=9474304
;FILE_FORMAT=4:2
METRIC,LZ
;TYPE=PLATED
T1F00S00C0.50
T2F00S00C0.70
T3F00S00C0.90
T4F00S00C1.20
;TYPE=NON_PLATED
T5F00S00C2.10
T6F00S00C4.20
%
T01
X000625Y0007
X000775
X000925
X001075
X001225
X001375
T02
X000625Y00055
X000775
X000925
X001075
X001225
X001375
T03
X000625Y0004
X000775
X000925
X001075
X001225
X001375
X001254Y001096
Y00135
X001
X000746
Y001096
X001
T04
X000625Y00025
X000775
X000925
X001075
X001225
X001375
T05
X00025Y00025
Y00055
X00024Y00115
Y00145
X00174
Y00115
X00175Y00055
Y00025
T06
X000996Y0025
M30
