G04 ================== begin FILE IDENTIFICATION RECORD ==================*
G04 Layout Name:  MCU013_LAUNCHXL-CC1310_CC1190.brd*
G04 Film Name:    LAUNCHXL-CC1310-C1190_soldmask_top*
G04 File Format:  Gerber RS274X*
G04 File Origin:  Cadence Allegro 17.2-S024*
G04 Origin Date:  Fri Jan 26 16:30:51 2018*
G04 *
G04 Layer:  PACKAGE GEOMETRY/SOLDERMASK_TOP*
G04 Layer:  VIA CLASS/SOLDERMASK_TOP*
G04 Layer:  PIN/SOLDERMASK_TOP*
G04 Layer:  BOARD GEOMETRY/OUTLINE*
G04 *
G04 Offset:    (0.000 0.000)*
G04 Mirror:    No*
G04 Mode:      Positive*
G04 Rotation:  0*
G04 FullContactRelief:  No*
G04 UndefLineWidth:     0.099*
G04 ================== end FILE IDENTIFICATION RECORD ====================*
%FSLAX25Y25*MOMM*%
%IR0*IPPOS*OFA0.00000B0.00000*MIA0B0*SFA1.00000B1.00000*%
%AMMACRO60*
4,1,41,0.0,.526,
-.226,.526,
-.265108,.522345,
-.302987,.511955,
-.338486,.495145,
-.370527,.472426,
-.398137,.444488,
-.420475,.412181,
-.436864,.376485,
-.446805,.338486,
-.45,.3,
-.45,-.3,
-.446693,-.339139,
-.43664,-.377109,
-.420146,-.412756,
-.397713,-.444998,
-.370022,-.472854,
-.337914,-.495479,
-.302365,-.512184,
-.264456,-.522463,
-.226,-.526,
.226,-.526,
.265108,-.522345,
.302987,-.511955,
.338486,-.495145,
.370527,-.472426,
.398137,-.444488,
.420475,-.412181,
.436864,-.376485,
.446805,-.338486,
.45,-.3,
.45,.3,
.446693,.339139,
.43664,.377109,
.420146,.412756,
.397713,.444998,
.370022,.472854,
.337914,.495479,
.302365,.512184,
.264456,.522463,
.226,.526,
0.0,.526,
0.0*
%
%ADD60MACRO60*%
%AMMACRO49*
4,1,41,.375,0.0,
.375,.185,
.372189,.217125,
.363843,.248274,
.350215,.2775,
.331718,.303916,
.308916,.326718,
.2825,.345215,
.253274,.358843,
.222125,.367189,
.19,.37,
-.19,.37,
-.222125,.367189,
-.253274,.358843,
-.2825,.345215,
-.308916,.326718,
-.331718,.303916,
-.350215,.2775,
-.363843,.248274,
-.372189,.217125,
-.375,.185,
-.375,-.185,
-.372189,-.217125,
-.363843,-.248274,
-.350215,-.2775,
-.331718,-.303916,
-.308916,-.326718,
-.2825,-.345215,
-.253274,-.358843,
-.222125,-.367189,
-.19,-.37,
.19,-.37,
.222125,-.367189,
.253274,-.358843,
.2825,-.345215,
.308916,-.326718,
.331718,-.303916,
.350215,-.2775,
.363843,-.248274,
.372189,-.217125,
.375,-.185,
.375,0.0,
0.0*
%
%ADD49MACRO49*%
%AMMACRO35*
4,1,44,-.099,.249,
.099,.249,
.116392,.247829,
.133317,.243655,
.149259,.236606,
.163736,.226896,
.176306,.214819,
.186588,.200743,
.19427,.185095,
.199118,.168352,
.200985,.15102,
.201,.15,
.201,-.15,
.19931,-.167349,
.194633,-.184142,
.187112,-.199867,
.176974,-.214047,
.164527,-.226252,
.150151,-.236109,
.134281,-.243321,
.1174,-.247667,
.10002,-.249015,
.099,-.249,
-.099,-.249,
-.116392,-.247829,
-.133317,-.243655,
-.149259,-.236606,
-.163736,-.226896,
-.176306,-.214819,
-.186588,-.200743,
-.19427,-.185095,
-.199118,-.168352,
-.200985,-.15102,
-.201,-.15,
-.201,.15,
-.19931,.167349,
-.194633,.184142,
-.187112,.199867,
-.176974,.214047,
-.164527,.226252,
-.150151,.236109,
-.134281,.243321,
-.1174,.247667,
-.10002,.249015,
-.099,.249,
0.0*
%
%ADD35MACRO35*%
%AMMACRO58*
4,1,41,0.0,.675,
-.2,.675,
-.23473,.671962,
-.268404,.662939,
-.3,.648205,
-.328558,.628209,
-.353209,.603558,
-.373205,.575,
-.387939,.543404,
-.396962,.50973,
-.4,.475,
-.4,-.475,
-.396962,-.50973,
-.387939,-.543404,
-.373205,-.575,
-.353209,-.603558,
-.328558,-.628209,
-.3,-.648205,
-.268404,-.662939,
-.23473,-.671962,
-.2,-.675,
.2,-.675,
.23473,-.671962,
.268404,-.662939,
.3,-.648205,
.328558,-.628209,
.353209,-.603558,
.373205,-.575,
.387939,-.543404,
.396962,-.50973,
.4,-.475,
.4,.475,
.396962,.50973,
.387939,.543404,
.373205,.575,
.353209,.603558,
.328558,.628209,
.3,.648205,
.268404,.662939,
.23473,.671962,
.2,.675,
0.0,.675,
0.0*
%
%ADD58MACRO58*%
%ADD64O,1.X.4*%
%ADD65O,.4X1.*%
%AMMACRO15*
4,1,41,.337,0.0,
.337,.11,
.333734,.147334,
.324034,.183534,
.308195,.2175,
.2867,.248199,
.260199,.2747,
.2295,.296195,
.195534,.312034,
.159334,.321734,
.122,.325,
-.122,.325,
-.159334,.321734,
-.195534,.312034,
-.2295,.296195,
-.260199,.2747,
-.2867,.248199,
-.308195,.2175,
-.324034,.183534,
-.333734,.147334,
-.337,.11,
-.337,-.11,
-.333734,-.147334,
-.324034,-.183534,
-.308195,-.2175,
-.2867,-.248199,
-.260199,-.2747,
-.2295,-.296195,
-.195534,-.312034,
-.159334,-.321734,
-.122,-.325,
.122,-.325,
.159334,-.321734,
.195534,-.312034,
.2295,-.296195,
.260199,-.2747,
.2867,-.248199,
.308195,-.2175,
.324034,-.183534,
.333734,-.147334,
.337,-.11,
.337,0.0,
0.0*
%
%ADD15MACRO15*%
%AMMACRO78*
4,1,40,.975,-.287,
.975,.287,
.970608,.336864,
.957625,.385207,
.936443,.430561,
.907708,.471548,
.872292,.506923,
.831272,.53561,
.785893,.556739,
.737534,.569666,
.688,.574,
-.688,.574,
-.737864,.569608,
-.786207,.556625,
-.831561,.535443,
-.872548,.506708,
-.907923,.471292,
-.93661,.430272,
-.957739,.384893,
-.970666,.336534,
-.975,.287,
-.975,-.287,
-.970608,-.336864,
-.957625,-.385207,
-.936443,-.430561,
-.907708,-.471548,
-.872292,-.506923,
-.831272,-.53561,
-.785893,-.556739,
-.737534,-.569666,
-.688,-.574,
.688,-.574,
.737864,-.569608,
.786207,-.556625,
.831561,-.535443,
.872548,-.506708,
.907923,-.471292,
.93661,-.430272,
.957739,-.384893,
.970666,-.336534,
.975,-.287,
0.0*
%
%ADD78MACRO78*%
%AMMACRO27*
4,1,41,0.0,-.337,
.11,-.337,
.147334,-.333734,
.183534,-.324034,
.2175,-.308195,
.248199,-.2867,
.2747,-.260199,
.296195,-.2295,
.312034,-.195534,
.321734,-.159334,
.325,-.122,
.325,.122,
.321734,.159334,
.312034,.195534,
.296195,.2295,
.2747,.260199,
.248199,.2867,
.2175,.308195,
.183534,.324034,
.147334,.333734,
.11,.337,
-.11,.337,
-.147334,.333734,
-.183534,.324034,
-.2175,.308195,
-.248199,.2867,
-.2747,.260199,
-.296195,.2295,
-.312034,.195534,
-.321734,.159334,
-.325,.122,
-.325,-.122,
-.321734,-.159334,
-.312034,-.195534,
-.296195,-.2295,
-.2747,-.260199,
-.248199,-.2867,
-.2175,-.308195,
-.183534,-.324034,
-.147334,-.333734,
-.11,-.337,
0.0,-.337,
0.0*
%
%ADD27MACRO27*%
%AMMACRO50*
4,1,41,.45,0.0,
.45,.244,
.446797,.279833,
.43742,.314566,
.422154,.347143,
.401463,.376574,
.375976,.401965,
.346467,.422544,
.313833,.437687,
.279065,.446932,
.244,.45,
-.244,.45,
-.279833,.446797,
-.314566,.43742,
-.347143,.422154,
-.376574,.401463,
-.401965,.375976,
-.422544,.346467,
-.437687,.313833,
-.446932,.279065,
-.45,.244,
-.45,-.244,
-.446797,-.279833,
-.43742,-.314566,
-.422154,-.347143,
-.401463,-.376574,
-.375976,-.401965,
-.346467,-.422544,
-.313833,-.437687,
-.279065,-.446932,
-.244,-.45,
.244,-.45,
.279833,-.446797,
.314566,-.43742,
.347143,-.422154,
.376574,-.401463,
.401965,-.375976,
.422544,-.346467,
.437687,-.313833,
.446932,-.279065,
.45,-.244,
.45,0.0,
0.0*
%
%ADD50MACRO50*%
%AMMACRO43*
4,1,41,1.975,0.0,
1.975,.288,
1.970545,.337916,
1.957491,.386301,
1.936232,.431683,
1.907416,.472684,
1.871918,.508059,
1.830817,.536732,
1.785361,.557833,
1.736931,.570719,
1.688,.575,
-1.688,.575,
-1.737916,.570545,
-1.786301,.557491,
-1.831683,.536232,
-1.872684,.507416,
-1.908059,.471918,
-1.936732,.430817,
-1.957833,.385361,
-1.970719,.336931,
-1.975,.288,
-1.975,-.288,
-1.970545,-.337916,
-1.957491,-.386301,
-1.936232,-.431683,
-1.907416,-.472684,
-1.871918,-.508059,
-1.830817,-.536732,
-1.785361,-.557833,
-1.736931,-.570719,
-1.688,-.575,
1.688,-.575,
1.737916,-.570545,
1.786301,-.557491,
1.831683,-.536232,
1.872684,-.507416,
1.908059,-.471918,
1.936732,-.430817,
1.957833,-.385361,
1.970719,-.336931,
1.975,-.288,
1.975,0.0,
0.0*
%
%ADD43MACRO43*%
%ADD53O,1.1X.45*%
%AMMACRO44*
4,1,41,0.0,-1.975,
.288,-1.975,
.337916,-1.970545,
.386301,-1.957491,
.431683,-1.936232,
.472684,-1.907416,
.508059,-1.871918,
.536732,-1.830817,
.557833,-1.785361,
.570719,-1.736931,
.575,-1.688,
.575,1.688,
.570545,1.737916,
.557491,1.786301,
.536232,1.831683,
.507416,1.872684,
.471918,1.908059,
.430817,1.936732,
.385361,1.957833,
.336931,1.970719,
.288,1.975,
-.288,1.975,
-.337916,1.970545,
-.386301,1.957491,
-.431683,1.936232,
-.472684,1.907416,
-.508059,1.871918,
-.536732,1.830817,
-.557833,1.785361,
-.570719,1.736931,
-.575,1.688,
-.575,-1.688,
-.570545,-1.737916,
-.557491,-1.786301,
-.536232,-1.831683,
-.507416,-1.872684,
-.471918,-1.908059,
-.430817,-1.936732,
-.385361,-1.957833,
-.336931,-1.970719,
-.288,-1.975,
0.0,-1.975,
0.0*
%
%ADD44MACRO44*%
%ADD54O,.45X1.1*%
%ADD82O,.701X2.2*%
%AMMACRO29*
4,1,44,.376,.185,
.376,-.185,
.373237,-.217246,
.364917,-.248522,
.351292,-.277878,
.332776,-.304422,
.309933,-.327348,
.283455,-.345959,
.254148,-.359689,
.222902,-.368121,
.190666,-.371,
.19,-.371,
-.19,-.371,
-.222246,-.368237,
-.253522,-.359917,
-.282878,-.346292,
-.309422,-.327776,
-.332348,-.304933,
-.350959,-.278455,
-.364689,-.249148,
-.373121,-.217902,
-.376,-.185666,
-.376,-.185,
-.376,.185,
-.373237,.217246,
-.364917,.248522,
-.351292,.277878,
-.332776,.304422,
-.309933,.327348,
-.283455,.345959,
-.254148,.359689,
-.222902,.368121,
-.190666,.371,
-.19,.371,
.19,.371,
.222246,.368237,
.253522,.359917,
.282878,.346292,
.309422,.327776,
.332348,.304933,
.350959,.278455,
.364689,.249148,
.373121,.217902,
.376,.185666,
.376,.185,
0.0*
%
%ADD29MACRO29*%
%ADD26C,1.1*%
%AMMACRO19*
4,1,44,.185,-.376,
-.185,-.376,
-.217246,-.373237,
-.248522,-.364917,
-.277878,-.351292,
-.304422,-.332776,
-.327348,-.309933,
-.345959,-.283455,
-.359689,-.254148,
-.368121,-.222902,
-.371,-.190666,
-.371,-.19,
-.371,.19,
-.368237,.222246,
-.359917,.253522,
-.346292,.282878,
-.327776,.309422,
-.304933,.332348,
-.278455,.350959,
-.249148,.364689,
-.217902,.373121,
-.185666,.376,
-.185,.376,
.185,.376,
.217246,.373237,
.248522,.364917,
.277878,.351292,
.304422,.332776,
.327348,.309933,
.345959,.283455,
.359689,.254148,
.368121,.222902,
.371,.190666,
.371,.19,
.371,-.19,
.368237,-.222246,
.359917,-.253522,
.346292,-.282878,
.327776,-.309422,
.304933,-.332348,
.278455,-.350959,
.249148,-.364689,
.217902,-.373121,
.185666,-.376,
.185,-.376,
0.0*
%
%ADD19MACRO19*%
%ADD31O,1.651X.3*%
%ADD23O,.3X1.651*%
%ADD11C,3.2*%
%AMMACRO57*
4,1,6,2.35,1.2,
2.35,2.35,
-2.35,2.35,
-2.35,-2.35,
-1.2,-2.35,
-1.2,1.2,
2.35,1.2,
0.0*
%
%ADD57MACRO57*%
%ADD12C,1.42*%
%AMMACRO56*
4,1,6,1.2,-2.35,
2.35,-2.35,
2.35,2.35,
-2.35,2.35,
-2.35,1.2,
1.2,1.2,
1.2,-2.35,
0.0*
%
%ADD56MACRO56*%
%ADD10C,3.401*%
%ADD13C,1.8*%
%ADD52R,2.4X2.4*%
%ADD24O,1.049X.551*%
%ADD80R,1.85X.45*%
%ADD66R,5.4X5.4*%
%ADD36C,3.95*%
%AMMACRO68*
4,1,41,.5,0.0,
.5,.075,
.498861,.088024,
.495477,.100652,
.489952,.1125,
.482453,.123209,
.473209,.132453,
.4625,.139952,
.450652,.145477,
.438024,.148861,
.425,.15,
-.425,.15,
-.438024,.148861,
-.450652,.145477,
-.4625,.139952,
-.473209,.132453,
-.482453,.123209,
-.489952,.1125,
-.495477,.100652,
-.498861,.088024,
-.5,.075,
-.5,-.075,
-.498861,-.088024,
-.495477,-.100652,
-.489952,-.1125,
-.482453,-.123209,
-.473209,-.132453,
-.4625,-.139952,
-.450652,-.145477,
-.438024,-.148861,
-.425,-.15,
.425,-.15,
.438024,-.148861,
.450652,-.145477,
.4625,-.139952,
.473209,-.132453,
.482453,-.123209,
.489952,-.1125,
.495477,-.100652,
.498861,-.088024,
.5,-.075,
.5,0.0,
0.0*
%
%ADD68MACRO68*%
%AMMACRO86*
4,1,22,.45,-.2,
.45,.2,
-.35,.2,
-.367365,.198481,
-.384202,.193969,
-.4,.186603,
-.414279,.176604,
-.426604,.164279,
-.436603,.15,
-.443969,.134202,
-.448481,.117365,
-.45,.1,
-.45,-.1,
-.448481,-.117365,
-.443969,-.134202,
-.436603,-.15,
-.426604,-.164279,
-.414279,-.176604,
-.4,-.186603,
-.384202,-.193969,
-.367365,-.198481,
-.35,-.2,
.45,-.2,
0.0*
%
%ADD86MACRO86*%
%AMMACRO84*
4,1,22,-.2,-.45,
.2,-.45,
.2,.35,
.198481,.367365,
.193969,.384202,
.186603,.4,
.176604,.414279,
.164279,.426604,
.15,.436603,
.134202,.443969,
.117365,.448481,
.1,.45,
-.1,.45,
-.117365,.448481,
-.134202,.443969,
-.15,.436603,
-.164279,.426604,
-.176604,.414279,
-.186603,.4,
-.193969,.384202,
-.198481,.367365,
-.2,.35,
-.2,-.45,
0.0*
%
%ADD84MACRO84*%
%ADD33C,1.199*%
%ADD25C,1.849*%
%AMMACRO71*
4,1,41,0.0,.725,
-.225,.725,
-.277094,.720442,
-.327606,.706908,
-.375,.684808,
-.417836,.654813,
-.454813,.617836,
-.484808,.575,
-.506908,.527606,
-.520442,.477094,
-.525,.425,
-.525,-.425,
-.520442,-.477094,
-.506908,-.527606,
-.484808,-.575,
-.454813,-.617836,
-.417836,-.654813,
-.375,-.684808,
-.327606,-.706908,
-.277094,-.720442,
-.225,-.725,
.225,-.725,
.277094,-.720442,
.327606,-.706908,
.375,-.684808,
.417836,-.654813,
.454813,-.617836,
.484808,-.575,
.506908,-.527606,
.520442,-.477094,
.525,-.425,
.525,.425,
.520442,.477094,
.506908,.527606,
.484808,.575,
.454813,.617836,
.417836,.654813,
.375,.684808,
.327606,.706908,
.277094,.720442,
.225,.725,
0.0,.725,
0.0*
%
%ADD71MACRO71*%
%AMMACRO20*
4,1,41,-.725,0.0,
-.725,-.225,
-.720442,-.277094,
-.706908,-.327606,
-.684808,-.375,
-.654813,-.417836,
-.617836,-.454813,
-.575,-.484808,
-.527606,-.506908,
-.477094,-.520442,
-.425,-.525,
.425,-.525,
.477094,-.520442,
.527606,-.506908,
.575,-.484808,
.617836,-.454813,
.654813,-.417836,
.684808,-.375,
.706908,-.327606,
.720442,-.277094,
.725,-.225,
.725,.225,
.720442,.277094,
.706908,.327606,
.684808,.375,
.654813,.417836,
.617836,.454813,
.575,.484808,
.527606,.506908,
.477094,.520442,
.425,.525,
-.425,.525,
-.477094,.520442,
-.527606,.506908,
-.575,.484808,
-.617836,.454813,
-.654813,.417836,
-.684808,.375,
-.706908,.327606,
-.720442,.277094,
-.725,.225,
-.725,0.0,
0.0*
%
%ADD20MACRO20*%
%AMMACRO88*
4,1,41,0.0,.775,
-.288,.775,
-.337916,.770545,
-.386301,.757491,
-.431683,.736232,
-.472684,.707416,
-.508059,.671918,
-.536732,.630817,
-.557833,.585361,
-.570719,.536931,
-.575,.488,
-.575,-.488,
-.570545,-.537916,
-.557491,-.586301,
-.536232,-.631683,
-.507416,-.672684,
-.471918,-.708059,
-.430817,-.736732,
-.385361,-.757833,
-.336931,-.770719,
-.288,-.775,
.288,-.775,
.337916,-.770545,
.386301,-.757491,
.431683,-.736232,
.472684,-.707416,
.508059,-.671918,
.536732,-.630817,
.557833,-.585361,
.570719,-.536931,
.575,-.488,
.575,.488,
.570545,.537916,
.557491,.586301,
.536232,.631683,
.507416,.672684,
.471918,.708059,
.430817,.736732,
.385361,.757833,
.336931,.770719,
.288,.775,
0.0,.775,
0.0*
%
%ADD88MACRO88*%
%AMMACRO72*
4,1,41,-.775,0.0,
-.775,-.288,
-.770545,-.337916,
-.757491,-.386301,
-.736232,-.431683,
-.707416,-.472684,
-.671918,-.508059,
-.630817,-.536732,
-.585361,-.557833,
-.536931,-.570719,
-.488,-.575,
.488,-.575,
.537916,-.570545,
.586301,-.557491,
.631683,-.536232,
.672684,-.507416,
.708059,-.471918,
.736732,-.430817,
.757833,-.385361,
.770719,-.336931,
.775,-.288,
.775,.288,
.770545,.337916,
.757491,.386301,
.736232,.431683,
.707416,.472684,
.671918,.508059,
.630817,.536732,
.585361,.557833,
.536931,.570719,
.488,.575,
-.488,.575,
-.537916,.570545,
-.586301,.557491,
-.631683,.536232,
-.672684,.507416,
-.708059,.471918,
-.736732,.430817,
-.757833,.385361,
-.770719,.336931,
-.775,.288,
-.775,0.0,
0.0*
%
%ADD72MACRO72*%
%AMMACRO75*
4,1,15,-.925,-.375,
-.925,.375,
.925,.375,
.925,-.375,
.458,-.375,
.377235,-.301926,
.285008,-.243988,
.184121,-.202944,
.07764,-.180043,
-.031201,-.17598,
-.139093,-.190879,
-.242759,-.224287,
-.339049,-.275188,
-.425037,-.342037,
-.458,-.375,
-.925,-.375,
0.0*
%
%ADD75MACRO75*%
%AMMACRO69*
4,1,41,0.0,.375,
-.05,.375,
-.067365,.373481,
-.084202,.368969,
-.1,.361603,
-.114279,.351604,
-.126604,.339279,
-.136603,.325,
-.143969,.309202,
-.148481,.292365,
-.15,.275,
-.15,-.275,
-.148481,-.292365,
-.143969,-.309202,
-.136603,-.325,
-.126604,-.339279,
-.114279,-.351604,
-.1,-.361603,
-.084202,-.368969,
-.067365,-.373481,
-.05,-.375,
.05,-.375,
.067365,-.373481,
.084202,-.368969,
.1,-.361603,
.114279,-.351604,
.126604,-.339279,
.136603,-.325,
.143969,-.309202,
.148481,-.292365,
.15,-.275,
.15,.275,
.148481,.292365,
.143969,.309202,
.136603,.325,
.126604,.339279,
.114279,.351604,
.1,.361603,
.084202,.368969,
.067365,.373481,
.05,.375,
0.0,.375,
0.0*
%
%ADD69MACRO69*%
%AMMACRO63*
4,1,45,.525,0.0,
.525,.187,
.521099,.23259,
.50934,.27681,
.490082,.318317,
.463908,.355849,
.431615,.388265,
.394183,.414582,
.35275,.433998,
.308575,.445925,
.263,.45,
.262,.45,
-.262,.45,
-.30759,.446099,
-.35181,.43434,
-.393317,.415082,
-.430849,.388908,
-.463265,.356615,
-.489582,.319183,
-.508998,.27775,
-.520925,.233575,
-.525,.188,
-.525,.187,
-.525,-.187,
-.521099,-.23259,
-.50934,-.27681,
-.490082,-.318317,
-.463908,-.355849,
-.431615,-.388265,
-.394183,-.414582,
-.35275,-.433998,
-.308575,-.445925,
-.263,-.45,
-.262,-.45,
.262,-.45,
.30759,-.446099,
.35181,-.43434,
.393317,-.415082,
.430849,-.388908,
.463265,-.356615,
.489582,-.319183,
.508998,-.27775,
.520925,-.233575,
.525,-.188,
.525,-.187,
.525,0.0,
0.0*
%
%ADD63MACRO63*%
%AMMACRO61*
4,1,45,0.0,.701,
-.312,.701,
-.361916,.696546,
-.410301,.683492,
-.455683,.662235,
-.496685,.63342,
-.53206,.597922,
-.560734,.556821,
-.581835,.511366,
-.594722,.462937,
-.599003,.413006,
-.599,.412,
-.599,-.412,
-.594893,-.461946,
-.582175,-.51042,
-.561233,-.555949,
-.532704,-.59715,
-.497453,-.632771,
-.456552,-.661729,
-.411244,-.683145,
-.362906,-.696368,
-.313006,-.700997,
-.312,-.701,
.312,-.701,
.361916,-.696546,
.410301,-.683492,
.455683,-.662235,
.496685,-.63342,
.53206,-.597922,
.560734,-.556821,
.581835,-.511366,
.594722,-.462937,
.599003,-.413006,
.599,-.412,
.599,.412,
.594893,.461946,
.582175,.51042,
.561233,.555949,
.532704,.59715,
.497453,.632771,
.456552,.661729,
.411244,.683145,
.362906,.696368,
.313006,.700997,
.312,.701,
0.0,.701,
0.0*
%
%ADD61MACRO61*%
%AMMACRO79*
4,1,45,0.0,.574,
-.274,.574,
-.321783,.57017,
-.368174,.5581,
-.411765,.538158,
-.451231,.510949,
-.485372,.477301,
-.513152,.438235,
-.533726,.394939,
-.546469,.348728,
-.550995,.301006,
-.551,.3,
-.551,-.3,
-.54665,-.347738,
-.534075,-.393995,
-.51366,-.437367,
-.486023,-.476534,
-.452005,-.510307,
-.412639,-.53766,
-.369122,-.557761,
-.322775,-.57,
-.275006,-.574005,
-.274,-.574,
.274,-.574,
.321783,-.57017,
.368174,-.5581,
.411765,-.538158,
.451231,-.510949,
.485372,-.477301,
.513152,-.438235,
.533726,-.394939,
.546469,-.348728,
.550995,-.301006,
.551,-.3,
.551,.3,
.54665,.347738,
.534075,.393995,
.51366,.437367,
.486023,.476534,
.452005,.510307,
.412639,.53766,
.369122,.557761,
.322775,.57,
.275006,.574005,
.274,.574,
0.0,.574,
0.0*
%
%ADD79MACRO79*%
%AMMACRO40*
4,1,44,0.0,-.75,
.112,-.75,
.140225,-.747618,
.167608,-.740371,
.193317,-.728479,
.21657,-.712304,
.236661,-.692336,
.252979,-.669183,
.265029,-.643548,
.272444,-.61621,
.275,-.588,
.275,.588,
.272444,.61621,
.265029,.643548,
.252979,.669183,
.236661,.692336,
.21657,.712304,
.193317,.728479,
.167608,.740371,
.140225,.747618,
.112,.75,
.112,.75,
-.112,.75,
-.140225,.747618,
-.167608,.740371,
-.193317,.728479,
-.21657,.712304,
-.236661,.692336,
-.252979,.669183,
-.265029,.643548,
-.272444,.61621,
-.275,.588,
-.275,.588,
-.275,-.588,
-.272444,-.61621,
-.265029,-.643548,
-.252979,-.669183,
-.236661,-.692336,
-.21657,-.712304,
-.193317,-.728479,
-.167608,-.740371,
-.140225,-.747618,
-.112,-.75,
-.112,-.75,
0.0,-.75,
0.0*
%
%ADD40MACRO40*%
%AMMACRO14*
4,1,45,-.574,0.0,
-.574,-.274,
-.57017,-.321783,
-.5581,-.368174,
-.538158,-.411765,
-.510949,-.451231,
-.477301,-.485372,
-.438235,-.513152,
-.394939,-.533726,
-.348728,-.546469,
-.301006,-.550995,
-.3,-.551,
.3,-.551,
.347738,-.54665,
.393995,-.534075,
.437367,-.51366,
.476534,-.486023,
.510307,-.452005,
.53766,-.412639,
.557761,-.369122,
.57,-.322775,
.574005,-.275006,
.574,-.274,
.574,.274,
.57017,.321783,
.5581,.368174,
.538158,.411765,
.510949,.451231,
.477301,.485372,
.438235,.513152,
.394939,.533726,
.348728,.546469,
.301006,.550995,
.3,.551,
-.3,.551,
-.347738,.54665,
-.393995,.534075,
-.437367,.51366,
-.476534,.486023,
-.510307,.452005,
-.53766,.412639,
-.557761,.369122,
-.57,.322775,
-.574005,.275006,
-.574,.274,
-.574,0.0,
0.0*
%
%ADD14MACRO14*%
%AMMACRO48*
4,1,41,-.375,0.0,
-.375,-.185,
-.372189,-.217125,
-.363843,-.248274,
-.350215,-.2775,
-.331718,-.303916,
-.308916,-.326718,
-.2825,-.345215,
-.253274,-.358843,
-.222125,-.367189,
-.19,-.37,
.19,-.37,
.222125,-.367189,
.253274,-.358843,
.2825,-.345215,
.308916,-.326718,
.331718,-.303916,
.350215,-.2775,
.363843,-.248274,
.372189,-.217125,
.375,-.185,
.375,.185,
.372189,.217125,
.363843,.248274,
.350215,.2775,
.331718,.303916,
.308916,.326718,
.2825,.345215,
.253274,.358843,
.222125,.367189,
.19,.37,
-.19,.37,
-.222125,.367189,
-.253274,.358843,
-.2825,.345215,
-.308916,.326718,
-.331718,.303916,
-.350215,.2775,
-.363843,.248274,
-.372189,.217125,
-.375,.185,
-.375,0.0,
0.0*
%
%ADD48MACRO48*%
%AMMACRO32*
4,1,41,0.0,.775,
-.356,.775,
-.411422,.770312,
-.465188,.756071,
-.515664,.73271,
-.561317,.700939,
-.600759,.661724,
-.632792,.616254,
-.656443,.565914,
-.670993,.51223,
-.676,.457,
-.676,-.457,
-.670965,-.512391,
-.656387,-.566067,
-.63271,-.616396,
-.600654,-.661849,
-.561191,-.701044,
-.515522,-.732792,
-.465034,-.756127,
-.411261,-.77034,
-.356,-.775,
.356,-.775,
.411422,-.770312,
.465188,-.756071,
.515664,-.73271,
.561317,-.700939,
.600759,-.661724,
.632792,-.616254,
.656443,-.565914,
.670993,-.51223,
.676,-.457,
.676,.457,
.670965,.512391,
.656387,.566067,
.63271,.616396,
.600654,.661849,
.561191,.701044,
.515522,.732792,
.465034,.756127,
.411261,.77034,
.356,.775,
0.0,.775,
0.0*
%
%ADD32MACRO32*%
%AMMACRO28*
4,1,41,0.0,.337,
-.11,.337,
-.147334,.333734,
-.183534,.324034,
-.2175,.308195,
-.248199,.2867,
-.2747,.260199,
-.296195,.2295,
-.312034,.195534,
-.321734,.159334,
-.325,.122,
-.325,-.122,
-.321734,-.159334,
-.312034,-.195534,
-.296195,-.2295,
-.2747,-.260199,
-.248199,-.2867,
-.2175,-.308195,
-.183534,-.324034,
-.147334,-.333734,
-.11,-.337,
.11,-.337,
.147334,-.333734,
.183534,-.324034,
.2175,-.308195,
.248199,-.2867,
.2747,-.260199,
.296195,-.2295,
.312034,-.195534,
.321734,-.159334,
.325,-.122,
.325,.122,
.321734,.159334,
.312034,.195534,
.296195,.2295,
.2747,.260199,
.248199,.2867,
.2175,.308195,
.183534,.324034,
.147334,.333734,
.11,.337,
0.0,.337,
0.0*
%
%ADD28MACRO28*%
%AMMACRO18*
4,1,45,.238,.238,
.161,.316,
.13213,.339938,
.099709,.358736,
.064516,.371619,
.02762,.378196,
-.009857,.378265,
-.046776,.371825,
-.082017,.359073,
-.114507,.340394,
-.143261,.316358,
-.144,.316,
-.316,.144,
-.33995,.115142,
-.358745,.082719,
-.371625,.047525,
-.378197,.010629,
-.378263,-.026848,
-.37182,-.063767,
-.359064,-.099006,
-.340383,-.131495,
-.316343,-.160246,
-.316,-.161,
-.161,-.316,
-.13213,-.339938,
-.099709,-.358736,
-.064516,-.371619,
-.02762,-.378196,
.009857,-.378265,
.046776,-.371825,
.082017,-.359073,
.114507,-.340394,
.143261,-.316358,
.144,-.316,
.316,-.144,
.33995,-.115142,
.358745,-.082719,
.371625,-.047525,
.378197,-.010629,
.378263,.026848,
.37182,.063767,
.359064,.099006,
.340383,.131495,
.316343,.160246,
.316,.161,
.238,.238,
0.0*
%
%ADD18MACRO18*%
%AMMACRO17*
4,1,45,-.238,-.238,
-.161,-.316,
-.13213,-.339938,
-.099709,-.358736,
-.064516,-.371619,
-.02762,-.378196,
.009857,-.378265,
.046776,-.371825,
.082017,-.359073,
.114507,-.340394,
.143261,-.316358,
.144,-.316,
.316,-.144,
.33995,-.115142,
.358745,-.082719,
.371625,-.047525,
.378197,-.010629,
.378263,.026848,
.37182,.063767,
.359064,.099006,
.340383,.131495,
.316343,.160246,
.316,.161,
.161,.316,
.13213,.339938,
.099709,.358736,
.064516,.371619,
.02762,.378196,
-.009857,.378265,
-.046776,.371825,
-.082017,.359073,
-.114507,.340394,
-.143261,.316358,
-.144,.316,
-.316,.144,
-.33995,.115142,
-.358745,.082719,
-.371625,.047525,
-.378197,.010629,
-.378263,-.026848,
-.37182,-.063767,
-.359064,-.099006,
-.340383,-.131495,
-.316343,-.160246,
-.316,-.161,
-.238,-.238,
0.0*
%
%ADD17MACRO17*%
%AMMACRO16*
4,1,41,-.337,0.0,
-.337,-.11,
-.333734,-.147334,
-.324034,-.183534,
-.308195,-.2175,
-.2867,-.248199,
-.260199,-.2747,
-.2295,-.296195,
-.195534,-.312034,
-.159334,-.321734,
-.122,-.325,
.122,-.325,
.159334,-.321734,
.195534,-.312034,
.2295,-.296195,
.260199,-.2747,
.2867,-.248199,
.308195,-.2175,
.324034,-.183534,
.333734,-.147334,
.337,-.11,
.337,.11,
.333734,.147334,
.324034,.183534,
.308195,.2175,
.2867,.248199,
.260199,.2747,
.2295,.296195,
.195534,.312034,
.159334,.321734,
.122,.325,
-.122,.325,
-.159334,.321734,
-.195534,.312034,
-.2295,.296195,
-.260199,.2747,
-.2867,.248199,
-.308195,.2175,
-.324034,.183534,
-.333734,.147334,
-.337,.11,
-.337,0.0,
0.0*
%
%ADD16MACRO16*%
%AMMACRO41*
4,1,41,-.425,0.0,
-.425,-.1,
-.423481,-.117365,
-.418969,-.134202,
-.411603,-.15,
-.401604,-.164279,
-.389279,-.176604,
-.375,-.186603,
-.359202,-.193969,
-.342365,-.198481,
-.325,-.2,
.325,-.2,
.342365,-.198481,
.359202,-.193969,
.375,-.186603,
.389279,-.176604,
.401604,-.164279,
.411603,-.15,
.418969,-.134202,
.423481,-.117365,
.425,-.1,
.425,.1,
.423481,.117365,
.418969,.134202,
.411603,.15,
.401604,.164279,
.389279,.176604,
.375,.186603,
.359202,.193969,
.342365,.198481,
.325,.2,
-.325,.2,
-.342365,.198481,
-.359202,.193969,
-.375,.186603,
-.389279,.176604,
-.401604,.164279,
-.411603,.15,
-.418969,.134202,
-.423481,.117365,
-.425,.1,
-.425,0.0,
0.0*
%
%ADD41MACRO41*%
%AMMACRO22*
4,1,41,-.45,0.0,
-.45,-.244,
-.446797,-.279833,
-.43742,-.314566,
-.422154,-.347143,
-.401463,-.376574,
-.375976,-.401965,
-.346467,-.422544,
-.313833,-.437687,
-.279065,-.446932,
-.244,-.45,
.244,-.45,
.279833,-.446797,
.314566,-.43742,
.347143,-.422154,
.376574,-.401463,
.401965,-.375976,
.422544,-.346467,
.437687,-.313833,
.446932,-.279065,
.45,-.244,
.45,.244,
.446797,.279833,
.43742,.314566,
.422154,.347143,
.401463,.376574,
.375976,.401965,
.346467,.422544,
.313833,.437687,
.279065,.446932,
.244,.45,
-.244,.45,
-.279833,.446797,
-.314566,.43742,
-.347143,.422154,
-.376574,.401463,
-.401965,.375976,
-.422544,.346467,
-.437687,.313833,
-.446932,.279065,
-.45,.244,
-.45,0.0,
0.0*
%
%ADD22MACRO22*%
%AMMACRO55*
4,1,41,-1.975,0.0,
-1.975,-.288,
-1.970545,-.337916,
-1.957491,-.386301,
-1.936232,-.431683,
-1.907416,-.472684,
-1.871918,-.508059,
-1.830817,-.536732,
-1.785361,-.557833,
-1.736931,-.570719,
-1.688,-.575,
1.688,-.575,
1.737916,-.570545,
1.786301,-.557491,
1.831683,-.536232,
1.872684,-.507416,
1.908059,-.471918,
1.936732,-.430817,
1.957833,-.385361,
1.970719,-.336931,
1.975,-.288,
1.975,.288,
1.970545,.337916,
1.957491,.386301,
1.936232,.431683,
1.907416,.472684,
1.871918,.508059,
1.830817,.536732,
1.785361,.557833,
1.736931,.570719,
1.688,.575,
-1.688,.575,
-1.737916,.570545,
-1.786301,.557491,
-1.831683,.536232,
-1.872684,.507416,
-1.908059,.471918,
-1.936732,.430817,
-1.957833,.385361,
-1.970719,.336931,
-1.975,.288,
-1.975,0.0,
0.0*
%
%ADD55MACRO55*%
%AMMACRO34*
4,1,44,-.185,.376,
.185,.376,
.217246,.373237,
.248522,.364917,
.277878,.351292,
.304422,.332776,
.327348,.309933,
.345959,.283455,
.359689,.254148,
.368121,.222902,
.371,.190666,
.371,.19,
.371,-.19,
.368237,-.222246,
.359917,-.253522,
.346292,-.282878,
.327776,-.309422,
.304933,-.332348,
.278455,-.350959,
.249148,-.364689,
.217902,-.373121,
.185666,-.376,
.185,-.376,
-.185,-.376,
-.217246,-.373237,
-.248522,-.364917,
-.277878,-.351292,
-.304422,-.332776,
-.327348,-.309933,
-.345959,-.283455,
-.359689,-.254148,
-.368121,-.222902,
-.371,-.190666,
-.371,-.19,
-.371,.19,
-.368237,.222246,
-.359917,.253522,
-.346292,.282878,
-.327776,.309422,
-.304933,.332348,
-.278455,.350959,
-.249148,.364689,
-.217902,.373121,
-.185666,.376,
-.185,.376,
0.0*
%
%ADD34MACRO34*%
%AMMACRO30*
4,1,44,-.376,-.185,
-.376,.185,
-.373237,.217246,
-.364917,.248522,
-.351292,.277878,
-.332776,.304422,
-.309933,.327348,
-.283455,.345959,
-.254148,.359689,
-.222902,.368121,
-.190666,.371,
-.19,.371,
.19,.371,
.222246,.368237,
.253522,.359917,
.282878,.346292,
.309422,.327776,
.332348,.304933,
.350959,.278455,
.364689,.249148,
.373121,.217902,
.376,.185666,
.376,.185,
.376,-.185,
.373237,-.217246,
.364917,-.248522,
.351292,-.277878,
.332776,-.304422,
.309933,-.327348,
.283455,-.345959,
.254148,-.359689,
.222902,-.368121,
.190666,-.371,
.19,-.371,
-.19,-.371,
-.222246,-.368237,
-.253522,-.359917,
-.282878,-.346292,
-.309422,-.327776,
-.332348,-.304933,
-.350959,-.278455,
-.364689,-.249148,
-.373121,-.217902,
-.376,-.185666,
-.376,-.185,
0.0*
%
%ADD30MACRO30*%
%AMMACRO46*
4,1,6,-1.2,2.35,
-2.35,2.35,
-2.35,-2.35,
2.35,-2.35,
2.35,-1.2,
-1.2,-1.2,
-1.2,2.35,
0.0*
%
%ADD46MACRO46*%
%AMMACRO45*
4,1,6,-2.35,-1.2,
-2.35,-2.35,
2.35,-2.35,
2.35,2.35,
1.2,2.35,
1.2,-1.2,
-2.35,-1.2,
0.0*
%
%ADD45MACRO45*%
%ADD37O,1.55X2.25*%
%ADD42R,1.8X2.65*%
%AMMACRO85*
4,1,22,-.45,.2,
-.45,-.2,
.35,-.2,
.367365,-.198481,
.384202,-.193969,
.4,-.186603,
.414279,-.176604,
.426604,-.164279,
.436603,-.15,
.443969,-.134202,
.448481,-.117365,
.45,-.1,
.45,.1,
.448481,.117365,
.443969,.134202,
.436603,.15,
.426604,.164279,
.414279,.176604,
.4,.186603,
.384202,.193969,
.367365,.198481,
.35,.2,
-.45,.2,
0.0*
%
%ADD85MACRO85*%
%AMMACRO83*
4,1,22,.2,.45,
-.2,.45,
-.2,-.35,
-.198481,-.367365,
-.193969,-.384202,
-.186603,-.4,
-.176604,-.414279,
-.164279,-.426604,
-.15,-.436603,
-.134202,-.443969,
-.117365,-.448481,
-.1,-.45,
.1,-.45,
.117365,-.448481,
.134202,-.443969,
.15,-.436603,
.164279,-.426604,
.176604,-.414279,
.186603,-.4,
.193969,-.384202,
.198481,-.367365,
.2,-.35,
.2,.45,
0.0*
%
%ADD83MACRO83*%
%AMMACRO73*
4,1,41,3.25,0.0,
3.25,.488,
3.241368,.58567,
3.215906,.680356,
3.174389,.769183,
3.118079,.849451,
3.048685,.918721,
2.968317,.974889,
2.879416,1.016248,
2.784685,1.041541,
2.688,1.05,
-2.688,1.05,
-2.78567,1.041368,
-2.880356,1.015906,
-2.969183,.974389,
-3.049451,.918079,
-3.118721,.848685,
-3.174889,.768317,
-3.216248,.679416,
-3.241541,.584685,
-3.25,.488,
-3.25,-.488,
-3.241368,-.58567,
-3.215906,-.680356,
-3.174389,-.769183,
-3.118079,-.849451,
-3.048685,-.918721,
-2.968317,-.974889,
-2.879416,-1.016248,
-2.784685,-1.041541,
-2.688,-1.05,
2.688,-1.05,
2.78567,-1.041368,
2.880356,-1.015906,
2.969183,-.974389,
3.049451,-.918079,
3.118721,-.848685,
3.174889,-.768317,
3.216248,-.679416,
3.241541,-.584685,
3.25,-.488,
3.25,0.0,
0.0*
%
%ADD73MACRO73*%
%AMMACRO62*
4,1,45,0.0,.525,
-.187,.525,
-.23259,.521099,
-.27681,.50934,
-.318317,.490082,
-.355849,.463908,
-.388265,.431615,
-.414582,.394183,
-.433998,.35275,
-.445925,.308575,
-.45,.263,
-.45,.262,
-.45,-.262,
-.446099,-.30759,
-.43434,-.35181,
-.415082,-.393317,
-.388908,-.430849,
-.356615,-.463265,
-.319183,-.489582,
-.27775,-.508998,
-.233575,-.520925,
-.188,-.525,
-.187,-.525,
.187,-.525,
.23259,-.521099,
.27681,-.50934,
.318317,-.490082,
.355849,-.463908,
.388265,-.431615,
.414582,-.394183,
.433998,-.35275,
.445925,-.308575,
.45,-.263,
.45,-.262,
.45,.262,
.446099,.30759,
.43434,.35181,
.415082,.393317,
.388908,.430849,
.356615,.463265,
.319183,.489582,
.27775,.508998,
.233575,.520925,
.188,.525,
.187,.525,
0.0,.525,
0.0*
%
%ADD62MACRO62*%
%AMMACRO87*
4,1,41,.725,0.0,
.725,.225,
.720442,.277094,
.706908,.327606,
.684808,.375,
.654813,.417836,
.617836,.454813,
.575,.484808,
.527606,.506908,
.477094,.520442,
.425,.525,
-.425,.525,
-.477094,.520442,
-.527606,.506908,
-.575,.484808,
-.617836,.454813,
-.654813,.417836,
-.684808,.375,
-.706908,.327606,
-.720442,.277094,
-.725,.225,
-.725,-.225,
-.720442,-.277094,
-.706908,-.327606,
-.684808,-.375,
-.654813,-.417836,
-.617836,-.454813,
-.575,-.484808,
-.527606,-.506908,
-.477094,-.520442,
-.425,-.525,
.425,-.525,
.477094,-.520442,
.527606,-.506908,
.575,-.484808,
.617836,-.454813,
.654813,-.417836,
.684808,-.375,
.706908,-.327606,
.720442,-.277094,
.725,-.225,
.725,0.0,
0.0*
%
%ADD87MACRO87*%
%AMMACRO39*
4,1,42,0.0,-1.1,
.362,-1.1,
.433637,-1.09382,
.503113,-1.075294,
.568317,-1.044985,
.627267,-1.003815,
.678172,-.953033,
.719485,-.894183,
.749952,-.829053,
.768646,-.759622,
.775,-.688,
.775,.688,
.768646,.759622,
.749952,.829053,
.719485,.894183,
.678172,.953033,
.627267,1.003815,
.568317,1.044985,
.503113,1.075294,
.433637,1.09382,
.362,1.1,
-.362,1.1,
-.433637,1.09382,
-.503113,1.075294,
-.568317,1.044985,
-.627267,1.003815,
-.678172,.953033,
-.719485,.894183,
-.749952,.829053,
-.768646,.759622,
-.775,.688,
-.775,.688,
-.775,-.688,
-.768646,-.759622,
-.749952,-.829053,
-.719485,-.894183,
-.678172,-.953033,
-.627267,-1.003815,
-.568317,-1.044985,
-.503113,-1.075294,
-.433637,-1.09382,
-.362,-1.1,
0.0,-1.1,
0.0*
%
%ADD39MACRO39*%
%AMMACRO38*
4,1,41,0.0,-1.025,
.35,-1.025,
.4238,-1.018543,
.495359,-.999369,
.5625,-.968061,
.623185,-.925569,
.675569,-.873185,
.718061,-.8125,
.749369,-.745359,
.768543,-.6738,
.775,-.6,
.775,.6,
.768543,.6738,
.749369,.745359,
.718061,.8125,
.675569,.873185,
.623185,.925569,
.5625,.968061,
.495359,.999369,
.4238,1.018543,
.35,1.025,
-.35,1.025,
-.4238,1.018543,
-.495359,.999369,
-.5625,.968061,
-.623185,.925569,
-.675569,.873185,
-.718061,.8125,
-.749369,.745359,
-.768543,.6738,
-.775,.6,
-.775,-.6,
-.768543,-.6738,
-.749369,-.745359,
-.718061,-.8125,
-.675569,-.873185,
-.623185,-.925569,
-.5625,-.968061,
-.495359,-.999369,
-.4238,-1.018543,
-.35,-1.025,
0.0,-1.025,
0.0*
%
%ADD38MACRO38*%
%AMMACRO21*
4,1,41,0.0,-.775,
.288,-.775,
.337916,-.770545,
.386301,-.757491,
.431683,-.736232,
.472684,-.707416,
.508059,-.671918,
.536732,-.630817,
.557833,-.585361,
.570719,-.536931,
.575,-.488,
.575,.488,
.570545,.537916,
.557491,.586301,
.536232,.631683,
.507416,.672684,
.471918,.708059,
.430817,.736732,
.385361,.757833,
.336931,.770719,
.288,.775,
-.288,.775,
-.337916,.770545,
-.386301,.757491,
-.431683,.736232,
-.472684,.707416,
-.508059,.671918,
-.536732,.630817,
-.557833,.585361,
-.570719,.536931,
-.575,.488,
-.575,-.488,
-.570545,-.537916,
-.557491,-.586301,
-.536232,-.631683,
-.507416,-.672684,
-.471918,-.708059,
-.430817,-.736732,
-.385361,-.757833,
-.336931,-.770719,
-.288,-.775,
0.0,-.775,
0.0*
%
%ADD21MACRO21*%
%AMMACRO81*
4,1,41,0.0,-.275,
.075,-.275,
.096706,-.273101,
.117753,-.267462,
.1375,-.258253,
.155348,-.245756,
.170756,-.230348,
.183253,-.2125,
.192462,-.192753,
.198101,-.171706,
.2,-.15,
.2,.15,
.198101,.171706,
.192462,.192753,
.183253,.2125,
.170756,.230348,
.155348,.245756,
.1375,.258253,
.117753,.267462,
.096706,.273101,
.075,.275,
-.075,.275,
-.096706,.273101,
-.117753,.267462,
-.1375,.258253,
-.155348,.245756,
-.170756,.230348,
-.183253,.2125,
-.192462,.192753,
-.198101,.171706,
-.2,.15,
-.2,-.15,
-.198101,-.171706,
-.192462,-.192753,
-.183253,-.2125,
-.170756,-.230348,
-.155348,-.245756,
-.1375,-.258253,
-.117753,-.267462,
-.096706,-.273101,
-.075,-.275,
0.0,-.275,
0.0*
%
%ADD81MACRO81*%
%AMMACRO76*
4,1,15,.925,.375,
.925,-.375,
-.925,-.375,
-.925,.375,
-.458,.375,
-.377235,.301926,
-.285008,.243988,
-.184121,.202944,
-.07764,.180043,
.031201,.17598,
.139093,.190879,
.242759,.224287,
.339049,.275188,
.425037,.342037,
.458,.375,
.925,.375,
0.0*
%
%ADD76MACRO76*%
%AMMACRO70*
4,1,41,.375,0.0,
.375,.05,
.373481,.067365,
.368969,.084202,
.361603,.1,
.351604,.114279,
.339279,.126604,
.325,.136603,
.309202,.143969,
.292365,.148481,
.275,.15,
-.275,.15,
-.292365,.148481,
-.309202,.143969,
-.325,.136603,
-.339279,.126604,
-.351604,.114279,
-.361603,.1,
-.368969,.084202,
-.373481,.067365,
-.375,.05,
-.375,-.05,
-.373481,-.067365,
-.368969,-.084202,
-.361603,-.1,
-.351604,-.114279,
-.339279,-.126604,
-.325,-.136603,
-.309202,-.143969,
-.292365,-.148481,
-.275,-.15,
.275,-.15,
.292365,-.148481,
.309202,-.143969,
.325,-.136603,
.339279,-.126604,
.351604,-.114279,
.361603,-.1,
.368969,-.084202,
.373481,-.067365,
.375,-.05,
.375,0.0,
0.0*
%
%ADD70MACRO70*%
%AMMACRO59*
4,1,44,.749,.274,
.749,-.274,
.74517,-.321783,
.7331,-.368174,
.713158,-.411765,
.68595,-.451231,
.652301,-.485372,
.613236,-.513152,
.56994,-.533726,
.523729,-.546469,
.476007,-.550995,
.475,-.551,
-.475,-.551,
-.522738,-.54665,
-.568995,-.534076,
-.612366,-.51366,
-.651534,-.486024,
-.685307,-.452006,
-.712659,-.41264,
-.732761,-.369122,
-.745,-.322775,
-.749005,-.275007,
-.749,-.274,
-.749,.274,
-.74517,.321783,
-.7331,.368174,
-.713158,.411765,
-.68595,.451231,
-.652301,.485372,
-.613236,.513152,
-.56994,.533726,
-.523729,.546469,
-.476007,.550995,
-.475,.551,
.475,.551,
.522738,.54665,
.568995,.534076,
.612366,.51366,
.651534,.486024,
.685307,.452006,
.712659,.41264,
.732761,.369122,
.745,.322775,
.749005,.275007,
.749,.274,
0.0*
%
%ADD59MACRO59*%
%AMMACRO51*
4,1,45,.574,0.0,
.574,.274,
.57017,.321783,
.5581,.368174,
.538158,.411765,
.510949,.451231,
.477301,.485372,
.438235,.513152,
.394939,.533726,
.348728,.546469,
.301006,.550995,
.3,.551,
-.3,.551,
-.347738,.54665,
-.393995,.534075,
-.437367,.51366,
-.476534,.486023,
-.510307,.452005,
-.53766,.412639,
-.557761,.369122,
-.57,.322775,
-.574005,.275006,
-.574,.274,
-.574,-.274,
-.57017,-.321783,
-.5581,-.368174,
-.538158,-.411765,
-.510949,-.451231,
-.477301,-.485372,
-.438235,-.513152,
-.394939,-.533726,
-.348728,-.546469,
-.301006,-.550995,
-.3,-.551,
.3,-.551,
.347738,-.54665,
.393995,-.534075,
.437367,-.51366,
.476534,-.486023,
.510307,-.452005,
.53766,-.412639,
.557761,-.369122,
.57,-.322775,
.574005,-.275006,
.574,-.274,
.574,0.0,
0.0*
%
%ADD51MACRO51*%
%AMMACRO67*
4,1,45,.275,0.0,
.275,.088,
.273584,.103187,
.269552,.117896,
.263028,.131683,
.254208,.144127,
.243361,.15485,
.230818,.163527,
.216958,.169894,
.202203,.173757,
.187001,.175,
.187,.175,
-.187,.175,
-.202202,.173758,
-.216957,.169894,
-.230817,.163528,
-.243361,.154851,
-.254207,.144127,
-.263027,.131684,
-.269552,.117897,
-.273584,.103187,
-.275,.088001,
-.275,.088,
-.275,-.088,
-.273584,-.103187,
-.269552,-.117896,
-.263028,-.131683,
-.254208,-.144127,
-.243361,-.15485,
-.230818,-.163527,
-.216958,-.169894,
-.202203,-.173757,
-.187001,-.175,
-.187,-.175,
.187,-.175,
.202202,-.173758,
.216957,-.169894,
.230817,-.163528,
.243361,-.154851,
.254207,-.144127,
.263027,-.131684,
.269552,-.117897,
.273584,-.103187,
.275,-.088001,
.275,-.088,
.275,0.0,
0.0*
%
%ADD67MACRO67*%
%AMMACRO47*
4,1,45,0.0,-.574,
.274,-.574,
.321783,-.57017,
.368174,-.5581,
.411765,-.538158,
.451231,-.510949,
.485372,-.477301,
.513152,-.438235,
.533726,-.394939,
.546469,-.348728,
.550995,-.301006,
.551,-.3,
.551,.3,
.54665,.347738,
.534075,.393995,
.51366,.437367,
.486023,.476534,
.452005,.510307,
.412639,.53766,
.369122,.557761,
.322775,.57,
.275006,.574005,
.274,.574,
-.274,.574,
-.321783,.57017,
-.368174,.5581,
-.411765,.538158,
-.451231,.510949,
-.485372,.477301,
-.513152,.438235,
-.533726,.394939,
-.546469,.348728,
-.550995,.301006,
-.551,.3,
-.551,-.3,
-.54665,-.347738,
-.534075,-.393995,
-.51366,-.437367,
-.486023,-.476534,
-.452005,-.510307,
-.412639,-.53766,
-.369122,-.557761,
-.322775,-.57,
-.275006,-.574005,
-.274,-.574,
0.0,-.574,
0.0*
%
%ADD47MACRO47*%
%AMMACRO77*
4,1,41,.325,0.0,
.325,.1,
.322341,.130388,
.314446,.159854,
.301554,.1875,
.284058,.212488,
.262488,.234058,
.2375,.251554,
.209854,.264446,
.180388,.272341,
.15,.275,
-.15,.275,
-.180388,.272341,
-.209854,.264446,
-.2375,.251554,
-.262488,.234058,
-.284058,.212488,
-.301554,.1875,
-.314446,.159854,
-.322341,.130388,
-.325,.1,
-.325,-.1,
-.322341,-.130388,
-.314446,-.159854,
-.301554,-.1875,
-.284058,-.212488,
-.262488,-.234058,
-.2375,-.251554,
-.209854,-.264446,
-.180388,-.272341,
-.15,-.275,
.15,-.275,
.180388,-.272341,
.209854,-.264446,
.2375,-.251554,
.262488,-.234058,
.284058,-.212488,
.301554,-.1875,
.314446,-.159854,
.322341,-.130388,
.325,-.1,
.325,0.0,
0.0*
%
%ADD77MACRO77*%
%AMMACRO74*
4,1,41,2.825,0.0,
2.825,.325,
2.818923,.394459,
2.800877,.461808,
2.77141,.525,
2.731418,.582115,
2.682115,.631418,
2.625,.67141,
2.561808,.700877,
2.494459,.718923,
2.425,.725,
-2.425,.725,
-2.494459,.718923,
-2.561808,.700877,
-2.625,.67141,
-2.682115,.631418,
-2.731418,.582115,
-2.77141,.525,
-2.800877,.461808,
-2.818923,.394459,
-2.825,.325,
-2.825,-.325,
-2.818923,-.394459,
-2.800877,-.461808,
-2.77141,-.525,
-2.731418,-.582115,
-2.682115,-.631418,
-2.625,-.67141,
-2.561808,-.700877,
-2.494459,-.718923,
-2.425,-.725,
2.425,-.725,
2.494459,-.718923,
2.561808,-.700877,
2.625,-.67141,
2.682115,-.631418,
2.731418,-.582115,
2.77141,-.525,
2.800877,-.461808,
2.818923,-.394459,
2.825,-.325,
2.825,0.0,
0.0*
%
%ADD74MACRO74*%
%ADD89C,.099*%
G75*
%LPD*%
G75*
G36*
G01X20100000Y25510000D02*
X20050000Y25730000D01*
X20050100Y26010000D01*
X20950000D01*
Y25510000D01*
X20100000D01*
G37*
G54D10*
X20330000Y17940000D03*
X22165000Y19725000D03*
X23665000D03*
X25550000Y17910000D03*
G54D20*
X20400000Y24872500D03*
Y25292500D03*
G54D11*
X20330000Y17941000D03*
X20280000Y29260000D03*
X25550000Y17910000D03*
X25560000Y29260000D03*
G54D21*
X20220000Y24745000D03*
Y25420000D03*
G54D30*
X20700000Y26250000D03*
X20790000D03*
G54D12*
X20200000Y20520000D03*
X20550000Y29380000D03*
X24485000Y20965000D03*
G54D22*
X20100000Y26519900D03*
X20220000D03*
X20100000Y26670000D03*
X20220000D03*
G54D40*
X21270000Y29000000D03*
X21205000D03*
X21140000D03*
X21075000D03*
X21010000D03*
G54D13*
X20640000Y21396000D03*
Y21142000D03*
X20892300Y22160000D03*
Y22414000D03*
Y22668000D03*
Y22922000D03*
Y23176000D03*
X20638300Y22160000D03*
Y22414000D03*
Y22668000D03*
Y22922000D03*
Y23176000D03*
X20640000Y21650000D03*
X20892300Y23430000D03*
Y23684000D03*
Y23938000D03*
Y24192000D03*
Y24446000D03*
X20638300Y23430000D03*
Y23684000D03*
Y23938000D03*
Y24192000D03*
Y24446000D03*
X21146300Y25462000D03*
X21400300D03*
X21146300Y25716000D03*
X21400300D03*
X21969000Y23654000D03*
X21715000D03*
X21969000Y23400000D03*
X21715000D03*
X21654300Y25462000D03*
X21908300D03*
X22162300D03*
X22416300D03*
X22670300D03*
X22924300D03*
X23178300D03*
X21654300Y25716000D03*
X21908300D03*
X22162300D03*
X22416300D03*
X22670300D03*
X22924300D03*
X23178300D03*
X23432300Y25462000D03*
X23686300D03*
X23432300Y25716000D03*
X23686300D03*
X25210000Y21396000D03*
Y21142000D03*
X25212300Y22160000D03*
Y22414000D03*
Y22668000D03*
Y22922000D03*
Y23176000D03*
X24958300Y22160000D03*
Y22414000D03*
Y22668000D03*
Y22922000D03*
Y23176000D03*
X25210000Y21650000D03*
X25212300Y23430000D03*
Y23684000D03*
Y23938000D03*
Y24192000D03*
Y24446000D03*
X24958300Y23430000D03*
Y23684000D03*
Y23938000D03*
Y24192000D03*
Y24446000D03*
X24990000Y25462000D03*
Y25716000D03*
Y25970000D03*
G54D31*
X20379900Y26540100D03*
Y26580000D03*
Y26620100D03*
Y26660000D03*
Y26699900D03*
Y26740000D03*
Y26779900D03*
Y26820000D03*
Y26859900D03*
Y26900000D03*
Y26939900D03*
Y26980000D03*
Y27019900D03*
Y27060000D03*
Y27099900D03*
Y27140100D03*
Y27179900D03*
Y27220100D03*
Y27260000D03*
Y27300100D03*
Y27340000D03*
Y27380100D03*
Y27420000D03*
Y27460100D03*
Y27500000D03*
Y27540100D03*
Y27580000D03*
Y27620100D03*
Y27660000D03*
Y27699900D03*
Y27740000D03*
Y27779900D03*
X21919900D03*
Y27740000D03*
Y27699900D03*
Y27660000D03*
Y27620100D03*
Y27580000D03*
Y27540100D03*
Y27500000D03*
Y27460100D03*
Y27420000D03*
Y27380100D03*
Y27340000D03*
Y27300100D03*
Y27260000D03*
Y27220100D03*
Y27179900D03*
Y27140100D03*
Y27099900D03*
Y27060000D03*
Y27019900D03*
Y26980000D03*
Y26939900D03*
Y26900000D03*
Y26859900D03*
Y26820000D03*
Y26779900D03*
Y26740000D03*
Y26699900D03*
Y26660000D03*
Y26620100D03*
Y26580000D03*
Y26540100D03*
G54D41*
X21470000Y28415000D03*
Y28480000D03*
Y28545000D03*
Y28610000D03*
X21170000Y28415000D03*
Y28480000D03*
Y28545000D03*
Y28610000D03*
G54D32*
X20730100Y28150000D03*
X20900000D03*
X20730100Y28370000D03*
X20900000D03*
G54D14*
X21570000Y21810000D03*
Y21970000D03*
G54D23*
X21530000Y26390000D03*
X21490100D03*
X21450000D03*
X21410100D03*
X21370000D03*
X21330100D03*
X21290000D03*
X21250100D03*
X21210000D03*
X21170100D03*
X21130000D03*
X21090100D03*
X21049900D03*
X21010100D03*
X20969900D03*
X20930000D03*
X20889900D03*
X20850000D03*
X20809900D03*
X20770000D03*
X20729900D03*
X20690000D03*
X20649900D03*
X20610000D03*
X20569900D03*
X20530000D03*
Y27930000D03*
X20569900D03*
X20610000D03*
X20649900D03*
X20690000D03*
X20729900D03*
X20770000D03*
X20809900D03*
X20850000D03*
X20889900D03*
X20930000D03*
X20969900D03*
X21010100D03*
X21049900D03*
X21090100D03*
X21130000D03*
X21170100D03*
X21210000D03*
X21250100D03*
X21290000D03*
X21330100D03*
X21370000D03*
X21410100D03*
X21450000D03*
X21490100D03*
X21530000D03*
X21770000Y26390000D03*
X21729900D03*
X21690000D03*
X21649900D03*
X21610000D03*
X21569900D03*
Y27930000D03*
X21610000D03*
X21649900D03*
X21690000D03*
X21729900D03*
X21770000D03*
G54D50*
X21710000Y22750100D03*
Y22600000D03*
X21970000Y22750100D03*
Y22600000D03*
G54D51*
X23015000Y22970000D03*
Y22810000D03*
G54D42*
X21320000Y28512500D03*
G54D33*
X20273500Y28093000D03*
X20375000Y28855000D03*
X20172000D03*
G54D24*
X21210000Y26100000D03*
Y26165000D03*
Y26230000D03*
X21430000D03*
Y26100000D03*
G54D15*
X21270000Y23015000D03*
X21310000Y21970000D03*
X21275000Y23300000D03*
X20437600Y26160000D03*
Y26250000D03*
X20697600Y26160000D03*
X20990000Y26250000D03*
X20370000Y28070000D03*
X21427600Y28090000D03*
X20367600Y28150000D03*
X20137600Y26860000D03*
Y26950000D03*
Y27040000D03*
X21427600Y28190000D03*
X21170000Y28290000D03*
X21220000Y28730000D03*
X20790000Y28500000D03*
X23042600Y20350000D03*
X23080000Y21305000D03*
X22967600Y21195000D03*
X22757600D03*
X22597600Y21895000D03*
X22727600Y22520000D03*
Y22630000D03*
X22970000Y22520000D03*
X22597600Y21695000D03*
X22487600Y21995000D03*
X22922600Y22630000D03*
X22972600Y23150000D03*
X23120000Y22630000D03*
X22717600Y23420000D03*
X22667600Y23750000D03*
Y23630000D03*
X22070000Y25890000D03*
X21920000Y28090000D03*
X22097600Y27480000D03*
Y27840000D03*
X22110000Y27570000D03*
Y27660000D03*
X22097600Y27750000D03*
X21620000Y28090000D03*
Y28190000D03*
X21747600Y29030000D03*
X23772600Y20350000D03*
X23947600Y23180000D03*
X24037600Y22780000D03*
X23730000Y24000000D03*
X23720000Y23520000D03*
X24240000Y25650000D03*
X23400000Y25920000D03*
X25450000Y24660000D03*
G54D60*
X22285000Y24700000D03*
X22425000D03*
G54D70*
X22649500Y26070000D03*
Y26110000D03*
Y26150000D03*
Y26190000D03*
X22812500D03*
Y26150000D03*
Y26110000D03*
X21849500Y26070000D03*
Y26110000D03*
Y26150000D03*
Y26190000D03*
X22012500D03*
Y26150000D03*
Y26110000D03*
X22249500Y26070000D03*
Y26110000D03*
Y26150000D03*
Y26190000D03*
X22412500D03*
Y26150000D03*
Y26110000D03*
G54D34*
X20230000Y27240000D03*
Y27150000D03*
G54D16*
X21362400Y23015000D03*
X21402400Y21970000D03*
X21367400Y23300000D03*
X20530000Y26160000D03*
Y26250000D03*
X20790000Y26160000D03*
X21082400Y26250000D03*
X20462400Y28070000D03*
X21520000Y28090000D03*
X20460000Y28150000D03*
X20230000Y26860000D03*
Y26950000D03*
Y27040000D03*
X21520000Y28190000D03*
X21262400Y28290000D03*
X21312400Y28730000D03*
X20882400Y28500000D03*
X23135000Y20350000D03*
X23172400Y21305000D03*
X23060000Y21195000D03*
X22850000D03*
X22690000Y21895000D03*
X22820000Y22520000D03*
Y22630000D03*
X23062400Y22520000D03*
X22690000Y21695000D03*
X22580000Y21995000D03*
X23015000Y22630000D03*
X23065000Y23150000D03*
X22810000Y23420000D03*
X22760000Y23750000D03*
Y23630000D03*
X22162400Y25890000D03*
X22012400Y28090000D03*
X22190000Y27480000D03*
Y27840000D03*
X22202400Y27570000D03*
Y27660000D03*
X22190000Y27750000D03*
X21712400Y28090000D03*
Y28190000D03*
X21840000Y29030000D03*
X23865000Y20350000D03*
X24040000Y23180000D03*
X24130000Y22780000D03*
X23212400Y22630000D03*
X23822400Y24000000D03*
X23812400Y23520000D03*
X24332400Y25650000D03*
X23492400Y25920000D03*
X25542400Y24660000D03*
G54D61*
X22327000Y23370000D03*
Y23593000D03*
X22500000D03*
Y23370000D03*
G54D25*
X20300000Y25760000D03*
G54D52*
X23007500Y21840000D03*
G54D43*
X22747500Y20567500D03*
G54D62*
X23000000Y24630000D03*
X23140000D03*
G54D17*
X20440000Y21870000D03*
X20380000Y21930000D03*
X23245000Y20855000D03*
G54D71*
X21832500Y29160000D03*
X22252500D03*
G54D80*
X24095000Y22980000D03*
G54D26*
X20280000Y24967100D03*
Y25197100D03*
X21927100Y29280000D03*
X22157100D03*
X25570000Y25202900D03*
Y24972900D03*
G54D44*
X21932500Y21382500D03*
X23562500D03*
G54D53*
X22822500Y21742500D03*
Y21807500D03*
Y21872500D03*
Y21937500D03*
X23192500D03*
Y21872500D03*
Y21807500D03*
Y21742500D03*
G54D35*
X21130100Y28818900D03*
X21080000D03*
X21030000D03*
X21130100Y28760000D03*
X21080000D03*
X21030000D03*
G54D81*
X24170000Y23100000D03*
X24120000D03*
X24070000D03*
X24020000D03*
X24170000Y22860000D03*
X24120000D03*
X24070000D03*
X24020000D03*
G54D45*
X23385000Y20745000D03*
G54D18*
X20374700Y21804700D03*
X20314700Y21864700D03*
X23179700Y20789700D03*
G54D63*
X22890000Y24460000D03*
Y24320000D03*
G54D72*
X21705000Y29340000D03*
X22380000D03*
G54D36*
X20280000Y29260000D03*
X25560000D03*
G54D54*
X22910000Y22025000D03*
X22975000D03*
X23040000D03*
X23105000D03*
Y21655000D03*
X23040000D03*
X22975000D03*
X22910000D03*
G54D27*
X20890000Y26250000D03*
X20530000Y24962400D03*
X20100000Y26420000D03*
X20220000D03*
X20560000Y28220000D03*
X21020000Y28342400D03*
X22970000Y21085000D03*
X23070000Y20995000D03*
X22680000Y21525000D03*
X22970000Y21395000D03*
X22460000Y21525000D03*
X23180000Y21497400D03*
X22860000Y21085000D03*
X22850000Y21395000D03*
X21970000Y22962400D03*
X21710000D03*
X23065000Y22422400D03*
X22970000D03*
X22470000Y21797400D03*
X22690000Y22085000D03*
X22790000Y24262400D03*
X23000000Y24412400D03*
X22700000Y24262400D03*
X22910000Y26110000D03*
Y26282400D03*
X22510000Y26110000D03*
Y26282400D03*
X22110000Y26110000D03*
Y26282400D03*
X22130000Y26820000D03*
X22170000Y27260000D03*
X21830000Y28182400D03*
X22070000Y27260000D03*
X21570000Y28490000D03*
X21750000Y28492400D03*
X21570000Y28902400D03*
X21660000Y28490000D03*
X23775000Y20440000D03*
X23410000Y22025000D03*
X23940000Y22860000D03*
X23330000Y21745000D03*
X23700000Y23130000D03*
Y22972400D03*
X23940000Y23100000D03*
X23720000Y24202400D03*
X24700000Y25792400D03*
G54D73*
X24827500Y19761000D03*
Y20669000D03*
G54D37*
X21535000Y29265000D03*
X20745000D03*
G54D46*
X22110000Y20745000D03*
G54D55*
X22747500Y22197500D03*
G54D28*
X20890000Y26157600D03*
X20530000Y24870000D03*
X20100000Y26327600D03*
X20220000D03*
X20560000Y28127600D03*
X21020000Y28250000D03*
X22970000Y20992600D03*
X23070000Y20902600D03*
X22680000Y21432600D03*
X22970000Y21302600D03*
X22460000Y21432600D03*
X23180000Y21405000D03*
X22860000Y20992600D03*
X22850000Y21302600D03*
X21970000Y22870000D03*
X21710000D03*
X23065000Y22330000D03*
X22970000D03*
X22470000Y21705000D03*
X22690000Y21992600D03*
X22790000Y24170000D03*
X23000000Y24320000D03*
X22700000Y24170000D03*
X22910000Y26017600D03*
Y26190000D03*
X22510000Y26017600D03*
Y26190000D03*
X22110000Y26017600D03*
Y26190000D03*
X22130000Y26727600D03*
X22170000Y27167600D03*
X21830000Y28090000D03*
X22070000Y27167600D03*
X21570000Y28397600D03*
X21750000Y28400000D03*
X21570000Y28810000D03*
X21660000Y28397600D03*
X23775000Y20347600D03*
X23410000Y21932600D03*
X23940000Y22767600D03*
X23330000Y21652600D03*
X23700000Y23037600D03*
Y22880000D03*
X23940000Y23007600D03*
X23720000Y24110000D03*
X24700000Y25700000D03*
G54D19*
X21190000Y21880000D03*
Y21970000D03*
X20240000Y27510000D03*
Y27600000D03*
X22570000Y21435000D03*
Y21525000D03*
G54D82*
X24578000Y24910000D03*
X24451000D03*
X24324000D03*
X24197000D03*
X24070000D03*
X24067900Y25793300D03*
X24194900D03*
X24321900D03*
X24448900D03*
X24575900D03*
X24067900Y26253300D03*
X24194900D03*
X24321900D03*
X24448900D03*
X24575900D03*
X24578000Y25370000D03*
X24451000D03*
X24324000D03*
X24197000D03*
X24070000D03*
G54D64*
X22917500Y23532500D03*
Y23582500D03*
Y23632500D03*
Y23682500D03*
Y23732500D03*
Y23782500D03*
Y23832500D03*
Y23882500D03*
Y23932500D03*
Y23982500D03*
Y24032500D03*
Y24082500D03*
X23612500D03*
Y24032500D03*
Y23982500D03*
Y23932500D03*
Y23882500D03*
Y23832500D03*
Y23782500D03*
Y23732500D03*
Y23682500D03*
Y23632500D03*
Y23582500D03*
Y23532500D03*
G54D74*
X24235000Y20215000D03*
G54D47*
X22960000Y21515000D03*
X22800000D03*
X24790000Y24970000D03*
X24950000D03*
G54D38*
X21233800Y29265000D03*
X21046200D03*
G54D83*
X23855000Y25985000D03*
X23910000Y25040000D03*
X23860000D03*
X23810000D03*
G54D56*
X23385000Y22020000D03*
G54D29*
X21080000Y26160000D03*
X20990000D03*
X21550000Y26240000D03*
X22690000Y21795000D03*
X22600000D03*
X21640000Y26240000D03*
G54D65*
X22990000Y24155000D03*
X23040000D03*
X23090000D03*
X23140000D03*
X23190000D03*
Y23460000D03*
X23140000D03*
X23090000D03*
X23040000D03*
X22990000D03*
X23240000Y24155000D03*
X23290000D03*
X23340000D03*
X23390000D03*
X23440000D03*
X23490000D03*
X23540000D03*
Y23460000D03*
X23490000D03*
X23440000D03*
X23390000D03*
X23340000D03*
X23290000D03*
X23240000D03*
G54D39*
X21386200Y29035000D03*
X20893800D03*
G54D48*
X22755000Y20250000D03*
X22845000D03*
X22950000D03*
X23040000D03*
G54D75*
X24315000Y21470000D03*
G54D84*
X23855000Y26135000D03*
X23910000Y25190000D03*
X23860000D03*
X23810000D03*
G54D66*
X23265000Y23807500D03*
G54D57*
X22110000Y22020000D03*
G54D67*
X22977500Y23350000D03*
Y23300000D03*
Y23250000D03*
X23060000Y23350000D03*
Y23300000D03*
Y23250000D03*
G54D76*
X24315000Y21310000D03*
G54D85*
X23930000Y26010000D03*
Y26060000D03*
Y26110000D03*
X23935000Y25115000D03*
G54D58*
X23135000Y22760000D03*
X23015000D03*
X22895000D03*
Y23020000D03*
X23015000D03*
X23135000D03*
G54D49*
X23145000Y20250000D03*
X23235000D03*
G54D77*
X24410000Y21390000D03*
X24220000D03*
G54D59*
X23140000Y24500000D03*
Y24340000D03*
G54D86*
X23780000Y26010000D03*
Y26060000D03*
Y26110000D03*
X23785000Y25115000D03*
G54D68*
X22800000Y26070000D03*
X22000000D03*
X22400000D03*
G54D87*
X25450000Y24877500D03*
Y25297500D03*
G54D69*
X22791000Y26007500D03*
X22751000D03*
X22711000D03*
X22671000D03*
Y26252500D03*
X22711000D03*
X22751000D03*
X22791000D03*
X21991000Y26007500D03*
X21951000D03*
X21911000D03*
X21871000D03*
Y26252500D03*
X21911000D03*
X21951000D03*
X21991000D03*
X22391000Y26007500D03*
X22351000D03*
X22311000D03*
X22271000D03*
Y26252500D03*
X22311000D03*
X22351000D03*
X22391000D03*
G54D78*
X23550000Y23129900D03*
Y22880000D03*
G54D79*
X24570000Y22160000D03*
X24730000D03*
X24570000Y22420000D03*
X24730000D03*
X24570000Y22670000D03*
X24730000D03*
X24570000Y22920000D03*
X24730000D03*
X24790000Y24830000D03*
X24950000D03*
G54D88*
X25630000Y24750000D03*
Y25425000D03*
G54D89*
G01X20145000Y17600000D02*
X25710000D01*
G03X25850000Y17745000I-2500J142500D01*
G01Y19315000D01*
X25145000D01*
Y19850000D01*
X24510000D01*
X24509300Y20580000D01*
X25145000D01*
Y20935000D01*
X25415000D01*
Y21115000D01*
X25845000D01*
X25850000Y24450000D01*
G03X25740000Y24765000I-506023J0D01*
G02X25630000Y25080000I396023J315000D01*
G02X25740000Y25395000I506023J0D01*
G03X25850000Y25710000I-396023J315000D01*
G01Y29383800D01*
G03X25703800Y29530000I-146200J0D01*
G01X21580000D01*
Y29410000D01*
X21420000D01*
Y29200000D01*
X21330000D01*
Y29410000D01*
X20950000D01*
Y29200000D01*
X20860000D01*
Y29410000D01*
X20700000D01*
Y29530000D01*
X20146200D01*
G03X20000000Y29383800I0J-146200D01*
G01Y25710000D01*
G03X20110000Y25395000I506023J0D01*
G02X20220000Y25080000I-396023J-315000D01*
G02X20110000Y24765000I-506023J0D01*
G03X20000000Y24450000I396023J-315000D01*
G01Y17745000D01*
G03X20145000Y17600000I144167J-833D01*
M02*
