%FSLAX34Y34*%
%MOMM*%
%LNOUTLINE*%
G71*
G01*
%ADD10C, 0.100*%
%LPD*%
G54D10*
G75*
G01X479500Y-97000D02*
G03X484500Y-97000I2500J0D01*
G01*
G54D10*
G75*
G01X484500Y-77000D02*
G03X479500Y-77000I-2500J0D01*
G01*
G54D10*
X479500Y-97000D02*
X479500Y-77000D01*
G54D10*
X484500Y-97000D02*
X484500Y-77000D01*
G54D10*
G75*
G01X479500Y-157000D02*
G03X484500Y-157000I2500J0D01*
G01*
G54D10*
G75*
G01X484500Y-127000D02*
G03X479500Y-127000I-2500J0D01*
G01*
G54D10*
X479500Y-157000D02*
X479500Y-127000D01*
G54D10*
X484500Y-157000D02*
X484500Y-127000D01*
G54D10*
G75*
G01X479500Y-47000D02*
G03X484500Y-47000I2500J0D01*
G01*
G54D10*
G75*
G01X484500Y-17000D02*
G03X479500Y-17000I-2500J0D01*
G01*
G54D10*
X479500Y-47000D02*
X479500Y-17000D01*
G54D10*
X484500Y-47000D02*
X484500Y-17000D01*
G54D10*
G75*
G01X187000Y-384500D02*
G03X187000Y-379500I0J2500D01*
G01*
G54D10*
G75*
G01X167000Y-379500D02*
G03X167000Y-384500I0J-2500D01*
G01*
G54D10*
X187000Y-384500D02*
X167000Y-384500D01*
G54D10*
X187000Y-379500D02*
X167000Y-379500D01*
G54D10*
G75*
G01X247000Y-384500D02*
G03X247000Y-379500I0J2500D01*
G01*
G54D10*
G75*
G01X217000Y-379500D02*
G03X217000Y-384500I0J-2500D01*
G01*
G54D10*
X247000Y-384500D02*
X217000Y-384500D01*
G54D10*
X247000Y-379500D02*
X217000Y-379500D01*
G54D10*
G75*
G01X137000Y-384500D02*
G03X137000Y-379500I0J2500D01*
G01*
G54D10*
G75*
G01X107000Y-379500D02*
G03X107000Y-384500I0J-2500D01*
G01*
G54D10*
X137000Y-384500D02*
X107000Y-384500D01*
G54D10*
X137000Y-379500D02*
X107000Y-379500D01*
G54D10*
X75000Y-355000D02*
X75000Y-405000D01*
G54D10*
G75*
G01X415000Y-340000D02*
G03X440000Y-315000I0J25000D01*
G01*
G54D10*
X90000Y-340000D02*
X415000Y-340000D01*
G54D10*
G75*
G01X455000Y0D02*
G03X440000Y-15000I0J-15000D01*
G01*
G54D10*
X440000Y-315000D02*
X440000Y-15000D01*
G54D10*
G75*
G01X90000Y-340000D02*
G03X75000Y-355000I0J-15000D01*
G01*
G54D10*
G75*
G01X520000Y-15000D02*
G03X505000Y0I-15000J0D01*
G01*
G54D10*
G75*
G01X75000Y-405000D02*
G03X90000Y-420000I15000J0D01*
G01*
G54D10*
G75*
G01X344200Y-879200D02*
G03X328200Y-879200I-8000J0D01*
G01*
G54D10*
G75*
G01X320200Y-978400D02*
G03X328200Y-970400I0J8000D01*
G01*
G54D10*
X328200Y-879200D02*
X328200Y-970400D01*
G54D10*
X344200Y-879200D02*
X344200Y-970400D01*
G54D10*
G75*
G01X344200Y-970400D02*
G03X352200Y-978400I8000J0D01*
G01*
G54D10*
G75*
G01X268000Y-879200D02*
G03X252000Y-879200I-8000J0D01*
G01*
G54D10*
G75*
G01X244000Y-978400D02*
G03X252000Y-970400I0J8000D01*
G01*
G54D10*
X252000Y-879200D02*
X252000Y-970400D01*
G54D10*
X268000Y-879200D02*
X268000Y-970400D01*
G54D10*
G75*
G01X268000Y-970400D02*
G03X276000Y-978400I8000J0D01*
G01*
G54D10*
G75*
G01X191800Y-879200D02*
G03X175800Y-879200I-8000J0D01*
G01*
G54D10*
G75*
G01X167800Y-978400D02*
G03X175800Y-970400I0J8000D01*
G01*
G54D10*
X175800Y-879200D02*
X175800Y-970400D01*
G54D10*
X191800Y-879200D02*
X191800Y-970400D01*
G54D10*
G75*
G01X191800Y-970400D02*
G03X199800Y-978400I8000J0D01*
G01*
G54D10*
X115600Y-869200D02*
X115600Y-970400D01*
G54D10*
G75*
G01X115600Y-970400D02*
G03X123600Y-978400I8000J0D01*
G01*
G54D10*
G75*
G01X396400Y-978400D02*
G03X404400Y-970400I0J8000D01*
G01*
G54D10*
X404400Y-869200D02*
X404400Y-970400D01*
G54D10*
X396400Y-978400D02*
X352200Y-978400D01*
G54D10*
X320200Y-978400D02*
X276000Y-978400D01*
G54D10*
X244000Y-978400D02*
X199800Y-978400D01*
G54D10*
X167800Y-978400D02*
X123600Y-978400D01*
G54D10*
G75*
G01X244000Y-712500D02*
G03X276000Y-712500I16000J0D01*
G01*
G54D10*
G75*
G01X276000Y-667500D02*
G03X244000Y-667500I-16000J0D01*
G01*
G54D10*
X276000Y-712500D02*
X276000Y-667500D01*
G54D10*
X244000Y-712500D02*
X244000Y-667500D01*
G54D10*
G75*
G01X310000Y-677500D02*
G03X210000Y-677500I-50000J0D01*
G01*
G54D10*
X210000Y-677500D02*
X210000Y-785000D01*
G54D10*
X310000Y-677500D02*
X310000Y-785000D01*
G54D10*
G75*
G01X310000Y-785000D02*
G03X340000Y-785000I15000J0D01*
G01*
G54D10*
G75*
G01X180000Y-785000D02*
G03X210000Y-785000I15000J0D01*
G01*
G54D10*
G75*
G01X115600Y-869200D02*
G03X99600Y-869200I-8000J0D01*
G01*
G54D10*
G75*
G01X420400Y-869200D02*
G03X404400Y-869200I-8000J0D01*
G01*
G54D10*
X99600Y-869200D02*
X99600Y-1011262D01*
G54D10*
X420400Y-1011262D02*
X420400Y-869200D01*
G54D10*
X180000Y-655000D02*
X180000Y-785000D01*
G54D10*
X340000Y-645000D02*
X340000Y-785000D01*
G54D10*
G75*
G01X340000Y-645000D02*
G03X327500Y-632500I-12500J0D01*
G01*
G54D10*
G75*
G01X150000Y-1254000D02*
G03X125000Y-1229000I-25000J0D01*
G01*
G54D10*
G75*
G01X395000Y-1229000D02*
G03X370000Y-1254000I0J-25000D01*
G01*
G54D10*
G75*
G01X10000Y-440000D02*
G03X0Y-450000I0J-10000D01*
G01*
G54D10*
X10000Y-440000D02*
X215000Y-440000D01*
G54D10*
G75*
G01X250000Y-475000D02*
G03X215000Y-440000I-35000J0D01*
G01*
G54D10*
G75*
G01X0Y-603000D02*
G03X10000Y-613000I10000J0D01*
G01*
G54D10*
X10000Y-613000D02*
X195000Y-613000D01*
G54D10*
G75*
G01X195000Y-613000D02*
G03X205000Y-603000I0J10000D01*
G01*
G54D10*
X0Y-450000D02*
X0Y-603000D01*
G54D10*
G75*
G01X225000Y-475000D02*
G03X205000Y-475000I-10000J0D01*
G01*
G54D10*
X205000Y-475000D02*
X205000Y-603000D01*
G54D10*
G75*
G01X225000Y-575000D02*
G03X295000Y-575000I35000J0D01*
G01*
G54D10*
G75*
G01X250000Y-575000D02*
G03X270000Y-575000I10000J0D01*
G01*
G54D10*
X225000Y-475000D02*
X225000Y-575000D01*
G54D10*
X250000Y-475000D02*
X250000Y-575000D01*
G54D10*
X270000Y-475000D02*
X270000Y-575000D01*
G54D10*
G75*
G01X340000Y-475000D02*
G03X270000Y-475000I-35000J0D01*
G01*
G54D10*
G75*
G01X315000Y-475000D02*
G03X295000Y-475000I-10000J0D01*
G01*
G54D10*
X295000Y-475000D02*
X295000Y-575000D01*
G54D10*
X315000Y-475000D02*
X315000Y-620000D01*
G54D10*
X340000Y-475000D02*
X340000Y-589927D01*
G54D10*
G75*
G01X340000Y-589927D02*
G03X360000Y-589927I10000J0D01*
G01*
G54D10*
X395000Y-420000D02*
X505000Y-420000D01*
G54D10*
X455000Y0D02*
X505000Y0D01*
G54D10*
G75*
G01X315000Y-620000D02*
G03X327500Y-632500I12500J0D01*
G01*
G54D10*
G75*
G01X180000Y-655000D02*
G03X167500Y-642500I-12500J0D01*
G01*
G54D10*
G75*
G01X62500Y-642500D02*
G03X50000Y-655000I0J-12500D01*
G01*
G54D10*
X62500Y-642500D02*
X167500Y-642500D01*
G54D10*
G75*
G01X150000Y-1500000D02*
G03X165000Y-1515000I15000J0D01*
G01*
G54D10*
G75*
G01X355000Y-1515000D02*
G03X370000Y-1500000I0J15000D01*
G01*
G54D10*
X150071Y-1434000D02*
X150000Y-1500000D01*
G54D10*
X165000Y-1515000D02*
X355000Y-1515000D01*
G54D10*
X172609Y-1084129D02*
X347462Y-1084200D01*
G54D10*
X50071Y-1035929D02*
X50000Y-655000D01*
G54D10*
G75*
G01X100000Y-489500D02*
G03X100000Y-482500I0J3500D01*
G01*
G54D10*
G75*
G01X81150Y-482393D02*
G03X81150Y-489393I0J-3500D01*
G01*
G54D10*
X100000Y-489500D02*
X81150Y-489393D01*
G54D10*
X100000Y-482500D02*
X81150Y-482393D01*
G54D10*
G75*
G01X100000Y-589500D02*
G03X100000Y-582500I0J3500D01*
G01*
G54D10*
G75*
G01X81150Y-582393D02*
G03X81150Y-589393I0J-3500D01*
G01*
G54D10*
X100000Y-589500D02*
X81150Y-589393D01*
G54D10*
X100000Y-582500D02*
X81150Y-582393D01*
G54D10*
G75*
G01X137022Y-545371D02*
G03X144022Y-545371I3500J0D01*
G01*
G54D10*
G75*
G01X144129Y-526521D02*
G03X137129Y-526521I-3500J0D01*
G01*
G54D10*
X137022Y-545371D02*
X137129Y-526521D01*
G54D10*
X144022Y-545371D02*
X144129Y-526521D01*
G54D10*
G75*
G01X37022Y-545371D02*
G03X44022Y-545371I3500J0D01*
G01*
G54D10*
G75*
G01X44129Y-526521D02*
G03X37129Y-526521I-3500J0D01*
G01*
G54D10*
X37022Y-545371D02*
X37129Y-526521D01*
G54D10*
X44022Y-545371D02*
X44129Y-526521D01*
G54D10*
X2912Y-1151929D02*
X57071Y-1098000D01*
G54D10*
X520017Y-1158500D02*
X520000Y-1239000D01*
G54D10*
X470000Y-1036000D02*
X470000Y-825000D01*
G54D10*
X517088Y-1151429D02*
X462929Y-1097554D01*
G54D10*
X472929Y-817929D02*
X517071Y-774071D01*
G54D10*
X102529Y-1018333D02*
X165538Y-1081200D01*
G54D10*
X417471Y-1018333D02*
X354533Y-1081271D01*
G54D10*
X520000Y-767000D02*
X520000Y-635000D01*
G54D10*
X520000Y-405000D02*
X520000Y-15000D01*
G54D10*
G75*
G01X395000Y-485000D02*
G03X395000Y-555000I0J-35000D01*
G01*
G54D10*
X485000Y-530000D02*
X395000Y-530000D01*
G54D10*
G75*
G01X485000Y-600000D02*
G03X485000Y-530000I0J35000D01*
G01*
G54D10*
G75*
G01X485000Y-575000D02*
G03X485000Y-555000I0J10000D01*
G01*
G54D10*
X485000Y-555000D02*
X395000Y-555000D01*
G54D10*
G75*
G01X415000Y-600000D02*
G03X415000Y-620000I0J-10000D01*
G01*
G54D10*
X485000Y-575000D02*
X370000Y-574927D01*
G54D10*
X485000Y-600000D02*
X415000Y-600000D01*
G54D10*
X505000Y-620000D02*
X415000Y-620000D01*
G54D10*
G75*
G01X395000Y-510000D02*
G03X395000Y-530000I0J-10000D01*
G01*
G54D10*
G75*
G01X244000Y-1347500D02*
G03X276000Y-1347500I16000J0D01*
G01*
G54D10*
G75*
G01X276000Y-1327500D02*
G03X244000Y-1327500I-16000J0D01*
G01*
G54D10*
X276000Y-1347500D02*
X276000Y-1327500D01*
G54D10*
X244000Y-1347500D02*
X244000Y-1327500D01*
G54D10*
G75*
G01X244000Y-1347500D02*
G03X276000Y-1347500I16000J0D01*
G01*
G54D10*
G75*
G01X276000Y-1327500D02*
G03X244000Y-1327500I-16000J0D01*
G01*
G54D10*
X276000Y-1347500D02*
X276000Y-1327500D01*
G54D10*
X244000Y-1347500D02*
X244000Y-1327500D01*
G54D10*
G75*
G01X130000Y-947500D02*
G03X162000Y-947500I16000J0D01*
G01*
G54D10*
G75*
G01X162000Y-927500D02*
G03X130000Y-927500I-16000J0D01*
G01*
G54D10*
X162000Y-947500D02*
X162000Y-927500D01*
G54D10*
X130000Y-947500D02*
X130000Y-927500D01*
G54D10*
G75*
G01X358000Y-947500D02*
G03X390000Y-947500I16000J0D01*
G01*
G54D10*
G75*
G01X390000Y-927500D02*
G03X358000Y-927500I-16000J0D01*
G01*
G54D10*
X390000Y-947500D02*
X390000Y-927500D01*
G54D10*
X358000Y-947500D02*
X358000Y-927500D01*
G54D10*
G75*
G01X282000Y-947500D02*
G03X314000Y-947500I16000J0D01*
G01*
G54D10*
G75*
G01X314000Y-927500D02*
G03X282000Y-927500I-16000J0D01*
G01*
G54D10*
X314000Y-947500D02*
X314000Y-927500D01*
G54D10*
X282000Y-947500D02*
X282000Y-927500D01*
G54D10*
G75*
G01X206000Y-947500D02*
G03X238000Y-947500I16000J0D01*
G01*
G54D10*
G75*
G01X238000Y-927500D02*
G03X206000Y-927500I-16000J0D01*
G01*
G54D10*
X238000Y-947500D02*
X238000Y-927500D01*
G54D10*
X206000Y-947500D02*
X206000Y-927500D01*
G54D10*
X395000Y-1229000D02*
X485000Y-1229000D01*
G54D10*
G75*
G01X0Y-1455000D02*
G03X15000Y-1470000I15000J0D01*
G01*
G54D10*
G75*
G01X85000Y-1470000D02*
G03X100000Y-1455000I0J15000D01*
G01*
G54D10*
X85000Y-1470000D02*
X15000Y-1470000D01*
G54D10*
X100000Y-1369000D02*
X100000Y-1455000D01*
G54D10*
G75*
G01X0Y-1239000D02*
G03X35000Y-1274000I35000J0D01*
G01*
G54D10*
G75*
G01X35000Y-1229000D02*
G03X35000Y-1249000I0J-10000D01*
G01*
G54D10*
G75*
G01X85000Y-1319000D02*
G03X85000Y-1249000I0J35000D01*
G01*
G54D10*
X35000Y-1294000D02*
X85000Y-1294000D01*
G54D10*
X35000Y-1319000D02*
X85000Y-1319000D01*
G54D10*
G75*
G01X85000Y-1294000D02*
G03X85000Y-1274000I0J10000D01*
G01*
G54D10*
X35000Y-1249000D02*
X85000Y-1249000D01*
G54D10*
X35000Y-1274000D02*
X85000Y-1274000D01*
G54D10*
G75*
G01X35000Y-1294000D02*
G03X0Y-1329000I0J-35000D01*
G01*
G54D10*
G75*
G01X35000Y-1319000D02*
G03X25000Y-1329000I0J-10000D01*
G01*
G54D10*
X0Y-1455000D02*
X0Y-1329000D01*
G54D10*
G75*
G01X100000Y-1369000D02*
G03X90000Y-1359000I-10000J0D01*
G01*
G54D10*
X35000Y-1359000D02*
X90000Y-1359000D01*
G54D10*
G75*
G01X25000Y-1349000D02*
G03X35000Y-1359000I10000J0D01*
G01*
G54D10*
X25000Y-1329000D02*
X25000Y-1349000D01*
G54D10*
X35000Y-1229000D02*
X125000Y-1229000D01*
G54D10*
X-17Y-1159000D02*
X0Y-1239000D01*
G54D10*
G75*
G01X505000Y-1470000D02*
G03X520000Y-1455000I0J15000D01*
G01*
G54D10*
G75*
G01X420000Y-1455000D02*
G03X435000Y-1470000I15000J0D01*
G01*
G54D10*
X435000Y-1470000D02*
X505000Y-1470000D01*
G54D10*
X420000Y-1369000D02*
X420000Y-1455000D01*
G54D10*
G75*
G01X485000Y-1274000D02*
G03X520000Y-1239000I0J35000D01*
G01*
G54D10*
G75*
G01X485000Y-1249000D02*
G03X485000Y-1229000I0J10000D01*
G01*
G54D10*
G75*
G01X435000Y-1249000D02*
G03X435000Y-1319000I0J-35000D01*
G01*
G54D10*
X485000Y-1294000D02*
X435000Y-1294000D01*
G54D10*
X485000Y-1319000D02*
X435000Y-1319000D01*
G54D10*
G75*
G01X435000Y-1274000D02*
G03X435000Y-1294000I0J-10000D01*
G01*
G54D10*
X485000Y-1249000D02*
X435000Y-1249000D01*
G54D10*
X485000Y-1274000D02*
X435000Y-1274000D01*
G54D10*
G75*
G01X520000Y-1329000D02*
G03X485000Y-1294000I-35000J0D01*
G01*
G54D10*
G75*
G01X495000Y-1329000D02*
G03X485000Y-1319000I-10000J0D01*
G01*
G54D10*
X520000Y-1455000D02*
X520000Y-1329000D01*
G54D10*
G75*
G01X430000Y-1359000D02*
G03X420000Y-1369000I0J-10000D01*
G01*
G54D10*
X485000Y-1359000D02*
X430000Y-1359000D01*
G54D10*
G75*
G01X485000Y-1359000D02*
G03X495000Y-1349000I0J10000D01*
G01*
G54D10*
X495000Y-1329000D02*
X495000Y-1349000D01*
G54D10*
X467071Y-1043071D02*
X463000Y-1047000D01*
G54D10*
G75*
G01X472929Y-817929D02*
G03X470000Y-825000I7071J-7071D01*
G01*
G54D10*
G75*
G01X517071Y-774071D02*
G03X520000Y-767000I-7071J7071D01*
G01*
G54D10*
G75*
G01X417471Y-1018333D02*
G03X420400Y-1011262I-7071J7071D01*
G01*
G54D10*
G75*
G01X99600Y-1011262D02*
G03X102529Y-1018333I10000J0D01*
G01*
G54D10*
G75*
G01X347462Y-1084200D02*
G03X354533Y-1081271I0J10000D01*
G01*
G54D10*
G75*
G01X165538Y-1081200D02*
G03X172609Y-1084129I7071J7071D01*
G01*
G54D10*
G75*
G01X467071Y-1043071D02*
G03X470000Y-1036000I-7071J7071D01*
G01*
G54D10*
G75*
G01X463000Y-1047000D02*
G03X460071Y-1054071I7071J-7071D01*
G01*
G54D10*
X460000Y-1090483D02*
X460071Y-1054071D01*
G54D10*
X53000Y-1043000D02*
X57071Y-1046929D01*
G54D10*
G75*
G01X50071Y-1035929D02*
G03X53000Y-1043000I10000J0D01*
G01*
G54D10*
G75*
G01X60000Y-1054000D02*
G03X57071Y-1046929I-10000J0D01*
G01*
G54D10*
G75*
G01X57071Y-1098000D02*
G03X60000Y-1090929I-7071J7071D01*
G01*
G54D10*
X60000Y-1054000D02*
X60000Y-1090929D01*
G54D10*
G75*
G01X460000Y-1090483D02*
G03X462929Y-1097554I10000J0D01*
G01*
G54D10*
G75*
G01X520017Y-1158500D02*
G03X517088Y-1151429I-10000J0D01*
G01*
G54D10*
G75*
G01X2912Y-1151929D02*
G03X-17Y-1159000I7071J-7071D01*
G01*
G54D10*
G75*
G01X520000Y-635000D02*
G03X505000Y-620000I-15000J0D01*
G01*
G54D10*
X485000Y-485000D02*
X395000Y-485000D01*
G54D10*
X485000Y-510000D02*
X395000Y-510000D01*
G54D10*
G75*
G01X360000Y-430000D02*
G03X395000Y-465000I35000J0D01*
G01*
G54D10*
X485000Y-440000D02*
X395000Y-440000D01*
G54D10*
G75*
G01X485000Y-510000D02*
G03X485000Y-440000I0J35000D01*
G01*
G54D10*
G75*
G01X485000Y-485000D02*
G03X485000Y-465000I0J10000D01*
G01*
G54D10*
X485000Y-465000D02*
X395000Y-465000D01*
G54D10*
G75*
G01X395000Y-420000D02*
G03X395000Y-440000I0J-10000D01*
G01*
G54D10*
G75*
G01X505000Y-420000D02*
G03X520000Y-405000I0J15000D01*
G01*
G54D10*
G75*
G01X360000Y-430000D02*
G03X350000Y-420000I-10000J0D01*
G01*
G54D10*
X90000Y-420000D02*
X350000Y-420000D01*
G54D10*
G75*
G01X370000Y-574927D02*
G03X360000Y-584927I0J-10000D01*
G01*
G54D10*
X360000Y-589927D02*
X360000Y-584927D01*
G54D10*
X153000Y-1363000D02*
X162071Y-1371929D01*
G54D10*
G75*
G01X150071Y-1355929D02*
G03X153000Y-1363000I10000J0D01*
G01*
G54D10*
G75*
G01X165000Y-1379000D02*
G03X162071Y-1371929I-10000J0D01*
G01*
G54D10*
X153000Y-1426929D02*
X162071Y-1418000D01*
G54D10*
G75*
G01X153000Y-1426929D02*
G03X150071Y-1434000I7071J-7071D01*
G01*
G54D10*
G75*
G01X162071Y-1418000D02*
G03X165000Y-1410929I-7071J7071D01*
G01*
G54D10*
X165000Y-1379000D02*
X165000Y-1410929D01*
G54D10*
X150071Y-1355929D02*
X150071Y-1254071D01*
X150000Y-1254000D01*
G54D10*
X370000Y-1433929D02*
X370000Y-1500000D01*
G54D10*
X367071Y-1362929D02*
X358000Y-1371858D01*
G54D10*
G75*
G01X367071Y-1362929D02*
G03X370000Y-1355858I-7071J7071D01*
G01*
G54D10*
G75*
G01X358000Y-1371858D02*
G03X355071Y-1378929I7071J-7071D01*
G01*
G54D10*
X367071Y-1426858D02*
X358000Y-1417929D01*
G54D10*
G75*
G01X370000Y-1433929D02*
G03X367071Y-1426858I-10000J0D01*
G01*
G54D10*
G75*
G01X355071Y-1410858D02*
G03X358000Y-1417929I10000J0D01*
G01*
G54D10*
X355071Y-1378929D02*
X355071Y-1410858D01*
G54D10*
X370000Y-1355858D02*
X370000Y-1254000D01*
X370071Y-1253929D01*
M02*
