; Drill file
; Format: 3.3 (000.000)
M48
METRIC
T01C0.4
T02C1.0
T03C2.3
%
G05
G90
T01
X022200Y-129300
X026400Y-129100
X029200Y-128900
X032800Y-128900
X032800Y-123700
X027600Y-120700
X027600Y-118100
X027600Y-115500
X024400Y-115500
X024400Y-118100
X024400Y-120700
X022200Y-123700
X020800Y-123700
X018400Y-123700
X014480Y-117700
X009600Y-117700
X004000Y-117350
X002200Y-115550
X007000Y-112550
X009600Y-110350
X011500Y-110350
X031200Y-113900
X034400Y-117700
X038000Y-117300
X038000Y-118700
X042400Y-119480
X048000Y-117350
X049800Y-115550
X045000Y-112550
X042400Y-112750
X037400Y-087500
X037600Y-080900
X036000Y-080900
X040000Y-075900
X040950Y-074900
X042400Y-075900
X041900Y-069900
X040000Y-069900
X044400Y-069700
X046860Y-069700
X046860Y-065300
X026000Y-074600
X016000Y-074370
X016000Y-071970
X016000Y-069570
X016000Y-077600
X014600Y-087500
X022200Y-087500
X029800Y-087500
X009000Y-056600
X006000Y-053600
X009000Y-050600
X012060Y-053650
X012200Y-040200
X017700Y-039700
X026600Y-038200
X040600Y-036500
X042200Y-038100
X044300Y-040200
X048200Y-017600
X049700Y-008700
X050200Y-003200
T02
X002500Y-143750
X007500Y-143750
X007500Y-138750
X005000Y-138750
X002500Y-138750
X022600Y-141200
X022600Y-143700
X024700Y-143700
X027300Y-143700
X029400Y-143700
X029400Y-141200
X044500Y-138750
X047000Y-138750
X049500Y-138750
X049500Y-143750
X044500Y-143750
T03
X019200Y-146700
X026000Y-147500
X032800Y-146700
M30
