G04 ================== begin FILE IDENTIFICATION RECORD ==================*
G04 Layout Name:  MCU013_LAUNCHXL-CC1310_CC1190.brd*
G04 Film Name:    LAUNCHXL-CC1310-C1190_paste_top*
G04 File Format:  Gerber RS274X*
G04 File Origin:  Cadence Allegro 17.2-S024*
G04 Origin Date:  Fri Jan 26 16:30:51 2018*
G04 *
G04 Layer:  PIN/FILMMASKTOP*
G04 Layer:  BOARD GEOMETRY/OUTLINE*
G04 *
G04 Offset:    (0.000 0.000)*
G04 Mirror:    No*
G04 Mode:      Positive*
G04 Rotation:  0*
G04 FullContactRelief:  No*
G04 UndefLineWidth:     0.099*
G04 ================== end FILE IDENTIFICATION RECORD ====================*
%FSLAX25Y25*MOMM*%
%IR0*IPPOS*OFA0.00000B0.00000*MIA0B0*SFA1.00000B1.00000*%
%AMMACRO71*
4,1,41,0.0,.5,
-.256,.5,
-.293989,.49672,
-.330832,.486894,
-.365409,.470819,
-.396669,.448983,
-.423662,.422052,
-.445569,.390842,
-.461723,.356303,
-.471634,.319483,
-.475,.282,
-.475,-.282,
-.471546,-.319974,
-.461551,-.356771,
-.445318,-.391274,
-.42334,-.422434,
-.396285,-.449304,
-.364976,-.471067,
-.330363,-.487063,
-.293498,-.496806,
-.256,-.5,
.256,-.5,
.293989,-.49672,
.330832,-.486894,
.365409,-.470819,
.396669,-.448983,
.423662,-.422052,
.445569,-.390842,
.461723,-.356303,
.471634,-.319483,
.475,-.282,
.475,.282,
.471546,.319974,
.461551,.356771,
.445318,.391274,
.42334,.422434,
.396285,.449304,
.364976,.471067,
.330363,.487063,
.293498,.496806,
.256,.5,
0.0,.5,
0.0*
%
%ADD71MACRO71*%
%AMMACRO11*
4,1,41,-.5,0.0,
-.5,-.256,
-.49672,-.293989,
-.486894,-.330832,
-.470819,-.365409,
-.448983,-.396669,
-.422052,-.423662,
-.390842,-.445569,
-.356303,-.461723,
-.319483,-.471634,
-.282,-.475,
.282,-.475,
.319974,-.471546,
.356771,-.461551,
.391274,-.445318,
.422434,-.42334,
.449304,-.396285,
.471067,-.364976,
.487063,-.330363,
.496806,-.293498,
.5,-.256,
.5,.256,
.49672,.293989,
.486894,.330832,
.470819,.365409,
.448983,.396669,
.422052,.423662,
.390842,.445569,
.356303,.461723,
.319483,.471634,
.282,.475,
-.282,.475,
-.319974,.471546,
-.356771,.461551,
-.391274,.445318,
-.422434,.42334,
-.449304,.396285,
-.471067,.364976,
-.487063,.330363,
-.496806,.293498,
-.5,.256,
-.5,0.0,
0.0*
%
%ADD11MACRO11*%
%AMMACRO65*
4,1,41,3.175,0.0,
3.175,.488,
3.167507,.572646,
3.145429,.654705,
3.109437,.731683,
3.060625,.801242,
3.000476,.861268,
2.930817,.909937,
2.853765,.945771,
2.771661,.967681,
2.688,.975,
-2.688,.975,
-2.772646,.967507,
-2.854705,.945429,
-2.931683,.909437,
-3.001242,.860625,
-3.061268,.800476,
-3.109937,.730817,
-3.145771,.653765,
-3.167681,.571661,
-3.175,.488,
-3.175,-.488,
-3.167507,-.572646,
-3.145429,-.654705,
-3.109437,-.731683,
-3.060625,-.801242,
-3.000476,-.861268,
-2.930817,-.909937,
-2.853765,-.945771,
-2.771661,-.967681,
-2.688,-.975,
2.688,-.975,
2.772646,-.967507,
2.854705,-.945429,
2.931683,-.909437,
3.001242,-.860625,
3.061268,-.800476,
3.109937,-.730817,
3.145771,-.653765,
3.167681,-.571661,
3.175,-.488,
3.175,0.0,
0.0*
%
%ADD65MACRO65*%
%AMMACRO77*
4,1,22,-.4,-.15,
.325,-.15,
.338024,-.148861,
.350652,-.145477,
.3625,-.139952,
.373209,-.132453,
.382453,-.123209,
.389952,-.1125,
.395477,-.100652,
.398861,-.088024,
.4,-.075,
.4,.075,
.398861,.088024,
.395477,.100652,
.389952,.1125,
.382453,.123209,
.373209,.132453,
.3625,.139952,
.350652,.145477,
.338024,.148861,
.325,.15,
-.4,.15,
-.4,-.15,
0.0*
%
%ADD77MACRO77*%
%AMMACRO75*
4,1,22,-.15,.4,
-.15,-.325,
-.148861,-.338024,
-.145477,-.350652,
-.139952,-.3625,
-.132453,-.373209,
-.123209,-.382453,
-.1125,-.389952,
-.100652,-.395477,
-.088024,-.398861,
-.075,-.4,
.075,-.4,
.088024,-.398861,
.100652,-.395477,
.1125,-.389952,
.123209,-.382453,
.132453,-.373209,
.139952,-.3625,
.145477,-.350652,
.148861,-.338024,
.15,-.325,
.15,.4,
-.15,.4,
0.0*
%
%ADD75MACRO75*%
%ADD45O,1.X.35*%
%ADD46O,.35X1.*%
%ADD26O,1.501X.201*%
%ADD20O,.201X1.501*%
%AMMACRO24*
4,1,40,.325,.16,
.325,-.16,
.322569,-.187784,
.315351,-.214723,
.303564,-.24,
.287567,-.262846,
.267846,-.282567,
.245,-.298564,
.219723,-.310351,
.192784,-.317569,
.165,-.32,
-.165,-.32,
-.192784,-.317569,
-.219723,-.310351,
-.245,-.298564,
-.267846,-.282567,
-.287567,-.262846,
-.303564,-.24,
-.315351,-.214723,
-.322569,-.187784,
-.325,-.16,
-.325,.16,
-.322569,.187784,
-.315351,.214723,
-.303564,.24,
-.287567,.262846,
-.267846,.282567,
-.245,.298564,
-.219723,.310351,
-.192784,.317569,
-.165,.32,
.165,.32,
.192784,.317569,
.219723,.310351,
.245,.298564,
.267846,.282567,
.287567,.262846,
.303564,.24,
.315351,.214723,
.322569,.187784,
.325,.16,
0.0*
%
%ADD24MACRO24*%
%AMMACRO16*
4,1,40,.16,-.325,
-.16,-.325,
-.187784,-.322569,
-.214723,-.315351,
-.24,-.303564,
-.262846,-.287567,
-.282567,-.267846,
-.298564,-.245,
-.310351,-.219723,
-.317569,-.192784,
-.32,-.165,
-.32,.165,
-.317569,.192784,
-.310351,.219723,
-.298564,.245,
-.282567,.267846,
-.262846,.287567,
-.24,.303564,
-.214723,.315351,
-.187784,.322569,
-.16,.325,
.16,.325,
.187784,.322569,
.214723,.315351,
.24,.303564,
.262846,.287567,
.282567,.267846,
.298564,.245,
.310351,.219723,
.317569,.192784,
.32,.165,
.32,-.165,
.317569,-.192784,
.310351,-.219723,
.298564,-.245,
.282567,-.267846,
.262846,-.287567,
.24,-.303564,
.214723,-.315351,
.187784,-.322569,
.16,-.325,
0.0*
%
%ADD16MACRO16*%
%ADD72R,1.7X.3*%
%AMMACRO42*
4,1,45,.376,0.0,
.376,.206,
.373522,.235432,
.365972,.263987,
.353577,.290796,
.336715,.315046,
.315899,.336,
.29176,.353021,
.265032,.365591,
.236528,.373329,
.207113,.376,
.206,.376,
-.206,.376,
-.235432,.373522,
-.263987,.365972,
-.290796,.353577,
-.315046,.336715,
-.336,.315899,
-.353021,.29176,
-.365591,.265032,
-.373329,.236528,
-.376,.207113,
-.376,.206,
-.376,-.206,
-.373522,-.235432,
-.365972,-.263987,
-.353577,-.290796,
-.336715,-.315046,
-.315899,-.336,
-.29176,-.353021,
-.265032,-.365591,
-.236528,-.373329,
-.207113,-.376,
-.206,-.376,
.206,-.376,
.235432,-.373522,
.263987,-.365972,
.290796,-.353577,
.315046,-.336715,
.336,-.315899,
.353021,-.29176,
.365591,-.265032,
.373329,-.236528,
.376,-.207113,
.376,-.206,
.376,0.0,
0.0*
%
%ADD42MACRO42*%
%ADD74O,.551X2.05*%
%ADD10C,1.27*%
%AMMACRO68*
4,1,14,.85,.3,
.85,-.3,
-.85,-.3,
-.85,.3,
-.49,.3,
-.395732,.222508,
-.28944,.162564,
-.174353,.121987,
-.053969,.102012,
.068055,.103244,
.188012,.125647,
.302255,.16854,
.407315,.230619,
.49,.3,
.85,.3,
0.0*
%
%ADD68MACRO68*%
%AMMACRO80*
4,1,45,0.0,.7,
-.212,.7,
-.261931,.695719,
-.310361,.682833,
-.355817,.661732,
-.396918,.633059,
-.432416,.597684,
-.461232,.556683,
-.482491,.511301,
-.495545,.462916,
-.5,.413,
-.5,.412,
-.5,-.412,
-.495719,-.461931,
-.482833,-.510361,
-.461732,-.555817,
-.433059,-.596918,
-.397684,-.632416,
-.356683,-.661232,
-.311301,-.682491,
-.262916,-.695545,
-.213,-.7,
-.212,-.7,
.212,-.7,
.261931,-.695719,
.310361,-.682833,
.355817,-.661732,
.396918,-.633059,
.432416,-.597684,
.461232,-.556683,
.482491,-.511301,
.495545,-.462916,
.5,-.413,
.5,-.412,
.5,.412,
.495719,.461931,
.482833,.510361,
.461732,.555817,
.433059,.596918,
.397684,.632416,
.356683,.661232,
.311301,.682491,
.262916,.695545,
.213,.7,
.212,.7,
0.0,.7,
0.0*
%
%ADD80MACRO80*%
%AMMACRO64*
4,1,45,-.7,0.0,
-.7,-.212,
-.695719,-.261931,
-.682833,-.310361,
-.661732,-.355817,
-.633059,-.396918,
-.597684,-.432416,
-.556683,-.461232,
-.511301,-.482491,
-.462916,-.495545,
-.413,-.5,
-.412,-.5,
.412,-.5,
.461931,-.495719,
.510361,-.482833,
.555817,-.461732,
.596918,-.433059,
.632416,-.397684,
.661232,-.356683,
.682491,-.311301,
.695545,-.262916,
.7,-.213,
.7,-.212,
.7,.212,
.695719,.261931,
.682833,.310361,
.661732,.355817,
.633059,.396918,
.597684,.432416,
.556683,.461232,
.511301,.482491,
.462916,.495545,
.413,.5,
.412,.5,
-.412,.5,
-.461931,.495719,
-.510361,.482833,
-.555817,.461732,
-.596918,.433059,
-.632416,.397684,
-.661232,.356683,
-.682491,.311301,
-.695545,.262916,
-.7,.213,
-.7,.212,
-.7,0.0,
0.0*
%
%ADD64MACRO64*%
%ADD44R,2.25X2.25*%
%ADD58R,5.25X5.25*%
%AMMACRO79*
4,1,41,.65,0.0,
.65,.225,
.646582,.264071,
.636431,.301955,
.619856,.3375,
.59736,.369627,
.569627,.39736,
.5375,.419856,
.501955,.436431,
.464071,.446582,
.425,.45,
-.425,.45,
-.464071,.446582,
-.501955,.436431,
-.5375,.419856,
-.569627,.39736,
-.59736,.369627,
-.619856,.3375,
-.636431,.301955,
-.646582,.264071,
-.65,.225,
-.65,-.225,
-.646582,-.264071,
-.636431,-.301955,
-.619856,-.3375,
-.59736,-.369627,
-.569627,-.39736,
-.5375,-.419856,
-.501955,-.436431,
-.464071,-.446582,
-.425,-.45,
.425,-.45,
.464071,-.446582,
.501955,-.436431,
.5375,-.419856,
.569627,-.39736,
.59736,-.369627,
.619856,-.3375,
.636431,-.301955,
.646582,-.264071,
.65,-.225,
.65,0.0,
0.0*
%
%ADD79MACRO79*%
%AMMACRO61*
4,1,41,0.0,.325,
-.05,.325,
-.058682,.32424,
-.067101,.321985,
-.075,.318301,
-.082139,.313302,
-.088302,.307139,
-.093301,.3,
-.096985,.292101,
-.09924,.283682,
-.1,.275,
-.1,-.275,
-.09924,-.283682,
-.096985,-.292101,
-.093301,-.3,
-.088302,-.307139,
-.082139,-.313302,
-.075,-.318301,
-.067101,-.321985,
-.058682,-.32424,
-.05,-.325,
.05,-.325,
.058682,-.32424,
.067101,-.321985,
.075,-.318301,
.082139,-.313302,
.088302,-.307139,
.093301,-.3,
.096985,-.292101,
.09924,-.283682,
.1,-.275,
.1,.275,
.09924,.283682,
.096985,.292101,
.093301,.3,
.088302,.307139,
.082139,.313302,
.075,.318301,
.067101,.321985,
.058682,.32424,
.05,.325,
0.0,.325,
0.0*
%
%ADD61MACRO61*%
%AMMACRO32*
4,1,44,0.0,-.7,
.112,-.7,
.131543,-.698378,
.150507,-.693386,
.168317,-.685178,
.184431,-.674001,
.198359,-.660197,
.209678,-.644183,
.218044,-.626447,
.223204,-.607528,
.225,-.588,
.225,.588,
.223204,.607528,
.218044,.626447,
.209678,.644183,
.198359,.660197,
.184431,.674001,
.168317,.685178,
.150507,.693386,
.131543,.698378,
.112,.7,
.112,.7,
-.112,.7,
-.131543,.698378,
-.150507,.693386,
-.168317,.685178,
-.184431,.674001,
-.198359,.660197,
-.209678,.644183,
-.218044,.626447,
-.223204,.607528,
-.225,.588,
-.225,.588,
-.225,-.588,
-.223204,-.607528,
-.218044,-.626447,
-.209678,-.644183,
-.198359,-.660197,
-.184431,-.674001,
-.168317,-.685178,
-.150507,-.693386,
-.131543,-.698378,
-.112,-.7,
-.112,-.7,
0.0,-.7,
0.0*
%
%ADD32MACRO32*%
%AMMACRO27*
4,1,45,0.0,.701,
-.312,.701,
-.361916,.696546,
-.410301,.683492,
-.455683,.662235,
-.496685,.63342,
-.53206,.597922,
-.560734,.556821,
-.581835,.511366,
-.594722,.462937,
-.599003,.413006,
-.599,.412,
-.599,-.412,
-.594893,-.461946,
-.582175,-.51042,
-.561233,-.555949,
-.532704,-.59715,
-.497453,-.632771,
-.456552,-.661729,
-.411244,-.683145,
-.362906,-.696368,
-.313006,-.700997,
-.312,-.701,
.312,-.701,
.361916,-.696546,
.410301,-.683492,
.455683,-.662235,
.496685,-.63342,
.53206,-.597922,
.560734,-.556821,
.581835,-.511366,
.594722,-.462937,
.599003,-.413006,
.599,-.412,
.599,.412,
.594893,.461946,
.582175,.51042,
.561233,.555949,
.532704,.59715,
.497453,.632771,
.456552,.661729,
.411244,.683145,
.362906,.696368,
.313006,.700997,
.312,.701,
0.0,.701,
0.0*
%
%ADD27MACRO27*%
%AMMACRO23*
4,1,40,-.11,.262,
-.134311,.259873,
-.157883,.253557,
-.18,.243244,
-.19999,.229246,
-.217246,.21199,
-.231244,.192,
-.241557,.169883,
-.247873,.146311,
-.25,.122,
-.25,-.122,
-.247873,-.146311,
-.241557,-.169883,
-.231244,-.192,
-.217246,-.21199,
-.19999,-.229246,
-.18,-.243244,
-.157883,-.253557,
-.134311,-.259873,
-.11,-.262,
.11,-.262,
.134311,-.259873,
.157883,-.253557,
.18,-.243244,
.19999,-.229246,
.217246,-.21199,
.231244,-.192,
.241557,-.169883,
.247873,-.146311,
.25,-.122,
.25,.122,
.247873,.146311,
.241557,.169883,
.231244,.192,
.217246,.21199,
.19999,.229246,
.18,.243244,
.157883,.253557,
.134311,.259873,
.11,.262,
-.11,.262,
0.0*
%
%ADD23MACRO23*%
%AMMACRO15*
4,1,44,.107,.263,
.088532,.278907,
.067371,.291062,
.044421,.299358,
.020379,.303543,
-.004025,.303489,
-.028048,.299198,
-.050962,.290801,
-.072069,.278552,
-.090728,.262825,
-.091,.263,
-.263,.091,
-.278514,.072124,
-.290772,.051023,
-.29918,.028113,
-.303483,.004092,
-.303548,-.020312,
-.299375,-.044356,
-.291091,-.06731,
-.278946,-.088477,
-.26331,-.107213,
-.263,-.107,
-.107,-.263,
-.088532,-.278907,
-.067371,-.291062,
-.044421,-.299358,
-.020379,-.303543,
.004025,-.303489,
.028048,-.299198,
.050962,-.290801,
.072069,-.278552,
.090728,-.262825,
.091,-.263,
.263,-.091,
.278514,-.072124,
.290772,-.051023,
.29918,-.028113,
.303483,-.004092,
.303548,.020312,
.299375,.044356,
.291091,.06731,
.278946,.088477,
.26331,.107213,
.263,.107,
.107,.263,
0.0*
%
%ADD15MACRO15*%
%AMMACRO14*
4,1,44,-.107,-.263,
-.088532,-.278907,
-.067371,-.291062,
-.044421,-.299358,
-.020379,-.303543,
.004025,-.303489,
.028048,-.299198,
.050962,-.290801,
.072069,-.278552,
.090728,-.262825,
.091,-.263,
.263,-.091,
.278514,-.072124,
.290772,-.051023,
.29918,-.028113,
.303483,-.004092,
.303548,.020312,
.299375,.044356,
.291091,.06731,
.278946,.088477,
.26331,.107213,
.263,.107,
.107,.263,
.088532,.278907,
.067371,.291062,
.044421,.299358,
.020379,.303543,
-.004025,.303489,
-.028048,.299198,
-.050962,.290801,
-.072069,.278552,
-.090728,.262825,
-.091,.263,
-.263,.091,
-.278514,.072124,
-.290772,.051023,
-.29918,.028113,
-.303483,.004092,
-.303548,-.020312,
-.299375,-.044356,
-.291091,-.06731,
-.278946,-.088477,
-.26331,-.107213,
-.263,-.107,
-.107,-.263,
0.0*
%
%ADD14MACRO14*%
%AMMACRO13*
4,1,40,-.262,-.11,
-.259873,-.134311,
-.253557,-.157883,
-.243244,-.18,
-.229246,-.19999,
-.21199,-.217246,
-.192,-.231244,
-.169883,-.241557,
-.146311,-.247873,
-.122,-.25,
.122,-.25,
.146311,-.247873,
.169883,-.241557,
.192,-.231244,
.21199,-.217246,
.229246,-.19999,
.243244,-.18,
.253557,-.157883,
.259873,-.134311,
.262,-.11,
.262,.11,
.259873,.134311,
.253557,.157883,
.243244,.18,
.229246,.19999,
.21199,.217246,
.192,.231244,
.169883,.241557,
.146311,.247873,
.122,.25,
-.122,.25,
-.146311,.247873,
-.169883,.241557,
-.192,.231244,
-.21199,.217246,
-.229246,.19999,
-.243244,.18,
-.253557,.157883,
-.259873,.134311,
-.262,.11,
-.262,-.11,
0.0*
%
%ADD13MACRO13*%
%AMMACRO47*
4,1,41,-1.9,0.0,
-1.9,-.25,
-1.896202,-.293412,
-1.884923,-.335505,
-1.866506,-.375,
-1.841511,-.410697,
-1.810697,-.441511,
-1.775,-.466506,
-1.735505,-.484923,
-1.693412,-.496202,
-1.65,-.5,
1.65,-.5,
1.693412,-.496202,
1.735505,-.484923,
1.775,-.466506,
1.810697,-.441511,
1.841511,-.410697,
1.866506,-.375,
1.884923,-.335505,
1.896202,-.293412,
1.9,-.25,
1.9,.25,
1.896202,.293412,
1.884923,.335505,
1.866506,.375,
1.841511,.410697,
1.810697,.441511,
1.775,.466506,
1.735505,.484923,
1.693412,.496202,
1.65,.5,
-1.65,.5,
-1.693412,.496202,
-1.735505,.484923,
-1.775,.466506,
-1.810697,.441511,
-1.841511,.410697,
-1.866506,.375,
-1.884923,.335505,
-1.896202,.293412,
-1.9,.25,
-1.9,0.0,
0.0*
%
%ADD47MACRO47*%
%AMMACRO54*
4,1,41,0.0,.45,
-.15,.45,
-.189071,.446582,
-.226955,.436431,
-.2625,.419856,
-.294627,.39736,
-.32236,.369627,
-.344856,.3375,
-.361431,.301955,
-.371582,.264071,
-.375,.225,
-.375,-.225,
-.371582,-.264071,
-.361431,-.301955,
-.344856,-.3375,
-.32236,-.369627,
-.294627,-.39736,
-.2625,-.419856,
-.226955,-.436431,
-.189071,-.446582,
-.15,-.45,
.15,-.45,
.189071,-.446582,
.226955,-.436431,
.2625,-.419856,
.294627,-.39736,
.32236,-.369627,
.344856,-.3375,
.361431,-.301955,
.371582,-.264071,
.375,-.225,
.375,.225,
.371582,.264071,
.361431,.301955,
.344856,.3375,
.32236,.369627,
.294627,.39736,
.2625,.419856,
.226955,.436431,
.189071,.446582,
.15,.45,
0.0,.45,
0.0*
%
%ADD54MACRO54*%
%AMMACRO40*
4,1,41,-.325,0.0,
-.325,-.135,
-.322189,-.167125,
-.313843,-.198274,
-.300215,-.2275,
-.281718,-.253916,
-.258916,-.276718,
-.2325,-.295215,
-.203274,-.308843,
-.172125,-.317189,
-.14,-.32,
.14,-.32,
.172125,-.317189,
.203274,-.308843,
.2325,-.295215,
.258916,-.276718,
.281718,-.253916,
.300215,-.2275,
.313843,-.198274,
.322189,-.167125,
.325,-.135,
.325,.135,
.322189,.167125,
.313843,.198274,
.300215,.2275,
.281718,.253916,
.258916,.276718,
.2325,.295215,
.203274,.308843,
.172125,.317189,
.14,.32,
-.14,.32,
-.172125,.317189,
-.203274,.308843,
-.2325,.295215,
-.258916,.276718,
-.281718,.253916,
-.300215,.2275,
-.313843,.198274,
-.322189,.167125,
-.325,.135,
-.325,0.0,
0.0*
%
%ADD40MACRO40*%
%AMMACRO53*
4,1,45,0.0,.625,
-.262,.625,
-.307658,.62121,
-.351964,.609549,
-.393572,.590371,
-.431218,.56426,
-.463757,.532008,
-.490202,.494596,
-.509749,.45316,
-.521803,.40896,
-.525999,.363337,
-.526,.363,
-.526,-.363,
-.521863,-.408628,
-.509865,-.452844,
-.490372,-.494305,
-.463975,-.531751,
-.431477,-.564044,
-.393865,-.590204,
-.352281,-.609435,
-.30799,-.621153,
-.262337,-.625001,
-.262,-.625,
.262,-.625,
.307658,-.62121,
.351964,-.609549,
.393572,-.590371,
.431218,-.56426,
.463757,-.532008,
.490202,-.494596,
.509749,-.45316,
.521803,-.40896,
.525999,-.363337,
.526,-.363,
.526,.363,
.521863,.408628,
.509865,.452844,
.490372,.494305,
.463975,.531751,
.431477,.564044,
.393865,.590204,
.352281,.609435,
.30799,.621153,
.262337,.625001,
.262,.625,
0.0,.625,
0.0*
%
%ADD53MACRO53*%
%AMMACRO49*
4,1,6,2.275,1.275,
2.275,2.275,
-2.275,2.275,
-2.275,-2.275,
-1.275,-2.275,
-1.275,1.275,
2.275,1.275,
0.0*
%
%ADD49MACRO49*%
%AMMACRO48*
4,1,6,1.275,-2.275,
2.275,-2.275,
2.275,2.275,
-2.275,2.275,
-2.275,1.275,
1.275,1.275,
1.275,-2.275,
0.0*
%
%ADD48MACRO48*%
%AMMACRO43*
4,1,41,.5,0.0,
.5,.256,
.49672,.293989,
.486894,.330832,
.470819,.365409,
.448983,.396669,
.422052,.423662,
.390842,.445569,
.356303,.461723,
.319483,.471634,
.282,.475,
-.282,.475,
-.319974,.471546,
-.356771,.461551,
-.391274,.445318,
-.422434,.42334,
-.449304,.396285,
-.471067,.364976,
-.487063,.330363,
-.496806,.293498,
-.5,.256,
-.5,-.256,
-.49672,-.293989,
-.486894,-.330832,
-.470819,-.365409,
-.448983,-.396669,
-.422052,-.423662,
-.390842,-.445569,
-.356303,-.461723,
-.319483,-.471634,
-.282,-.475,
.282,-.475,
.319974,-.471546,
.356771,-.461551,
.391274,-.445318,
.422434,-.42334,
.449304,-.396285,
.471067,-.364976,
.487063,-.330363,
.496806,-.293498,
.5,-.256,
.5,0.0,
0.0*
%
%ADD43MACRO43*%
%AMMACRO33*
4,1,45,-.375,0.0,
-.375,-.088,
-.373964,-.098845,
-.37106,-.109346,
-.366377,-.119183,
-.360057,-.128057,
-.352292,-.135699,
-.343318,-.141876,
-.333407,-.146402,
-.322862,-.149137,
-.312001,-.15,
-.312,-.15,
.312,-.15,
.322861,-.149137,
.333406,-.146402,
.343317,-.141877,
.352291,-.1357,
.360056,-.128058,
.366376,-.119184,
.37106,-.109347,
.373964,-.098847,
.375,-.088001,
.375,-.088,
.375,.088,
.373964,.098845,
.37106,.109346,
.366377,.119183,
.360057,.128057,
.352292,.135699,
.343318,.141876,
.333407,.146402,
.322862,.149137,
.312001,.15,
.312,.15,
-.312,.15,
-.322861,.149137,
-.333406,.146402,
-.343317,.141877,
-.352291,.1357,
-.360056,.128058,
-.366376,.119184,
-.37106,.109347,
-.373964,.098847,
-.375,.088001,
-.375,.088,
-.375,0.0,
0.0*
%
%ADD33MACRO33*%
%AMMACRO39*
4,1,41,0.0,-.5,
.256,-.5,
.293989,-.49672,
.330832,-.486894,
.365409,-.470819,
.396669,-.448983,
.423662,-.422052,
.445569,-.390842,
.461723,-.356303,
.471634,-.319483,
.475,-.282,
.475,.282,
.471546,.319974,
.461551,.356771,
.445318,.391274,
.42334,.422434,
.396285,.449304,
.364976,.471067,
.330363,.487063,
.293498,.496806,
.256,.5,
-.256,.5,
-.293989,.49672,
-.330832,.486894,
-.365409,.470819,
-.396669,.448983,
-.423662,.422052,
-.445569,.390842,
-.461723,.356303,
-.471634,.319483,
-.475,.282,
-.475,-.282,
-.471546,-.319974,
-.461551,-.356771,
-.445318,-.391274,
-.42334,-.422434,
-.396285,-.449304,
-.364976,-.471067,
-.330363,-.487063,
-.293498,-.496806,
-.256,-.5,
0.0,-.5,
0.0*
%
%ADD39MACRO39*%
%AMMACRO78*
4,1,22,.4,.15,
-.325,.15,
-.338024,.148861,
-.350652,.145477,
-.3625,.139952,
-.373209,.132453,
-.382453,.123209,
-.389952,.1125,
-.395477,.100652,
-.398861,.088024,
-.4,.075,
-.4,-.075,
-.398861,-.088024,
-.395477,-.100652,
-.389952,-.1125,
-.382453,-.123209,
-.373209,-.132453,
-.3625,-.139952,
-.350652,-.145477,
-.338024,-.148861,
-.325,-.15,
.4,-.15,
.4,.15,
0.0*
%
%ADD78MACRO78*%
%AMMACRO52*
4,1,44,-.188,.45,
.188,.45,
.22062,.447175,
.252253,.438729,
.281939,.424918,
.308776,.406162,
.331949,.38303,
.350752,.356227,
.364615,.326565,
.373118,.294946,
.376,.262332,
.376,.262,
.376,-.262,
.373175,-.29462,
.364729,-.326253,
.350918,-.355939,
.332162,-.382776,
.30903,-.405949,
.282227,-.424752,
.252565,-.438615,
.220946,-.447118,
.188332,-.45,
.188,-.45,
-.188,-.45,
-.22062,-.447175,
-.252253,-.438729,
-.281939,-.424918,
-.308776,-.406162,
-.331949,-.38303,
-.350752,-.356227,
-.364615,-.326565,
-.373118,-.294946,
-.376,-.262332,
-.376,-.262,
-.376,.262,
-.373175,.29462,
-.364729,.326253,
-.350918,.355939,
-.332162,.382776,
-.30903,.405949,
-.282227,.424752,
-.252565,.438615,
-.220946,.447118,
-.188332,.45,
-.188,.45,
0.0*
%
%ADD52MACRO52*%
%AMMACRO28*
4,1,40,-.16,.325,
.16,.325,
.187784,.322569,
.214723,.315351,
.24,.303564,
.262846,.287567,
.282567,.267846,
.298564,.245,
.310351,.219723,
.317569,.192784,
.32,.165,
.32,-.165,
.317569,-.192784,
.310351,-.219723,
.298564,-.245,
.282567,-.267846,
.262846,-.287567,
.24,-.303564,
.214723,-.315351,
.187784,-.322569,
.16,-.325,
-.16,-.325,
-.187784,-.322569,
-.214723,-.315351,
-.24,-.303564,
-.262846,-.287567,
-.282567,-.267846,
-.298564,-.245,
-.310351,-.219723,
-.317569,-.192784,
-.32,-.165,
-.32,.165,
-.317569,.192784,
-.310351,.219723,
-.298564,.245,
-.282567,.267846,
-.262846,.287567,
-.24,.303564,
-.214723,.315351,
-.187784,.322569,
-.16,.325,
0.0*
%
%ADD28MACRO28*%
%AMMACRO25*
4,1,40,-.325,-.16,
-.325,.16,
-.322569,.187784,
-.315351,.214723,
-.303564,.24,
-.287567,.262846,
-.267846,.282567,
-.245,.298564,
-.219723,.310351,
-.192784,.317569,
-.165,.32,
.165,.32,
.192784,.317569,
.219723,.310351,
.245,.298564,
.267846,.282567,
.287567,.262846,
.303564,.24,
.315351,.214723,
.322569,.187784,
.325,.16,
.325,-.16,
.322569,-.187784,
.315351,-.214723,
.303564,-.24,
.287567,-.262846,
.267846,-.282567,
.245,-.298564,
.219723,-.310351,
.192784,-.317569,
.165,-.32,
-.165,-.32,
-.192784,-.317569,
-.219723,-.310351,
-.245,-.298564,
-.267846,-.282567,
-.287567,-.262846,
-.303564,-.24,
-.315351,-.214723,
-.322569,-.187784,
-.325,-.16,
0.0*
%
%ADD25MACRO25*%
%AMMACRO76*
4,1,22,.15,-.4,
.15,.325,
.148861,.338024,
.145477,.350652,
.139952,.3625,
.132453,.373209,
.123209,.382453,
.1125,.389952,
.100652,.395477,
.088024,.398861,
.075,.4,
-.075,.4,
-.088024,.398861,
-.100652,.395477,
-.1125,.389952,
-.123209,.382453,
-.132453,.373209,
-.139952,.3625,
-.145477,.350652,
-.148861,.338024,
-.15,.325,
-.15,-.4,
.15,-.4,
0.0*
%
%ADD76MACRO76*%
%AMMACRO51*
4,1,40,.676,.239,
.676,-.239,
.672069,-.280271,
.661031,-.320231,
.643221,-.357669,
.619181,-.391444,
.589641,-.420532,
.555499,-.444049,
.517792,-.46128,
.477666,-.471701,
.437,-.475,
-.437,-.475,
-.478317,-.47159,
-.518414,-.461058,
-.556073,-.443723,
-.59015,-.420111,
-.619609,-.390941,
-.643555,-.357099,
-.66126,-.319613,
-.672187,-.279621,
-.676,-.239,
-.676,.239,
-.672069,.280271,
-.661031,.320231,
-.643221,.357669,
-.619181,.391444,
-.589641,.420532,
-.555499,.444049,
-.517792,.46128,
-.477666,.471701,
-.437,.475,
.437,.475,
.478317,.47159,
.518414,.461058,
.556073,.443723,
.59015,.420111,
.619609,.390941,
.643555,.357099,
.66126,.319613,
.672187,.279621,
.676,.239,
0.0*
%
%ADD51MACRO51*%
%AMMACRO19*
4,1,45,-.376,0.0,
-.376,-.206,
-.373522,-.235432,
-.365972,-.263987,
-.353577,-.290796,
-.336715,-.315046,
-.315899,-.336,
-.29176,-.353021,
-.265032,-.365591,
-.236528,-.373329,
-.207113,-.376,
-.206,-.376,
.206,-.376,
.235432,-.373522,
.263987,-.365972,
.290796,-.353577,
.315046,-.336715,
.336,-.315899,
.353021,-.29176,
.365591,-.265032,
.373329,-.236528,
.376,-.207113,
.376,-.206,
.376,.206,
.373522,.235432,
.365972,.263987,
.353577,.290796,
.336715,.315046,
.315899,.336,
.29176,.353021,
.265032,.365591,
.236528,.373329,
.207113,.376,
.206,.376,
-.206,.376,
-.235432,.373522,
-.263987,.365972,
-.290796,.353577,
-.315046,.336715,
-.336,.315899,
-.353021,.29176,
-.365591,.265032,
-.373329,.236528,
-.376,.207113,
-.376,.206,
-.376,0.0,
0.0*
%
%ADD19MACRO19*%
%ADD56O,.9X.3*%
%ADD57O,.3X.9*%
%ADD34R,1.65X2.5*%
%AMMACRO67*
4,1,14,-.85,-.3,
-.85,.3,
.85,.3,
.85,-.3,
.49,-.3,
.395732,-.222508,
.28944,-.162564,
.174353,-.121987,
.053969,-.102012,
-.068055,-.103244,
-.188012,-.125647,
-.302255,-.16854,
-.407315,-.230619,
-.49,-.3,
-.85,-.3,
0.0*
%
%ADD67MACRO67*%
%AMMACRO18*
4,1,45,0.0,-.7,
.212,-.7,
.261931,-.695719,
.310361,-.682833,
.355817,-.661732,
.396918,-.633059,
.432416,-.597684,
.461232,-.556683,
.482491,-.511301,
.495545,-.462916,
.5,-.413,
.5,-.412,
.5,.412,
.495719,.461931,
.482833,.510361,
.461732,.555817,
.433059,.596918,
.397684,.632416,
.356683,.661232,
.311301,.682491,
.262916,.695545,
.213,.7,
.212,.7,
-.212,.7,
-.261931,.695719,
-.310361,.682833,
-.355817,.661732,
-.396918,.633059,
-.432416,.597684,
-.461232,.556683,
-.482491,.511301,
-.495545,.462916,
-.5,.413,
-.5,.412,
-.5,-.412,
-.495719,-.461931,
-.482833,-.510361,
-.461732,-.555817,
-.433059,-.596918,
-.397684,-.632416,
-.356683,-.661232,
-.311301,-.682491,
-.262916,-.695545,
-.213,-.7,
-.212,-.7,
0.0,-.7,
0.0*
%
%ADD18MACRO18*%
%AMMACRO63*
4,1,41,0.0,.65,
-.225,.65,
-.264071,.646582,
-.301955,.636431,
-.3375,.619856,
-.369627,.59736,
-.39736,.569627,
-.419856,.5375,
-.436431,.501955,
-.446582,.464071,
-.45,.425,
-.45,-.425,
-.446582,-.464071,
-.436431,-.501955,
-.419856,-.5375,
-.39736,-.569627,
-.369627,-.59736,
-.3375,-.619856,
-.301955,-.636431,
-.264071,-.646582,
-.225,-.65,
.225,-.65,
.264071,-.646582,
.301955,-.636431,
.3375,-.619856,
.369627,-.59736,
.39736,-.569627,
.419856,-.5375,
.436431,-.501955,
.446582,-.464071,
.45,-.425,
.45,.425,
.446582,.464071,
.436431,.501955,
.419856,.5375,
.39736,.569627,
.369627,.59736,
.3375,.619856,
.301955,.636431,
.264071,.646582,
.225,.65,
0.0,.65,
0.0*
%
%ADD63MACRO63*%
%AMMACRO17*
4,1,41,-.65,0.0,
-.65,-.225,
-.646582,-.264071,
-.636431,-.301955,
-.619856,-.3375,
-.59736,-.369627,
-.569627,-.39736,
-.5375,-.419856,
-.501955,-.436431,
-.464071,-.446582,
-.425,-.45,
.425,-.45,
.464071,-.446582,
.501955,-.436431,
.5375,-.419856,
.569627,-.39736,
.59736,-.369627,
.619856,-.3375,
.636431,-.301955,
.646582,-.264071,
.65,-.225,
.65,.225,
.646582,.264071,
.636431,.301955,
.619856,.3375,
.59736,.369627,
.569627,.39736,
.5375,.419856,
.501955,.436431,
.464071,.446582,
.425,.45,
-.425,.45,
-.464071,.446582,
-.501955,.436431,
-.5375,.419856,
-.569627,.39736,
-.59736,.369627,
-.619856,.3375,
-.636431,.301955,
-.646582,.264071,
-.65,.225,
-.65,0.0,
0.0*
%
%ADD17MACRO17*%
%AMMACRO69*
4,1,45,.25,0.0,
.25,.062,
.247998,.085884,
.241879,.109058,
.231828,.130817,
.218153,.1505,
.201266,.16751,
.181683,.181328,
.159998,.191537,
.136869,.197824,
.113,.2,
.112,.2,
-.112,.2,
-.135884,.197998,
-.159058,.191879,
-.180817,.181828,
-.2005,.168153,
-.21751,.151266,
-.231328,.131683,
-.241537,.109998,
-.247824,.086869,
-.25,.063,
-.25,.062,
-.25,-.062,
-.247998,-.085884,
-.241879,-.109058,
-.231828,-.130817,
-.218153,-.1505,
-.201266,-.16751,
-.181683,-.181328,
-.159998,-.191537,
-.136869,-.197824,
-.113,-.2,
-.112,-.2,
.112,-.2,
.135884,-.197998,
.159058,-.191879,
.180817,-.181828,
.2005,-.168153,
.21751,-.151266,
.231328,-.131683,
.241537,-.109998,
.247824,-.086869,
.25,-.063,
.25,-.062,
.25,0.0,
0.0*
%
%ADD69MACRO69*%
%AMMACRO66*
4,1,41,2.75,0.0,
2.75,.325,
2.745063,.381436,
2.7304,.436157,
2.706458,.4875,
2.673964,.533906,
2.633906,.573964,
2.5875,.606458,
2.536157,.6304,
2.481436,.645063,
2.425,.65,
-2.425,.65,
-2.481436,.645063,
-2.536157,.6304,
-2.5875,.606458,
-2.633906,.573964,
-2.673964,.533906,
-2.706458,.4875,
-2.7304,.436157,
-2.745063,.381436,
-2.75,.325,
-2.75,-.325,
-2.745063,-.381436,
-2.7304,-.436157,
-2.706458,-.4875,
-2.673964,-.533906,
-2.633906,-.573964,
-2.5875,-.606458,
-2.536157,-.6304,
-2.481436,-.645063,
-2.425,-.65,
2.425,-.65,
2.481436,-.645063,
2.536157,-.6304,
2.5875,-.606458,
2.633906,-.573964,
2.673964,-.533906,
2.706458,-.4875,
2.7304,-.436157,
2.745063,-.381436,
2.75,-.325,
2.75,0.0,
0.0*
%
%ADD66MACRO66*%
%AMMACRO31*
4,1,42,0.0,-1.05,
.362,-1.05,
.424955,-1.04458,
.486012,-1.02831,
.543317,-1.001684,
.595127,-.965513,
.63987,-.920894,
.676184,-.869183,
.702968,-.811952,
.719406,-.75094,
.725,-.688,
.725,.688,
.719406,.75094,
.702968,.811952,
.676184,.869183,
.63987,.920894,
.595127,.965513,
.543317,1.001684,
.486012,1.02831,
.424955,1.04458,
.362,1.05,
-.362,1.05,
-.424955,1.04458,
-.486012,1.02831,
-.543317,1.001684,
-.595127,.965513,
-.63987,.920894,
-.676184,.869183,
-.702968,.811952,
-.719406,.75094,
-.725,.688,
-.725,.688,
-.725,-.688,
-.719406,-.75094,
-.702968,-.811952,
-.676184,-.869183,
-.63987,-.920894,
-.595127,-.965513,
-.543317,-1.001684,
-.486012,-1.02831,
-.424955,-1.04458,
-.362,-1.05,
0.0,-1.05,
0.0*
%
%ADD31MACRO31*%
%AMMACRO60*
4,1,41,.45,0.0,
.45,.05,
.44924,.058682,
.446985,.067101,
.443301,.075,
.438302,.082139,
.432139,.088302,
.425,.093301,
.417101,.096985,
.408682,.09924,
.4,.1,
-.4,.1,
-.408682,.09924,
-.417101,.096985,
-.425,.093301,
-.432139,.088302,
-.438302,.082139,
-.443301,.075,
-.446985,.067101,
-.44924,.058682,
-.45,.05,
-.45,-.05,
-.44924,-.058682,
-.446985,-.067101,
-.443301,-.075,
-.438302,-.082139,
-.432139,-.088302,
-.425,-.093301,
-.417101,-.096985,
-.408682,-.09924,
-.4,-.1,
.4,-.1,
.408682,-.09924,
.417101,-.096985,
.425,-.093301,
.432139,-.088302,
.438302,-.082139,
.443301,-.075,
.446985,-.067101,
.44924,-.058682,
.45,-.05,
.45,0.0,
0.0*
%
%ADD60MACRO60*%
%AMMACRO30*
4,1,41,0.0,-.95,
.35,-.95,
.410777,-.944683,
.469707,-.928892,
.525,-.903109,
.574976,-.868116,
.618116,-.824976,
.653109,-.775,
.678892,-.719707,
.694683,-.660777,
.7,-.6,
.7,.6,
.694683,.660777,
.678892,.719707,
.653109,.775,
.618116,.824976,
.574976,.868116,
.525,.903109,
.469707,.928892,
.410777,.944683,
.35,.95,
-.35,.95,
-.410777,.944683,
-.469707,.928892,
-.525,.903109,
-.574976,.868116,
-.618116,.824976,
-.653109,.775,
-.678892,.719707,
-.694683,.660777,
-.7,.6,
-.7,-.6,
-.694683,-.660777,
-.678892,-.719707,
-.653109,-.775,
-.618116,-.824976,
-.574976,-.868116,
-.525,-.903109,
-.469707,-.928892,
-.410777,-.944683,
-.35,-.95,
0.0,-.95,
0.0*
%
%ADD30MACRO30*%
%AMMACRO73*
4,1,41,0.0,-.225,
.05,-.225,
.067365,-.223481,
.084202,-.218969,
.1,-.211603,
.114279,-.201604,
.126604,-.189279,
.136603,-.175,
.143969,-.159202,
.148481,-.142365,
.15,-.125,
.15,.125,
.148481,.142365,
.143969,.159202,
.136603,.175,
.126604,.189279,
.114279,.201604,
.1,.211603,
.084202,.218969,
.067365,.223481,
.05,.225,
-.05,.225,
-.067365,.223481,
-.084202,.218969,
-.1,.211603,
-.114279,.201604,
-.126604,.189279,
-.136603,.175,
-.143969,.159202,
-.148481,.142365,
-.15,.125,
-.15,-.125,
-.148481,-.142365,
-.143969,-.159202,
-.136603,-.175,
-.126604,-.189279,
-.114279,-.201604,
-.1,-.211603,
-.084202,-.218969,
-.067365,-.223481,
-.05,-.225,
0.0,-.225,
0.0*
%
%ADD73MACRO73*%
%AMMACRO62*
4,1,41,.325,0.0,
.325,.05,
.32424,.058682,
.321985,.067101,
.318301,.075,
.313302,.082139,
.307139,.088302,
.3,.093301,
.292101,.096985,
.283682,.09924,
.275,.1,
-.275,.1,
-.283682,.09924,
-.292101,.096985,
-.3,.093301,
-.307139,.088302,
-.313302,.082139,
-.318301,.075,
-.321985,.067101,
-.32424,.058682,
-.325,.05,
-.325,-.05,
-.32424,-.058682,
-.321985,-.067101,
-.318301,-.075,
-.313302,-.082139,
-.307139,-.088302,
-.3,-.093301,
-.292101,-.096985,
-.283682,-.09924,
-.275,-.1,
.275,-.1,
.283682,-.09924,
.292101,-.096985,
.3,-.093301,
.307139,-.088302,
.313302,-.082139,
.318301,-.075,
.321985,-.067101,
.32424,-.058682,
.325,-.05,
.325,0.0,
0.0*
%
%ADD62MACRO62*%
%AMMACRO59*
4,1,45,.225,0.0,
.225,.062,
.224137,.072861,
.221402,.083406,
.216877,.093317,
.210699,.102291,
.203057,.110056,
.194183,.116377,
.184346,.12106,
.173845,.123964,
.163,.125,
.162,.125,
-.162,.125,
-.172861,.124137,
-.183406,.121402,
-.193317,.116877,
-.202291,.110699,
-.210056,.103057,
-.216377,.094183,
-.22106,.084346,
-.223964,.073845,
-.225,.063,
-.225,.062,
-.225,-.062,
-.224137,-.072861,
-.221402,-.083406,
-.216877,-.093317,
-.210699,-.102291,
-.203057,-.110056,
-.194183,-.116377,
-.184346,-.12106,
-.173845,-.123964,
-.163,-.125,
-.162,-.125,
.162,-.125,
.172861,-.124137,
.183406,-.121402,
.193317,-.116877,
.202291,-.110699,
.210056,-.103057,
.216377,-.094183,
.22106,-.084346,
.223964,-.073845,
.225,-.063,
.225,-.062,
.225,0.0,
0.0*
%
%ADD59MACRO59*%
%AMMACRO12*
4,1,40,.262,.11,
.259873,.134311,
.253557,.157883,
.243244,.18,
.229246,.19999,
.21199,.217246,
.192,.231244,
.169883,.241557,
.146311,.247873,
.122,.25,
-.122,.25,
-.146311,.247873,
-.169883,.241557,
-.192,.231244,
-.21199,.217246,
-.229246,.19999,
-.243244,.18,
-.253557,.157883,
-.259873,.134311,
-.262,.11,
-.262,-.11,
-.259873,-.134311,
-.253557,-.157883,
-.243244,-.18,
-.229246,-.19999,
-.21199,-.217246,
-.192,-.231244,
-.169883,-.241557,
-.146311,-.247873,
-.122,-.25,
.122,-.25,
.146311,-.247873,
.169883,-.241557,
.192,-.231244,
.21199,-.217246,
.229246,-.19999,
.243244,-.18,
.253557,-.157883,
.259873,-.134311,
.262,-.11,
.262,.11,
0.0*
%
%ADD12MACRO12*%
%AMMACRO70*
4,1,44,.899,-.249,
.899,.249,
.895439,.292374,
.8844,.33447,
.866218,.37401,
.841447,.409793,
.810839,.44073,
.775323,.465882,
.73598,.484485,
.694004,.495973,
.65067,.499997,
.65,.5,
-.65,.5,
-.693344,.496092,
-.735351,.484716,
-.774744,.466219,
-.810327,.441163,
-.841018,.410308,
-.865886,.374592,
-.884173,.335101,
-.895325,.293034,
-.899003,.24967,
-.899,.249,
-.899,-.249,
-.895439,-.292374,
-.8844,-.33447,
-.866218,-.37401,
-.841447,-.409793,
-.810839,-.44073,
-.775323,-.465882,
-.73598,-.484485,
-.694004,-.495973,
-.65067,-.499997,
-.65,-.5,
.65,-.5,
.693344,-.496092,
.735351,-.484716,
.774744,-.466219,
.810327,-.441163,
.841018,-.410308,
.865886,-.374592,
.884173,-.335101,
.895325,-.293034,
.899003,-.24967,
.899,-.249,
0.0*
%
%ADD70MACRO70*%
%AMMACRO22*
4,1,40,.11,-.262,
.134311,-.259873,
.157883,-.253557,
.18,-.243244,
.19999,-.229246,
.217246,-.21199,
.231244,-.192,
.241557,-.169883,
.247873,-.146311,
.25,-.122,
.25,.122,
.247873,.146311,
.241557,.169883,
.231244,.192,
.217246,.21199,
.19999,.229246,
.18,.243244,
.157883,.253557,
.134311,.259873,
.11,.262,
-.11,.262,
-.134311,.259873,
-.157883,.253557,
-.18,.243244,
-.19999,.229246,
-.217246,.21199,
-.231244,.192,
-.241557,.169883,
-.247873,.146311,
-.25,.122,
-.25,-.122,
-.247873,-.146311,
-.241557,-.169883,
-.231244,-.192,
-.217246,-.21199,
-.19999,-.229246,
-.18,-.243244,
-.157883,-.253557,
-.134311,-.259873,
-.11,-.262,
.11,-.262,
0.0*
%
%ADD22MACRO22*%
%AMMACRO38*
4,1,6,-1.275,2.275,
-2.275,2.275,
-2.275,-2.275,
2.275,-2.275,
2.275,-1.275,
-1.275,-1.275,
-1.275,2.275,
0.0*
%
%ADD38MACRO38*%
%AMMACRO37*
4,1,6,-2.275,-1.275,
-2.275,-2.275,
2.275,-2.275,
2.275,2.275,
1.275,2.275,
1.275,-1.275,
-2.275,-1.275,
0.0*
%
%ADD37MACRO37*%
%AMMACRO35*
4,1,41,1.9,0.0,
1.9,.25,
1.896202,.293412,
1.884923,.335505,
1.866506,.375,
1.841511,.410697,
1.810697,.441511,
1.775,.466506,
1.735505,.484923,
1.693412,.496202,
1.65,.5,
-1.65,.5,
-1.693412,.496202,
-1.735505,.484923,
-1.775,.466506,
-1.810697,.441511,
-1.841511,.410697,
-1.866506,.375,
-1.884923,.335505,
-1.896202,.293412,
-1.9,.25,
-1.9,-.25,
-1.896202,-.293412,
-1.884923,-.335505,
-1.866506,-.375,
-1.841511,-.410697,
-1.810697,-.441511,
-1.775,-.466506,
-1.735505,-.484923,
-1.693412,-.496202,
-1.65,-.5,
1.65,-.5,
1.693412,-.496202,
1.735505,-.484923,
1.775,-.466506,
1.810697,-.441511,
1.841511,-.410697,
1.866506,-.375,
1.884923,-.335505,
1.896202,-.293412,
1.9,-.25,
1.9,0.0,
0.0*
%
%ADD35MACRO35*%
%AMMACRO55*
4,1,41,.45,0.0,
.45,.15,
.446582,.189071,
.436431,.226955,
.419856,.2625,
.39736,.294627,
.369627,.32236,
.3375,.344856,
.301955,.361431,
.264071,.371582,
.225,.375,
-.225,.375,
-.264071,.371582,
-.301955,.361431,
-.3375,.344856,
-.369627,.32236,
-.39736,.294627,
-.419856,.2625,
-.436431,.226955,
-.446582,.189071,
-.45,.15,
-.45,-.15,
-.446582,-.189071,
-.436431,-.226955,
-.419856,-.2625,
-.39736,-.294627,
-.369627,-.32236,
-.3375,-.344856,
-.301955,-.361431,
-.264071,-.371582,
-.225,-.375,
.225,-.375,
.264071,-.371582,
.301955,-.361431,
.3375,-.344856,
.369627,-.32236,
.39736,-.294627,
.419856,-.2625,
.436431,-.226955,
.446582,-.189071,
.45,-.15,
.45,0.0,
0.0*
%
%ADD55MACRO55*%
%AMMACRO41*
4,1,41,.325,0.0,
.325,.135,
.322189,.167125,
.313843,.198274,
.300215,.2275,
.281718,.253916,
.258916,.276718,
.2325,.295215,
.203274,.308843,
.172125,.317189,
.14,.32,
-.14,.32,
-.172125,.317189,
-.203274,.308843,
-.2325,.295215,
-.258916,.276718,
-.281718,.253916,
-.300215,.2275,
-.313843,.198274,
-.322189,.167125,
-.325,.135,
-.325,-.135,
-.322189,-.167125,
-.313843,-.198274,
-.300215,-.2275,
-.281718,-.253916,
-.258916,-.276718,
-.2325,-.295215,
-.203274,-.308843,
-.172125,-.317189,
-.14,-.32,
.14,-.32,
.172125,-.317189,
.203274,-.308843,
.2325,-.295215,
.258916,-.276718,
.281718,-.253916,
.300215,-.2275,
.313843,-.198274,
.322189,-.167125,
.325,-.135,
.325,0.0,
0.0*
%
%ADD41MACRO41*%
%AMMACRO36*
4,1,41,0.0,-1.9,
.25,-1.9,
.293412,-1.896202,
.335505,-1.884923,
.375,-1.866506,
.410697,-1.841511,
.441511,-1.810697,
.466506,-1.775,
.484923,-1.735505,
.496202,-1.693412,
.5,-1.65,
.5,1.65,
.496202,1.693412,
.484923,1.735505,
.466506,1.775,
.441511,1.810697,
.410697,1.841511,
.375,1.866506,
.335505,1.884923,
.293412,1.896202,
.25,1.9,
-.25,1.9,
-.293412,1.896202,
-.335505,1.884923,
-.375,1.866506,
-.410697,1.841511,
-.441511,1.810697,
-.466506,1.775,
-.484923,1.735505,
-.496202,1.693412,
-.5,1.65,
-.5,-1.65,
-.496202,-1.693412,
-.484923,-1.735505,
-.466506,-1.775,
-.441511,-1.810697,
-.410697,-1.841511,
-.375,-1.866506,
-.335505,-1.884923,
-.293412,-1.896202,
-.25,-1.9,
0.0,-1.9,
0.0*
%
%ADD36MACRO36*%
%AMMACRO29*
4,1,41,0.0,-.201,
.081,-.201,
.092997,-.199933,
.104627,-.196799,
.115536,-.191694,
.125392,-.184771,
.133897,-.176242,
.140792,-.166366,
.145866,-.155443,
.148967,-.143804,
.15,-.132,
.15,.132,
.148936,.143995,
.145805,.155623,
.140702,.166531,
.133783,.176387,
.125257,.184892,
.115384,.191787,
.104464,.196863,
.092829,.199965,
.081,.201,
-.081,.201,
-.092997,.199933,
-.104627,.196799,
-.115536,.191694,
-.125392,.184771,
-.133897,.176242,
-.140792,.166366,
-.145866,.155443,
-.148967,.143804,
-.15,.132,
-.15,-.132,
-.148936,-.143995,
-.145805,-.155623,
-.140702,-.166531,
-.133783,-.176387,
-.125257,-.184892,
-.115384,-.191787,
-.104464,-.196863,
-.092829,-.199965,
-.081,-.201,
0.0,-.201,
0.0*
%
%ADD29MACRO29*%
%ADD21O,.899X.399*%
%AMMACRO50*
4,1,40,.162,.6,
-.162,.6,
-.190225,.597618,
-.217608,.590371,
-.243317,.578479,
-.26657,.562304,
-.286661,.542336,
-.302979,.519183,
-.315029,.493548,
-.322444,.46621,
-.325,.438,
-.325,-.438,
-.322444,-.46621,
-.315029,-.493548,
-.302979,-.519183,
-.286661,-.542336,
-.26657,-.562304,
-.243317,-.578479,
-.217608,-.590371,
-.190225,-.597618,
-.162,-.6,
.162,-.6,
.190225,-.597618,
.217608,-.590371,
.243317,-.578479,
.26657,-.562304,
.286661,-.542336,
.302979,-.519183,
.315029,-.493548,
.322444,-.46621,
.325,-.438,
.325,.438,
.322444,.46621,
.315029,.493548,
.302979,.519183,
.286661,.542336,
.26657,.562304,
.243317,.578479,
.217608,.590371,
.190225,.597618,
.162,.6,
0.0*
%
%ADD50MACRO50*%
%ADD81C,.099*%
G75*
%LPD*%
G75*
G54D10*
X20200000Y20520000D03*
X20550000Y29380000D03*
X24485000Y20965000D03*
G54D20*
X21530000Y26390000D03*
X21490100D03*
X21450000D03*
X21410100D03*
X21370000D03*
X21330100D03*
X21290000D03*
X21250100D03*
X21210000D03*
X21170100D03*
X21130000D03*
X21090100D03*
X21049900D03*
X21010100D03*
X20969900D03*
X20930000D03*
X20889900D03*
X20850000D03*
X20809900D03*
X20770000D03*
X20729900D03*
X20690000D03*
X20649900D03*
X20610000D03*
X20569900D03*
X20530000D03*
Y27930000D03*
X20569900D03*
X20610000D03*
X20649900D03*
X20690000D03*
X20729900D03*
X20770000D03*
X20809900D03*
X20850000D03*
X20889900D03*
X20930000D03*
X20969900D03*
X21010100D03*
X21049900D03*
X21090100D03*
X21130000D03*
X21170100D03*
X21210000D03*
X21250100D03*
X21290000D03*
X21330100D03*
X21370000D03*
X21410100D03*
X21450000D03*
X21490100D03*
X21530000D03*
X21770000Y26390000D03*
X21729900D03*
X21690000D03*
X21649900D03*
X21610000D03*
X21569900D03*
Y27930000D03*
X21610000D03*
X21649900D03*
X21690000D03*
X21729900D03*
X21770000D03*
G54D11*
X21570000Y21810000D03*
Y21970000D03*
G54D21*
X21210000Y26100000D03*
Y26165000D03*
Y26230000D03*
X21430000D03*
Y26100000D03*
G54D12*
X21270000Y23015000D03*
X21310000Y21970000D03*
X21275000Y23300000D03*
X20437600Y26160000D03*
Y26250000D03*
X20697600Y26160000D03*
X20990000Y26250000D03*
X20370000Y28070000D03*
X21427600Y28090000D03*
X20367600Y28150000D03*
X20137600Y26860000D03*
Y26950000D03*
Y27040000D03*
X21427600Y28190000D03*
X21170000Y28290000D03*
X21220000Y28730000D03*
X20790000Y28500000D03*
X23042600Y20350000D03*
X23080000Y21305000D03*
X22967600Y21195000D03*
X22757600D03*
X22597600Y21895000D03*
X22727600Y22520000D03*
Y22630000D03*
X22970000Y22520000D03*
X22597600Y21695000D03*
X22487600Y21995000D03*
X22922600Y22630000D03*
X22972600Y23150000D03*
X23120000Y22630000D03*
X22717600Y23420000D03*
X22667600Y23750000D03*
Y23630000D03*
X22070000Y25890000D03*
X21920000Y28090000D03*
X22097600Y27480000D03*
Y27840000D03*
X22110000Y27570000D03*
Y27660000D03*
X22097600Y27750000D03*
X21620000Y28090000D03*
Y28190000D03*
X21747600Y29030000D03*
X23772600Y20350000D03*
X23947600Y23180000D03*
X24037600Y22780000D03*
X23730000Y24000000D03*
X23720000Y23520000D03*
X24240000Y25650000D03*
X23400000Y25920000D03*
X25450000Y24660000D03*
G54D30*
X21233800Y29265000D03*
X21046200D03*
G54D22*
X20890000Y26250000D03*
X20530000Y24962400D03*
X20100000Y26420000D03*
X20220000D03*
X20560000Y28220000D03*
X21020000Y28342400D03*
X22970000Y21085000D03*
X23070000Y20995000D03*
X22680000Y21525000D03*
X22970000Y21395000D03*
X22460000Y21525000D03*
X23180000Y21497400D03*
X22860000Y21085000D03*
X22850000Y21395000D03*
X21970000Y22962400D03*
X21710000D03*
X23065000Y22422400D03*
X22970000D03*
X22470000Y21797400D03*
X22690000Y22085000D03*
X22790000Y24262400D03*
X23000000Y24412400D03*
X22700000Y24262400D03*
X22910000Y26110000D03*
Y26282400D03*
X22510000Y26110000D03*
Y26282400D03*
X22110000Y26110000D03*
Y26282400D03*
X22130000Y26820000D03*
X22170000Y27260000D03*
X21830000Y28182400D03*
X22070000Y27260000D03*
X21570000Y28490000D03*
X21750000Y28492400D03*
X21570000Y28902400D03*
X21660000Y28490000D03*
X23775000Y20440000D03*
X23410000Y22025000D03*
X23940000Y22860000D03*
X23330000Y21745000D03*
X23700000Y23130000D03*
Y22972400D03*
X23940000Y23100000D03*
X23720000Y24202400D03*
X24700000Y25792400D03*
G54D31*
X21386200Y29035000D03*
X20893800D03*
G54D40*
X22755000Y20250000D03*
X22845000D03*
X22950000D03*
X23040000D03*
G54D13*
X21362400Y23015000D03*
X21402400Y21970000D03*
X21367400Y23300000D03*
X20530000Y26160000D03*
Y26250000D03*
X20790000Y26160000D03*
X21082400Y26250000D03*
X20462400Y28070000D03*
X21520000Y28090000D03*
X20460000Y28150000D03*
X20230000Y26860000D03*
Y26950000D03*
Y27040000D03*
X21520000Y28190000D03*
X21262400Y28290000D03*
X21312400Y28730000D03*
X20882400Y28500000D03*
X23135000Y20350000D03*
X23172400Y21305000D03*
X23060000Y21195000D03*
X22850000D03*
X22690000Y21895000D03*
X22820000Y22520000D03*
Y22630000D03*
X23062400Y22520000D03*
X22690000Y21695000D03*
X22580000Y21995000D03*
X23015000Y22630000D03*
X23065000Y23150000D03*
X22810000Y23420000D03*
X22760000Y23750000D03*
Y23630000D03*
X22162400Y25890000D03*
X22012400Y28090000D03*
X22190000Y27480000D03*
Y27840000D03*
X22202400Y27570000D03*
Y27660000D03*
X22190000Y27750000D03*
X21712400Y28090000D03*
Y28190000D03*
X21840000Y29030000D03*
X23865000Y20350000D03*
X24040000Y23180000D03*
X24130000Y22780000D03*
X23212400Y22630000D03*
X23822400Y24000000D03*
X23812400Y23520000D03*
X24332400Y25650000D03*
X23492400Y25920000D03*
X25542400Y24660000D03*
G54D50*
X23135000Y22760000D03*
X23015000D03*
X22895000D03*
Y23020000D03*
X23015000D03*
X23135000D03*
G54D41*
X23145000Y20250000D03*
X23235000D03*
G54D14*
X20440000Y21870000D03*
X20380000Y21930000D03*
X23245000Y20855000D03*
G54D23*
X20890000Y26157600D03*
X20530000Y24870000D03*
X20100000Y26327600D03*
X20220000D03*
X20560000Y28127600D03*
X21020000Y28250000D03*
X22970000Y20992600D03*
X23070000Y20902600D03*
X22680000Y21432600D03*
X22970000Y21302600D03*
X22460000Y21432600D03*
X23180000Y21405000D03*
X22860000Y20992600D03*
X22850000Y21302600D03*
X21970000Y22870000D03*
X21710000D03*
X23065000Y22330000D03*
X22970000D03*
X22470000Y21705000D03*
X22690000Y21992600D03*
X22790000Y24170000D03*
X23000000Y24320000D03*
X22700000Y24170000D03*
X22910000Y26017600D03*
Y26190000D03*
X22510000Y26017600D03*
Y26190000D03*
X22110000Y26017600D03*
Y26190000D03*
X22130000Y26727600D03*
X22170000Y27167600D03*
X21830000Y28090000D03*
X22070000Y27167600D03*
X21570000Y28397600D03*
X21750000Y28400000D03*
X21570000Y28810000D03*
X21660000Y28397600D03*
X23775000Y20347600D03*
X23410000Y21932600D03*
X23940000Y22767600D03*
X23330000Y21652600D03*
X23700000Y23037600D03*
Y22880000D03*
X23940000Y23007600D03*
X23720000Y24110000D03*
X24700000Y25700000D03*
G54D32*
X21270000Y29000000D03*
X21205000D03*
X21140000D03*
X21075000D03*
X21010000D03*
G54D60*
X22800000Y26070000D03*
X22000000D03*
X22400000D03*
G54D51*
X23140000Y24500000D03*
Y24340000D03*
G54D33*
X21470000Y28415000D03*
Y28480000D03*
Y28545000D03*
Y28610000D03*
X21170000Y28415000D03*
Y28480000D03*
Y28545000D03*
Y28610000D03*
G54D15*
X20374700Y21804700D03*
X20314700Y21864700D03*
X23179700Y20789700D03*
G54D42*
X21710000Y22750100D03*
Y22600000D03*
X21970000Y22750100D03*
Y22600000D03*
G54D24*
X21080000Y26160000D03*
X20990000D03*
X21550000Y26240000D03*
X22690000Y21795000D03*
X22600000D03*
X21640000Y26240000D03*
G54D70*
X23550000Y23129900D03*
Y22880000D03*
G54D34*
X21320000Y28512500D03*
G54D25*
X20700000Y26250000D03*
X20790000D03*
G54D52*
X22285000Y24700000D03*
X22425000D03*
G54D43*
X23015000Y22970000D03*
Y22810000D03*
G54D61*
X22791000Y26007500D03*
X22751000D03*
X22711000D03*
X22671000D03*
Y26252500D03*
X22711000D03*
X22751000D03*
X22791000D03*
X21991000Y26007500D03*
X21951000D03*
X21911000D03*
X21871000D03*
Y26252500D03*
X21911000D03*
X21951000D03*
X21991000D03*
X22391000Y26007500D03*
X22351000D03*
X22311000D03*
X22271000D03*
Y26252500D03*
X22311000D03*
X22351000D03*
X22391000D03*
G54D16*
X21190000Y21880000D03*
Y21970000D03*
X20240000Y27510000D03*
Y27600000D03*
X22570000Y21435000D03*
Y21525000D03*
G54D35*
X22747500Y20567500D03*
G54D62*
X22649500Y26070000D03*
Y26110000D03*
Y26150000D03*
Y26190000D03*
X22812500D03*
Y26150000D03*
Y26110000D03*
X21849500Y26070000D03*
Y26110000D03*
Y26150000D03*
Y26190000D03*
X22012500D03*
Y26150000D03*
Y26110000D03*
X22249500Y26070000D03*
Y26110000D03*
Y26150000D03*
Y26190000D03*
X22412500D03*
Y26150000D03*
Y26110000D03*
G54D17*
X20400000Y24872500D03*
Y25292500D03*
G54D53*
X22327000Y23370000D03*
Y23593000D03*
X22500000D03*
Y23370000D03*
G54D44*
X23007500Y21840000D03*
G54D80*
X25630000Y24750000D03*
Y25425000D03*
G54D26*
X20379900Y26540100D03*
Y26580000D03*
Y26620100D03*
Y26660000D03*
Y26699900D03*
Y26740000D03*
Y26779900D03*
Y26820000D03*
Y26859900D03*
Y26900000D03*
Y26939900D03*
Y26980000D03*
Y27019900D03*
Y27060000D03*
Y27099900D03*
Y27140100D03*
Y27179900D03*
Y27220100D03*
Y27260000D03*
Y27300100D03*
Y27340000D03*
Y27380100D03*
Y27420000D03*
Y27460100D03*
Y27500000D03*
Y27540100D03*
Y27580000D03*
Y27620100D03*
Y27660000D03*
Y27699900D03*
Y27740000D03*
Y27779900D03*
X21919900D03*
Y27740000D03*
Y27699900D03*
Y27660000D03*
Y27620100D03*
Y27580000D03*
Y27540100D03*
Y27500000D03*
Y27460100D03*
Y27420000D03*
Y27380100D03*
Y27340000D03*
Y27300100D03*
Y27260000D03*
Y27220100D03*
Y27179900D03*
Y27140100D03*
Y27099900D03*
Y27060000D03*
Y27019900D03*
Y26980000D03*
Y26939900D03*
Y26900000D03*
Y26859900D03*
Y26820000D03*
Y26779900D03*
Y26740000D03*
Y26699900D03*
Y26660000D03*
Y26620100D03*
Y26580000D03*
Y26540100D03*
G54D71*
X24570000Y22160000D03*
X24730000D03*
X24570000Y22420000D03*
X24730000D03*
X24570000Y22670000D03*
X24730000D03*
X24570000Y22920000D03*
X24730000D03*
X24790000Y24830000D03*
X24950000D03*
G54D81*
G01X20145000Y17600000D02*
X25710000D01*
G03X25850000Y17745000I-2500J142500D01*
G01Y19315000D01*
X25145000D01*
Y19850000D01*
X24510000D01*
X24509300Y20580000D01*
X25145000D01*
Y20935000D01*
X25415000D01*
Y21115000D01*
X25845000D01*
X25850000Y24450000D01*
G03X25740000Y24765000I-506023J0D01*
G02X25630000Y25080000I396023J315000D01*
G02X25740000Y25395000I506023J0D01*
G03X25850000Y25710000I-396023J315000D01*
G01Y29383800D01*
G03X25703800Y29530000I-146200J0D01*
G01X21580000D01*
Y29410000D01*
X21420000D01*
Y29200000D01*
X21330000D01*
Y29410000D01*
X20950000D01*
Y29200000D01*
X20860000D01*
Y29410000D01*
X20700000D01*
Y29530000D01*
X20146200D01*
G03X20000000Y29383800I0J-146200D01*
G01Y25710000D01*
G03X20110000Y25395000I506023J0D01*
G02X20220000Y25080000I-396023J-315000D01*
G02X20110000Y24765000I-506023J0D01*
G03X20000000Y24450000I396023J-315000D01*
G01Y17745000D01*
G03X20145000Y17600000I144167J-833D01*
G54D36*
X21932500Y21382500D03*
X23562500D03*
G54D63*
X21832500Y29160000D03*
X22252500D03*
G54D18*
X20220000Y24745000D03*
Y25420000D03*
G54D54*
X23000000Y24630000D03*
X23140000D03*
G54D27*
X20730100Y28150000D03*
X20900000D03*
X20730100Y28370000D03*
X20900000D03*
G54D72*
X24095000Y22980000D03*
G54D45*
X22822500Y21742500D03*
Y21807500D03*
Y21872500D03*
Y21937500D03*
X23192500D03*
Y21872500D03*
Y21807500D03*
Y21742500D03*
G54D55*
X22890000Y24460000D03*
Y24320000D03*
G54D37*
X23385000Y20745000D03*
G54D73*
X24170000Y23100000D03*
X24120000D03*
X24070000D03*
X24020000D03*
X24170000Y22860000D03*
X24120000D03*
X24070000D03*
X24020000D03*
G54D19*
X20100000Y26519900D03*
X20220000D03*
X20100000Y26670000D03*
X20220000D03*
G54D28*
X20230000Y27240000D03*
Y27150000D03*
G54D64*
X21705000Y29340000D03*
X22380000D03*
G54D46*
X22910000Y22025000D03*
X22975000D03*
X23040000D03*
X23105000D03*
Y21655000D03*
X23040000D03*
X22975000D03*
X22910000D03*
G54D29*
X21130100Y28818900D03*
X21080000D03*
X21030000D03*
X21130100Y28760000D03*
X21080000D03*
X21030000D03*
G54D38*
X22110000Y20745000D03*
G54D56*
X22917500Y23532500D03*
Y23582500D03*
Y23632500D03*
Y23682500D03*
Y23732500D03*
Y23782500D03*
Y23832500D03*
Y23882500D03*
Y23932500D03*
Y23982500D03*
Y24032500D03*
Y24082500D03*
X23612500D03*
Y24032500D03*
Y23982500D03*
Y23932500D03*
Y23882500D03*
Y23832500D03*
Y23782500D03*
Y23732500D03*
Y23682500D03*
Y23632500D03*
Y23582500D03*
Y23532500D03*
G54D47*
X22747500Y22197500D03*
G54D74*
X24578000Y24910000D03*
X24451000D03*
X24324000D03*
X24197000D03*
X24070000D03*
X24067900Y25793300D03*
X24194900D03*
X24321900D03*
X24448900D03*
X24575900D03*
X24067900Y26253300D03*
X24194900D03*
X24321900D03*
X24448900D03*
X24575900D03*
X24578000Y25370000D03*
X24451000D03*
X24324000D03*
X24197000D03*
X24070000D03*
G54D65*
X24827500Y19761000D03*
Y20669000D03*
G54D66*
X24235000Y20215000D03*
G54D57*
X22990000Y24155000D03*
X23040000D03*
X23090000D03*
X23140000D03*
X23190000D03*
Y23460000D03*
X23140000D03*
X23090000D03*
X23040000D03*
X22990000D03*
X23240000Y24155000D03*
X23290000D03*
X23340000D03*
X23390000D03*
X23440000D03*
X23490000D03*
X23540000D03*
Y23460000D03*
X23490000D03*
X23440000D03*
X23390000D03*
X23340000D03*
X23290000D03*
X23240000D03*
G54D39*
X22960000Y21515000D03*
X22800000D03*
X24790000Y24970000D03*
X24950000D03*
G54D48*
X23385000Y22020000D03*
G54D75*
X23855000Y25985000D03*
X23910000Y25040000D03*
X23860000D03*
X23810000D03*
G54D67*
X24315000Y21470000D03*
G54D76*
X23855000Y26135000D03*
X23910000Y25190000D03*
X23860000D03*
X23810000D03*
G54D49*
X22110000Y22020000D03*
G54D58*
X23265000Y23807500D03*
G54D59*
X22977500Y23350000D03*
Y23300000D03*
Y23250000D03*
X23060000Y23350000D03*
Y23300000D03*
Y23250000D03*
G54D68*
X24315000Y21310000D03*
G54D77*
X23930000Y26010000D03*
Y26060000D03*
Y26110000D03*
X23935000Y25115000D03*
G54D69*
X24410000Y21390000D03*
X24220000D03*
G54D78*
X23780000Y26010000D03*
Y26060000D03*
Y26110000D03*
X23785000Y25115000D03*
G54D79*
X25450000Y24877500D03*
Y25297500D03*
M02*
