G04 ================== begin FILE IDENTIFICATION RECORD ==================*
G04 Layout Name:  MCU013_LAUNCHXL-CC1310_CC1190.brd*
G04 Film Name:    LAUNCHXL-CC1310-C1190_soldmask_bottom*
G04 File Format:  Gerber RS274X*
G04 File Origin:  Cadence Allegro 17.2-S024*
G04 Origin Date:  Fri Jan 26 16:30:51 2018*
G04 *
G04 Layer:  PACKAGE GEOMETRY/SOLDERMASK_BOTTOM*
G04 Layer:  VIA CLASS/SOLDERMASK_BOTTOM*
G04 Layer:  PIN/SOLDERMASK_BOTTOM*
G04 Layer:  BOARD GEOMETRY/OUTLINE*
G04 *
G04 Offset:    (0.000 0.000)*
G04 Mirror:    No*
G04 Mode:      Positive*
G04 Rotation:  0*
G04 FullContactRelief:  No*
G04 UndefLineWidth:     0.099*
G04 ================== end FILE IDENTIFICATION RECORD ====================*
%FSLAX25Y25*MOMM*%
%IR0*IPPOS*OFA0.00000B0.00000*MIA0B0*SFA1.00000B1.00000*%
%ADD15C,1.1*%
%ADD11C,3.2*%
%ADD12C,1.42*%
%ADD10C,3.401*%
%ADD13C,1.8*%
%ADD17C,3.95*%
%ADD16C,1.199*%
%ADD14C,1.849*%
%ADD18O,1.55X2.25*%
%ADD19C,.95*%
%ADD20C,.599*%
%ADD21C,.099*%
G75*
%LPD*%
G75*
G36*
G01X20100000Y25510000D02*
X20050000Y25730000D01*
X20050100Y26010000D01*
X20950000D01*
Y25510000D01*
X20100000D01*
G37*
G54D10*
X20330000Y17940000D03*
X22165000Y19725000D03*
X23665000D03*
X25550000Y17910000D03*
G54D20*
X21320000Y28510000D03*
Y28600000D03*
Y28420000D03*
X23060000Y23610000D03*
X23160000D03*
Y23710000D03*
X23060000D03*
X23160000Y23810000D03*
X23060000D03*
X23160000Y23910000D03*
X23060000D03*
X23160000Y24010000D03*
X23060000D03*
X23260000Y23610000D03*
X23360000D03*
X23460000D03*
Y23710000D03*
X23360000D03*
X23260000D03*
X23460000Y23810000D03*
X23360000D03*
X23260000D03*
X23460000Y23910000D03*
X23360000D03*
X23260000D03*
X23460000Y24010000D03*
X23360000D03*
X23260000D03*
G54D11*
X20330000Y17941000D03*
X20280000Y29260000D03*
X25550000Y17910000D03*
X25560000Y29260000D03*
G54D21*
G01X20145000Y17600000D02*
X25710000D01*
G03X25850000Y17745000I-2500J142500D01*
G01Y19315000D01*
X25145000D01*
Y19850000D01*
X24510000D01*
X24509300Y20580000D01*
X25145000D01*
Y20935000D01*
X25415000D01*
Y21115000D01*
X25845000D01*
X25850000Y24450000D01*
G03X25740000Y24765000I-506023J0D01*
G02X25630000Y25080000I396023J315000D01*
G02X25740000Y25395000I506023J0D01*
G03X25850000Y25710000I-396023J315000D01*
G01Y29383800D01*
G03X25703800Y29530000I-146200J0D01*
G01X21580000D01*
Y29410000D01*
X21420000D01*
Y29200000D01*
X21330000D01*
Y29410000D01*
X20950000D01*
Y29200000D01*
X20860000D01*
Y29410000D01*
X20700000D01*
Y29530000D01*
X20146200D01*
G03X20000000Y29383800I0J-146200D01*
G01Y25710000D01*
G03X20110000Y25395000I506023J0D01*
G02X20220000Y25080000I-396023J-315000D01*
G02X20110000Y24765000I-506023J0D01*
G03X20000000Y24450000I396023J-315000D01*
G01Y17745000D01*
G03X20145000Y17600000I144167J-833D01*
G54D12*
X20200000Y20520000D03*
X20550000Y29380000D03*
X24490000Y20965000D03*
G54D13*
X20640000Y21396000D03*
Y21142000D03*
X20892300Y22160000D03*
Y22414000D03*
Y22668000D03*
Y22922000D03*
Y23176000D03*
X20638300Y22160000D03*
Y22414000D03*
Y22668000D03*
Y22922000D03*
Y23176000D03*
X20640000Y21650000D03*
X20892300Y23430000D03*
Y23684000D03*
Y23938000D03*
Y24192000D03*
Y24446000D03*
X20638300Y23430000D03*
Y23684000D03*
Y23938000D03*
Y24192000D03*
Y24446000D03*
X21146300Y25462000D03*
X21400300D03*
X21146300Y25716000D03*
X21400300D03*
X21969000Y23654000D03*
X21715000D03*
X21969000Y23400000D03*
X21715000D03*
X21654300Y25462000D03*
X21908300D03*
X22162300D03*
X22416300D03*
X22670300D03*
X22924300D03*
X23178300D03*
X21654300Y25716000D03*
X21908300D03*
X22162300D03*
X22416300D03*
X22670300D03*
X22924300D03*
X23178300D03*
X23432300Y25462000D03*
X23686300D03*
X23432300Y25716000D03*
X23686300D03*
X25210000Y21396000D03*
Y21142000D03*
X25212300Y22160000D03*
Y22414000D03*
Y22668000D03*
Y22922000D03*
Y23176000D03*
X24958300Y22160000D03*
Y22414000D03*
Y22668000D03*
Y22922000D03*
Y23176000D03*
X25210000Y21650000D03*
X25212300Y23430000D03*
Y23684000D03*
Y23938000D03*
Y24192000D03*
Y24446000D03*
X24958300Y23430000D03*
Y23684000D03*
Y23938000D03*
Y24192000D03*
Y24446000D03*
X24990000Y25462000D03*
Y25716000D03*
Y25970000D03*
G54D14*
X20300000Y25760000D03*
G54D15*
X20280000Y24967100D03*
Y25197100D03*
X21927100Y29280000D03*
X22157100D03*
X25570000Y25202900D03*
Y24972900D03*
G54D16*
X20273500Y28093000D03*
X20375000Y28855000D03*
X20172000D03*
G54D17*
X20280000Y29260000D03*
X25560000D03*
G54D18*
X21535000Y29265000D03*
X20745000D03*
G54D19*
X20337000Y28728000D03*
Y28601000D03*
Y28474000D03*
Y28347000D03*
Y28220000D03*
X20210000Y28728000D03*
Y28601000D03*
Y28474000D03*
Y28347000D03*
Y28220000D03*
M02*
