G04 Layer_Color=32896*
%FSLAX42Y42*%
%MOMM*%
G71*
G01*
G75*
%ADD14C,0.10*%
D14*
X1300Y1510D02*
X1310Y1520D01*
X1330D01*
X1340Y1510D01*
Y1470D01*
X1330Y1460D01*
X1310D01*
X1300Y1470D01*
Y1490D01*
X1320D01*
X1280Y1460D02*
Y1520D01*
X1240Y1460D01*
Y1520D01*
X1220D02*
Y1460D01*
X1190D01*
X1180Y1470D01*
Y1510D01*
X1190Y1520D01*
X1220D01*
X1330Y930D02*
Y990D01*
X1300D01*
X1290Y980D01*
Y960D01*
X1300Y950D01*
X1330D01*
X1310D02*
X1290Y930D01*
X1230Y980D02*
X1240Y990D01*
X1260D01*
X1270Y980D01*
Y970D01*
X1260Y960D01*
X1240D01*
X1230Y950D01*
Y940D01*
X1240Y930D01*
X1260D01*
X1270Y940D01*
X1210Y990D02*
X1170D01*
X1190D01*
Y930D01*
X1090Y1460D02*
Y1520D01*
X1070Y1500D01*
X1050Y1520D01*
Y1460D01*
X1000Y1520D02*
X1020D01*
X1030Y1510D01*
Y1470D01*
X1020Y1460D01*
X1000D01*
X990Y1470D01*
Y1510D01*
X1000Y1520D01*
X930Y1510D02*
X940Y1520D01*
X960D01*
X970Y1510D01*
Y1500D01*
X960Y1490D01*
X940D01*
X930Y1480D01*
Y1470D01*
X940Y1460D01*
X960D01*
X970Y1470D01*
X910Y1520D02*
X890D01*
X900D01*
Y1460D01*
X910D01*
X890D01*
X1010Y980D02*
X1020Y990D01*
X1040D01*
X1050Y980D01*
Y970D01*
X1040Y960D01*
X1020D01*
X1010Y950D01*
Y940D01*
X1020Y930D01*
X1040D01*
X1050Y940D01*
X950Y980D02*
X960Y990D01*
X980D01*
X990Y980D01*
Y940D01*
X980Y930D01*
X960D01*
X950Y940D01*
X740Y1460D02*
Y1500D01*
X760Y1480D02*
X720D01*
X870Y920D02*
Y980D01*
X850Y960D01*
X830Y980D01*
Y920D01*
X810Y980D02*
X790D01*
X800D01*
Y920D01*
X810D01*
X790D01*
X720Y970D02*
X730Y980D01*
X750D01*
X760Y970D01*
Y960D01*
X750Y950D01*
X730D01*
X720Y940D01*
Y930D01*
X730Y920D01*
X750D01*
X760Y930D01*
X670Y980D02*
X690D01*
X700Y970D01*
Y930D01*
X690Y920D01*
X670D01*
X660Y930D01*
Y970D01*
X670Y980D01*
X1437Y72D02*
X1445Y80D01*
X1462D01*
X1470Y72D01*
Y38D01*
X1462Y30D01*
X1445D01*
X1437Y38D01*
Y55D01*
X1453D01*
X1420Y30D02*
Y80D01*
X1387Y30D01*
Y80D01*
X1370D02*
Y30D01*
X1345D01*
X1337Y38D01*
Y72D01*
X1345Y80D01*
X1370D01*
X1270Y30D02*
Y80D01*
X1245D01*
X1237Y72D01*
Y55D01*
X1245Y47D01*
X1270D01*
X1253D02*
X1237Y30D01*
X1187Y72D02*
X1195Y80D01*
X1212D01*
X1220Y72D01*
Y63D01*
X1212Y55D01*
X1195D01*
X1187Y47D01*
Y38D01*
X1195Y30D01*
X1212D01*
X1220Y38D01*
X1120Y30D02*
Y80D01*
X1103Y63D01*
X1087Y80D01*
Y30D01*
X1045Y80D02*
X1062D01*
X1070Y72D01*
Y38D01*
X1062Y30D01*
X1045D01*
X1037Y38D01*
Y72D01*
X1045Y80D01*
X937Y72D02*
X945Y80D01*
X962D01*
X970Y72D01*
Y63D01*
X962Y55D01*
X945D01*
X937Y47D01*
Y38D01*
X945Y30D01*
X962D01*
X970Y38D01*
X887Y72D02*
X895Y80D01*
X912D01*
X920Y72D01*
Y38D01*
X912Y30D01*
X895D01*
X887Y38D01*
X830Y80D02*
Y47D01*
X813Y30D01*
X797Y47D01*
Y80D01*
X747Y72D02*
X755Y80D01*
X772D01*
X780Y72D01*
Y38D01*
X772Y30D01*
X755D01*
X747Y38D01*
X697Y72D02*
X705Y80D01*
X722D01*
X730Y72D01*
Y38D01*
X722Y30D01*
X705D01*
X697Y38D01*
X650Y30D02*
Y80D01*
X633Y63D01*
X617Y80D01*
Y30D01*
X600Y80D02*
X583D01*
X592D01*
Y30D01*
X600D01*
X583D01*
X0Y0D02*
Y3300D01*
X2000D01*
Y0D02*
Y3300D01*
X0Y0D02*
X2000D01*
M02*
