G04 Layer_Color=8388736*
%FSLAX42Y42*%
%MOMM*%
G71*
G01*
G75*
%ADD14C,0.10*%
%ADD20C,0.12*%
%ADD21C,1.20*%
%ADD22R,1.20X1.20*%
%ADD23C,1.80*%
%ADD24R,1.70X1.70*%
%ADD25C,1.70*%
%ADD26C,1.40*%
%ADD27C,1.50*%
G36*
X946Y1634D02*
X813D01*
X806Y1614D01*
X939D01*
X932Y1593D01*
X799D01*
X785Y1552D01*
X765D01*
X796Y1644D01*
X796Y1646D01*
X797Y1647D01*
X798Y1648D01*
X799Y1649D01*
X800Y1650D01*
X800Y1651D01*
X801Y1651D01*
X801Y1651D01*
X803Y1653D01*
X804Y1653D01*
X806Y1654D01*
X807Y1654D01*
X808Y1654D01*
X809Y1655D01*
X953D01*
X946Y1634D01*
D02*
G37*
G36*
X1112D02*
X979D01*
X972Y1614D01*
X1105D01*
X1098Y1593D01*
X965D01*
X951Y1552D01*
X931D01*
X962Y1644D01*
X962Y1646D01*
X963Y1647D01*
X964Y1648D01*
X965Y1649D01*
X966Y1650D01*
X967Y1651D01*
X967Y1651D01*
X967Y1651D01*
X969Y1653D01*
X970Y1653D01*
X972Y1654D01*
X973Y1654D01*
X974Y1654D01*
X975Y1655D01*
X1119D01*
X1112Y1634D01*
D02*
G37*
G36*
X1308D02*
X1227D01*
X1199Y1552D01*
X1178D01*
X1206Y1634D01*
X1124D01*
X1131Y1655D01*
X1315D01*
X1308Y1634D01*
D02*
G37*
D14*
X0Y0D02*
Y3300D01*
X2000D01*
Y0D02*
Y3300D01*
X0Y0D02*
X2000D01*
D20*
X1500Y900D02*
Y970D01*
X1535D01*
X1547Y958D01*
Y935D01*
X1535Y923D01*
X1500D01*
X1523D02*
X1547Y900D01*
X1617Y970D02*
X1570D01*
Y900D01*
X1617D01*
X1570Y935D02*
X1593D01*
X1640Y970D02*
Y923D01*
X1663Y900D01*
X1687Y923D01*
Y970D01*
X1710Y935D02*
X1757D01*
X1780Y900D02*
Y947D01*
X1803Y970D01*
X1827Y947D01*
Y900D01*
Y935D01*
X1780D01*
X1547Y749D02*
X1500D01*
X1547Y796D01*
Y808D01*
X1535Y819D01*
X1512D01*
X1500Y808D01*
X1570D02*
X1582Y819D01*
X1605D01*
X1617Y808D01*
Y761D01*
X1605Y749D01*
X1582D01*
X1570Y761D01*
Y808D01*
X1687Y749D02*
X1640D01*
X1687Y796D01*
Y808D01*
X1675Y819D01*
X1652D01*
X1640Y808D01*
X1757Y819D02*
X1710D01*
Y784D01*
X1733Y796D01*
X1745D01*
X1757Y784D01*
Y761D01*
X1745Y749D01*
X1722D01*
X1710Y761D01*
X1780Y784D02*
X1827D01*
X1850Y808D02*
X1862Y819D01*
X1885D01*
X1897Y808D01*
Y761D01*
X1885Y749D01*
X1862D01*
X1850Y761D01*
Y808D01*
X1955Y749D02*
Y819D01*
X1920Y784D01*
X1967D01*
D21*
X1075Y170D02*
D03*
X925Y170D02*
D03*
X775Y170D02*
D03*
X625Y170D02*
D03*
X1225Y170D02*
D03*
D22*
X1375D02*
D03*
D23*
X1740Y1150D02*
D03*
X240D02*
D03*
X1750Y550D02*
D03*
X250D02*
D03*
Y250D02*
D03*
X1750D02*
D03*
X1740Y1450D02*
D03*
X240D02*
D03*
X996Y2500D02*
D03*
D24*
X1254Y1350D02*
D03*
D25*
X1000D02*
D03*
X746D02*
D03*
X1000Y1096D02*
D03*
X746D02*
D03*
X1254D02*
D03*
D26*
X775Y400D02*
D03*
X1075D02*
D03*
X1225D02*
D03*
X925D02*
D03*
Y550D02*
D03*
X1225D02*
D03*
X1075D02*
D03*
X625D02*
D03*
Y700D02*
D03*
X775D02*
D03*
X1075D02*
D03*
X1225D02*
D03*
X925D02*
D03*
X625Y400D02*
D03*
X775Y550D02*
D03*
X1375Y700D02*
D03*
Y550D02*
D03*
Y400D02*
D03*
D27*
X925Y250D02*
D03*
X1375D02*
D03*
X1225D02*
D03*
X1075D02*
D03*
X775D02*
D03*
X625D02*
D03*
M02*
