%FSLAX34Y34*%
%MOMM*%
%LNSOLDERMASK_BOTTOM*%
G71*
G01*
%ADD10R, 2.080X4.080*%
%ADD11R, 2.080X5.080*%
%ADD12R, 4.080X2.080*%
%ADD13R, 5.080X2.080*%
%ADD14R, 6.280X10.080*%
%ADD15R, 9.080X13.080*%
%ADD16C, 0.980*%
%ADD17C, 3.380*%
%ADD18R, 2.080X2.080*%
%ADD19R, 4.080X1.880*%
%ADD20R, 1.880X4.080*%
%ADD21R, 6.080X7.080*%
%ADD22C, 1.880*%
%LPD*%
X482000Y-87000D02*
G54D10*
D03*
X482000Y-142000D02*
G54D11*
D03*
X482000Y-32000D02*
G54D11*
D03*
X177000Y-382000D02*
G54D12*
D03*
X232000Y-382000D02*
G54D13*
D03*
X122000Y-382000D02*
G54D13*
D03*
X374300Y-932300D02*
G54D14*
D03*
X298100Y-932300D02*
G54D14*
D03*
X221900Y-932300D02*
G54D14*
D03*
X145700Y-932300D02*
G54D14*
D03*
X260000Y-690000D02*
G54D15*
D03*
X244000Y-1207000D02*
G54D16*
D03*
X276000Y-1207000D02*
G54D16*
D03*
X244000Y-1181000D02*
G54D16*
D03*
X276000Y-1181000D02*
G54D16*
D03*
X244000Y-1155000D02*
G54D16*
D03*
X276000Y-1155000D02*
G54D16*
D03*
G36*
X297486Y-1403600D02*
X302400Y-1408514D01*
X302400Y-1415486D01*
X297486Y-1420400D01*
X290514Y-1420400D01*
X285600Y-1415486D01*
X285600Y-1408514D01*
X290514Y-1403600D01*
X297486Y-1403600D01*
G37*
G36*
X297486Y-1428600D02*
X302400Y-1433514D01*
X302400Y-1440486D01*
X297486Y-1445400D01*
X290514Y-1445400D01*
X285600Y-1440486D01*
X285600Y-1433514D01*
X290514Y-1428600D01*
X297486Y-1428600D01*
G37*
G36*
X229486Y-1428600D02*
X234400Y-1433514D01*
X234400Y-1440486D01*
X229486Y-1445400D01*
X222514Y-1445400D01*
X217600Y-1440486D01*
X217600Y-1433514D01*
X222514Y-1428600D01*
X229486Y-1428600D01*
G37*
G36*
X229486Y-1403600D02*
X234400Y-1408514D01*
X234400Y-1415486D01*
X229486Y-1420400D01*
X222514Y-1420400D01*
X217600Y-1415486D01*
X217600Y-1408514D01*
X222514Y-1403600D01*
X229486Y-1403600D01*
G37*
G36*
X250486Y-1428600D02*
X255400Y-1433514D01*
X255400Y-1440486D01*
X250486Y-1445400D01*
X243514Y-1445400D01*
X238600Y-1440486D01*
X238600Y-1433514D01*
X243514Y-1428600D01*
X250486Y-1428600D01*
G37*
G36*
X276486Y-1428600D02*
X281400Y-1433514D01*
X281400Y-1440486D01*
X276486Y-1445400D01*
X269514Y-1445400D01*
X264600Y-1440486D01*
X264600Y-1433514D01*
X269514Y-1428600D01*
X276486Y-1428600D01*
G37*
X260000Y-1475000D02*
G54D17*
D03*
X328000Y-1467000D02*
G54D17*
D03*
X192000Y-1467000D02*
G54D17*
D03*
X244000Y-1207000D02*
G54D18*
D03*
X276000Y-1207000D02*
G54D18*
D03*
X244000Y-1181000D02*
G54D18*
D03*
X276000Y-1181000D02*
G54D18*
D03*
X244000Y-1155000D02*
G54D18*
D03*
X276000Y-1155000D02*
G54D18*
D03*
X468636Y-696999D02*
G54D16*
D03*
X468636Y-652999D02*
G54D16*
D03*
X90000Y-486000D02*
G54D19*
D03*
X90000Y-586000D02*
G54D19*
D03*
X140000Y-536000D02*
G54D20*
D03*
X40000Y-536000D02*
G54D20*
D03*
X260000Y-1335000D02*
G54D21*
D03*
X25000Y-1437500D02*
G54D22*
D03*
X75000Y-1437500D02*
G54D22*
D03*
X50000Y-1387500D02*
G54D22*
D03*
X25000Y-1387500D02*
G54D22*
D03*
X75000Y-1387500D02*
G54D22*
D03*
X495000Y-1437500D02*
G54D22*
D03*
X445000Y-1437500D02*
G54D22*
D03*
X470000Y-1387500D02*
G54D22*
D03*
X495000Y-1387500D02*
G54D22*
D03*
X445000Y-1387500D02*
G54D22*
D03*
M02*
