%FSLAX34Y34*%
%MOMM*%
%LNCOPPER_BOTTOM*%
G71*
G01*
%ADD10R, 2.600X4.600*%
%ADD11R, 2.600X5.600*%
%ADD12R, 4.600X2.600*%
%ADD13R, 5.600X2.600*%
%ADD14C, 0.500*%
%ADD15R, 7.000X10.800*%
%ADD16R, 9.600X13.600*%
%ADD17C, 1.900*%
%ADD18C, 1.500*%
%ADD19C, 3.900*%
%ADD20R, 2.600X2.600*%
%ADD21C, 0.200*%
%ADD22C, 0.900*%
%ADD23C, 1.300*%
%ADD24C, 2.900*%
%ADD25C, 1.000*%
%ADD26C, 2.000*%
%ADD27R, 5.200X3.000*%
%ADD28R, 3.000X5.200*%
%ADD29C, 2.600*%
%ADD30C, 0.150*%
%ADD31C, 0.400*%
%ADD32C, 1.400*%
%ADD33C, 0.222*%
%ADD34R, 2.000X4.000*%
%ADD35R, 2.000X5.000*%
%ADD36R, 4.000X2.000*%
%ADD37R, 5.000X2.000*%
%ADD38C, 0.300*%
%ADD39R, 6.200X10.000*%
%ADD40R, 9.000X13.000*%
%ADD41C, 0.900*%
%ADD42C, 3.300*%
%ADD43R, 2.000X2.000*%
%ADD44R, 4.000X1.800*%
%ADD45R, 1.800X4.000*%
%ADD46R, 6.000X7.000*%
%ADD47C, 1.800*%
%LPD*%
G36*
X0Y0D02*
X520000Y0D01*
X520000Y-1515000D01*
X0Y-1515000D01*
X0Y0D01*
G37*
%LPC*%
X482000Y-87000D02*
G54D10*
D03*
X482000Y-142000D02*
G54D11*
D03*
X482000Y-32000D02*
G54D11*
D03*
X177000Y-382000D02*
G54D12*
D03*
X232000Y-382000D02*
G54D13*
D03*
X122000Y-382000D02*
G54D13*
D03*
G36*
X10000Y-450000D02*
X195000Y-450000D01*
X195000Y-603000D01*
X10000Y-603000D01*
X10000Y-450000D01*
G37*
G54D14*
X10000Y-450000D02*
X195000Y-450000D01*
X195000Y-603000D01*
X10000Y-603000D01*
X10000Y-450000D01*
X374300Y-932300D02*
G54D15*
D03*
X298100Y-932300D02*
G54D15*
D03*
X221900Y-932300D02*
G54D15*
D03*
X145700Y-932300D02*
G54D15*
D03*
X260000Y-690000D02*
G54D16*
D03*
X244000Y-1207000D02*
G54D17*
D03*
X276000Y-1207000D02*
G54D18*
D03*
X312000Y-1139000D02*
G54D18*
D03*
X244000Y-1181000D02*
G54D17*
D03*
X276000Y-1181000D02*
G54D17*
D03*
X276000Y-1155000D02*
G54D18*
D03*
G36*
X298565Y-1401000D02*
X305000Y-1407435D01*
X305000Y-1416565D01*
X298565Y-1423000D01*
X289435Y-1423000D01*
X283000Y-1416565D01*
X283000Y-1407435D01*
X289435Y-1401000D01*
X298565Y-1401000D01*
G37*
G36*
X298565Y-1426000D02*
X305000Y-1432435D01*
X305000Y-1441565D01*
X298565Y-1448000D01*
X289435Y-1448000D01*
X283000Y-1441565D01*
X283000Y-1432435D01*
X289435Y-1426000D01*
X298565Y-1426000D01*
G37*
G36*
X230565Y-1426000D02*
X237000Y-1432435D01*
X237000Y-1441565D01*
X230565Y-1448000D01*
X221435Y-1448000D01*
X215000Y-1441565D01*
X215000Y-1432435D01*
X221435Y-1426000D01*
X230565Y-1426000D01*
G37*
G36*
X230565Y-1401000D02*
X237000Y-1407435D01*
X237000Y-1416565D01*
X230565Y-1423000D01*
X221435Y-1423000D01*
X215000Y-1416565D01*
X215000Y-1407435D01*
X221435Y-1401000D01*
X230565Y-1401000D01*
G37*
G36*
X251565Y-1426000D02*
X258000Y-1432435D01*
X258000Y-1441565D01*
X251565Y-1448000D01*
X242435Y-1448000D01*
X236000Y-1441565D01*
X236000Y-1432435D01*
X242435Y-1426000D01*
X251565Y-1426000D01*
G37*
G36*
X277565Y-1426000D02*
X284000Y-1432435D01*
X284000Y-1441565D01*
X277565Y-1448000D01*
X268435Y-1448000D01*
X262000Y-1441565D01*
X262000Y-1432435D01*
X268435Y-1426000D01*
X277565Y-1426000D01*
G37*
X260000Y-1475000D02*
G54D19*
D03*
X328000Y-1467000D02*
G54D19*
D03*
X192000Y-1467000D02*
G54D19*
D03*
X264000Y-1291000D02*
G54D18*
D03*
X244000Y-1207000D02*
G54D20*
D03*
X276000Y-1207000D02*
G54D20*
D03*
X244000Y-1181000D02*
G54D20*
D03*
X276000Y-1181000D02*
G54D20*
D03*
X276000Y-1155000D02*
G54D20*
D03*
G36*
X292000Y-1181000D02*
X304000Y-1173000D01*
X304000Y-1189000D01*
X292000Y-1181000D01*
G37*
G54D21*
X292000Y-1181000D02*
X304000Y-1173000D01*
X304000Y-1189000D01*
X292000Y-1181000D01*
X328000Y-1289000D02*
G54D18*
D03*
X222000Y-1293000D02*
G54D18*
D03*
X328000Y-1237000D02*
G54D18*
D03*
X222000Y-1237000D02*
G54D18*
D03*
G54D22*
X328000Y-1237000D02*
X328000Y-1289000D01*
G54D23*
X244000Y-1181000D02*
X256000Y-1181000D01*
X260000Y-1177000D01*
X260000Y-1143000D01*
X264000Y-1139000D01*
X312000Y-1139000D01*
X468636Y-696999D02*
G54D18*
D03*
X160000Y-776000D02*
G54D24*
D03*
G54D25*
X294000Y-1437000D02*
X294000Y-1504000D01*
G54D25*
G75*
G01X160000Y-1254000D02*
G03X125000Y-1219000I-35000J0D01*
G01*
G54D25*
G75*
G01X395000Y-1219000D02*
G03X360000Y-1254000I0J-35000D01*
G01*
X115000Y-1103500D02*
G54D18*
D03*
X96000Y-1103500D02*
G54D18*
D03*
X96000Y-1177000D02*
G54D18*
D03*
X208000Y-1237000D02*
G54D18*
D03*
X184000Y-1237000D02*
G54D18*
D03*
X70000Y-1125500D02*
G54D18*
D03*
X376000Y-809000D02*
G54D18*
D03*
X360000Y-809000D02*
G54D18*
D03*
X380000Y-1173000D02*
G54D18*
D03*
X380000Y-1187000D02*
G54D18*
D03*
G54D25*
X80000Y-1093000D02*
X80000Y-1045000D01*
X70000Y-1035000D01*
X70000Y-855000D01*
X86000Y-839000D01*
G54D25*
X374300Y-920000D02*
X374300Y-857300D01*
X356000Y-839000D01*
X86000Y-839000D01*
G54D22*
X244000Y-1207000D02*
X244000Y-1271000D01*
X264000Y-1291000D01*
G54D22*
X222000Y-1237000D02*
X222000Y-1293000D01*
G54D26*
X160000Y-776000D02*
X160000Y-805000D01*
X170000Y-815000D01*
X250000Y-815000D01*
X260000Y-805000D01*
X260000Y-690000D01*
X90000Y-486000D02*
G54D27*
D03*
X90000Y-586000D02*
G54D27*
D03*
X140000Y-536000D02*
G54D28*
D03*
X40000Y-536000D02*
G54D28*
D03*
X424000Y-759000D02*
G54D18*
D03*
X419000Y-699000D02*
G54D18*
D03*
G54D22*
X419000Y-699000D02*
X419000Y-754000D01*
X424000Y-759000D01*
G54D22*
X360000Y-809000D02*
X370000Y-819000D01*
X404000Y-819000D01*
X436000Y-851000D01*
X436000Y-1029000D01*
X426000Y-1039000D01*
G54D22*
X376000Y-809000D02*
X402000Y-809000D01*
X442000Y-849000D01*
X442000Y-1031000D01*
X432000Y-1041000D01*
G54D22*
X380000Y-1187000D02*
X406000Y-1161000D01*
X406000Y-1067000D01*
X432000Y-1041000D01*
G54D22*
X380000Y-1173000D02*
X400000Y-1153000D01*
X400000Y-1065000D01*
X426000Y-1039000D01*
G54D25*
G75*
G01X395073Y-500000D02*
G03X395073Y-540000I0J-20000D01*
G01*
G54D25*
G75*
G01X485000Y-590000D02*
G03X485000Y-540000I0J25000D01*
G01*
G54D25*
X395073Y-540000D02*
X485000Y-540000D01*
G54D25*
G75*
G01X411073Y-590000D02*
G03X411073Y-630000I0J-20000D01*
G01*
G54D25*
X485000Y-590000D02*
X411073Y-590000D01*
X122000Y-402000D02*
G54D18*
D03*
X177000Y-397000D02*
G54D18*
D03*
X497000Y-87000D02*
G54D18*
D03*
X502000Y-32000D02*
G54D18*
D03*
G54D25*
X510000Y-314000D02*
X510000Y-40000D01*
X502000Y-32000D01*
G54D25*
X502000Y-32000D02*
X482000Y-32000D01*
G54D25*
X414000Y-410000D02*
X130000Y-410000D01*
X122000Y-402000D01*
G54D25*
X122000Y-382000D02*
X122000Y-402000D01*
G54D22*
X177000Y-397000D02*
X177000Y-382000D01*
G54D22*
X482000Y-87000D02*
X497000Y-87000D01*
X120629Y-536521D02*
G54D18*
D03*
X260000Y-746000D02*
G54D24*
D03*
G54D25*
X450000Y-1035000D02*
X440000Y-1045000D01*
X440000Y-1093000D01*
X25000Y-1437500D02*
G54D29*
D03*
X75000Y-1437500D02*
G54D29*
D03*
X50000Y-1387500D02*
G54D29*
D03*
X25000Y-1387500D02*
G54D29*
D03*
X75000Y-1387500D02*
G54D29*
D03*
G54D25*
G75*
G01X10000Y-1239000D02*
G03X35000Y-1264000I25000J0D01*
G01*
G54D25*
G75*
G01X84927Y-1304000D02*
G03X84927Y-1264000I0J20000D01*
G01*
G54D25*
X84927Y-1304000D02*
X35000Y-1304000D01*
G54D25*
X84927Y-1264000D02*
X35000Y-1264000D01*
G54D25*
G75*
G01X35000Y-1304000D02*
G03X10000Y-1329000I0J-25000D01*
G01*
G54D25*
X10000Y-1329000D02*
X10000Y-1372500D01*
X25000Y-1387500D01*
G54D25*
X10000Y-1239000D02*
X10000Y-1219000D01*
X125000Y-1219000D01*
X144800Y-1177000D02*
G54D18*
D03*
G54D22*
X144800Y-1177000D02*
X96000Y-1177000D01*
G54D25*
X80000Y-1093000D02*
X80000Y-1115500D01*
X70000Y-1125500D01*
X10000Y-1185500D01*
X10000Y-1219000D01*
G54D22*
X184000Y-1237000D02*
X184000Y-1191500D01*
X96000Y-1103500D01*
G54D22*
X221900Y-940000D02*
X221900Y-860900D01*
X208000Y-847000D01*
X90000Y-847000D01*
X78000Y-859000D01*
X78000Y-1031000D01*
X115000Y-1068000D01*
X115000Y-1103500D01*
G54D22*
X208000Y-1237000D02*
X208000Y-1196500D01*
X115000Y-1103500D01*
X495000Y-1437500D02*
G54D29*
D03*
X445000Y-1437500D02*
G54D29*
D03*
X470000Y-1387500D02*
G54D29*
D03*
X495000Y-1387500D02*
G54D29*
D03*
X445000Y-1387500D02*
G54D29*
D03*
G54D25*
G75*
G01X485000Y-1264000D02*
G03X510000Y-1239000I0J25000D01*
G01*
G54D25*
G75*
G01X435073Y-1264000D02*
G03X435073Y-1304000I0J-20000D01*
G01*
G54D25*
X435073Y-1304000D02*
X485000Y-1304000D01*
G54D25*
X435073Y-1264000D02*
X485000Y-1264000D01*
G54D25*
G75*
G01X510000Y-1329000D02*
G03X485000Y-1304000I-25000J0D01*
G01*
G54D25*
X510000Y-1329000D02*
X510000Y-1372500D01*
X495000Y-1387500D01*
G54D25*
X510000Y-1239000D02*
X510000Y-1219000D01*
X395000Y-1219000D01*
G54D25*
X440000Y-1093000D02*
X440000Y-1115500D01*
X450000Y-1125500D01*
X510000Y-1185500D01*
X510000Y-1219000D01*
X424000Y-1194768D02*
G54D18*
D03*
X424000Y-1127500D02*
G54D18*
D03*
G54D22*
X424000Y-1127500D02*
X424000Y-1194768D01*
X450000Y-1125500D02*
G54D18*
D03*
X444000Y-697000D02*
G54D18*
D03*
X222000Y-875000D02*
G54D18*
D03*
G54D22*
X146100Y-940000D02*
X146000Y-939900D01*
X146000Y-875000D01*
X146000Y-875000D02*
G54D18*
D03*
X374000Y-875000D02*
G54D18*
D03*
X400000Y-759000D02*
G54D18*
D03*
X400000Y-699000D02*
G54D18*
D03*
G54D22*
X400000Y-699000D02*
X400000Y-754000D01*
X400000Y-759000D01*
G36*
X470000Y-220000D02*
X470000Y0D01*
X430000Y0D01*
X430000Y-220000D01*
X470000Y-220000D01*
G37*
G54D30*
X470000Y-220000D02*
X470000Y0D01*
X430000Y0D01*
X430000Y-220000D01*
X470000Y-220000D01*
G54D25*
X414000Y-410000D02*
X510000Y-314000D01*
G36*
X70000Y-370000D02*
X310000Y-370000D01*
X310000Y-330000D01*
X70000Y-330000D01*
X70000Y-370000D01*
G37*
G54D30*
X70000Y-370000D02*
X310000Y-370000D01*
X310000Y-330000D01*
X70000Y-330000D01*
X70000Y-370000D01*
G36*
X80000Y-665000D02*
X195000Y-665000D01*
X195000Y-625000D01*
X310000Y-625000D01*
X310000Y-827000D01*
X80000Y-827000D01*
X80000Y-665000D01*
G37*
G54D31*
X80000Y-665000D02*
X195000Y-665000D01*
X195000Y-625000D01*
X310000Y-625000D01*
X310000Y-827000D01*
X80000Y-827000D01*
X80000Y-665000D01*
G54D25*
X450000Y-1035000D02*
X450000Y-734000D01*
X444000Y-728000D01*
X444000Y-674000D01*
G54D25*
X395073Y-500000D02*
X485000Y-500000D01*
G54D25*
G75*
G01X375073Y-430000D02*
G03X395073Y-450000I20000J0D01*
G01*
G54D25*
G75*
G01X485000Y-500000D02*
G03X485000Y-450000I0J25000D01*
G01*
G54D25*
X395073Y-450000D02*
X485000Y-450000D01*
G54D25*
X375073Y-430000D02*
X375073Y-410073D01*
X375000Y-410000D01*
G54D25*
X411073Y-630000D02*
X430000Y-630000D01*
X444000Y-644000D01*
X444000Y-674000D01*
G54D25*
X468636Y-696999D02*
X444000Y-697000D01*
G54D25*
X160000Y-1254000D02*
X160000Y-1355000D01*
X175000Y-1370000D01*
X175000Y-1420000D01*
X160000Y-1435000D01*
X160000Y-1489000D01*
X175000Y-1504000D01*
X345000Y-1504000D01*
X360000Y-1489000D01*
X360000Y-1435000D01*
X345000Y-1420000D01*
X345000Y-1370000D01*
X360000Y-1355000D01*
X360000Y-1250000D01*
G36*
X216000Y-754000D02*
X304000Y-754000D01*
X304000Y-796000D01*
X282000Y-818000D01*
X170000Y-818000D01*
X158000Y-806000D01*
X208000Y-806000D01*
X216000Y-798000D01*
X216000Y-754000D01*
G37*
G54D25*
X216000Y-754000D02*
X304000Y-754000D01*
X304000Y-796000D01*
X282000Y-818000D01*
X170000Y-818000D01*
X158000Y-806000D01*
X208000Y-806000D01*
X216000Y-798000D01*
X216000Y-754000D01*
G54D32*
X354000Y-865000D02*
X354000Y-885000D01*
G54D32*
X394000Y-865000D02*
X394000Y-885000D01*
G54D32*
X374000Y-865000D02*
X374000Y-885000D01*
G54D32*
X202000Y-865000D02*
X202000Y-885000D01*
G54D32*
X242000Y-865000D02*
X242000Y-885000D01*
G54D32*
X222000Y-865000D02*
X222000Y-885000D01*
G54D32*
X126000Y-865000D02*
X126000Y-885000D01*
G54D32*
X166000Y-865000D02*
X166000Y-885000D01*
G54D32*
X146000Y-865000D02*
X146000Y-885000D01*
X90000Y-566000D02*
G54D18*
D03*
G54D22*
X90000Y-566000D02*
X90000Y-586000D01*
G54D22*
X140629Y-536521D02*
X120629Y-536521D01*
G54D33*
X289222Y-1380222D02*
X289222Y-1398000D01*
X279888Y-1398000D01*
G54D33*
X273666Y-1384666D02*
X273666Y-1384666D01*
G54D33*
X268333Y-1384666D02*
X268333Y-1384666D01*
G54D33*
X267000Y-1395334D02*
X267000Y-1390889D01*
X268333Y-1388666D01*
X271000Y-1388000D01*
X273666Y-1388666D01*
X275000Y-1390889D01*
X275000Y-1395334D01*
X273666Y-1397556D01*
X271000Y-1398000D01*
X268333Y-1397556D01*
X267000Y-1395334D01*
G54D33*
X259444Y-1380222D02*
X259444Y-1396889D01*
X258111Y-1398000D01*
X256777Y-1397556D01*
G54D33*
X262111Y-1388000D02*
X256777Y-1388000D01*
G54D33*
X243889Y-1396889D02*
X246022Y-1398000D01*
X248689Y-1398000D01*
X251355Y-1396889D01*
X251889Y-1394666D01*
X251889Y-1390889D01*
X250555Y-1388666D01*
X247889Y-1388000D01*
X245222Y-1388666D01*
X243889Y-1390222D01*
X243889Y-1392444D01*
X251889Y-1392444D01*
G54D33*
X239000Y-1398000D02*
X239000Y-1388000D01*
G54D33*
X239000Y-1390222D02*
X237666Y-1388666D01*
X235000Y-1388000D01*
X232333Y-1388666D01*
X231000Y-1390222D01*
X231000Y-1398000D01*
%LPD*%
X482000Y-87000D02*
G54D34*
D03*
X482000Y-142000D02*
G54D35*
D03*
X482000Y-32000D02*
G54D35*
D03*
X177000Y-382000D02*
G54D36*
D03*
X232000Y-382000D02*
G54D37*
D03*
X122000Y-382000D02*
G54D37*
D03*
G54D38*
X266000Y-382000D02*
X232000Y-382000D01*
X374300Y-932300D02*
G54D39*
D03*
X298100Y-932300D02*
G54D39*
D03*
X221900Y-932300D02*
G54D39*
D03*
X145700Y-932300D02*
G54D39*
D03*
X260000Y-690000D02*
G54D40*
D03*
X244000Y-1207000D02*
G54D41*
D03*
X276000Y-1207000D02*
G54D41*
D03*
X312000Y-1139000D02*
G54D41*
D03*
X244000Y-1181000D02*
G54D41*
D03*
X276000Y-1181000D02*
G54D41*
D03*
X244000Y-1155000D02*
G54D41*
D03*
X276000Y-1155000D02*
G54D41*
D03*
G36*
X297320Y-1404000D02*
X302000Y-1408680D01*
X302000Y-1415320D01*
X297320Y-1420000D01*
X290680Y-1420000D01*
X286000Y-1415320D01*
X286000Y-1408680D01*
X290680Y-1404000D01*
X297320Y-1404000D01*
G37*
G36*
X297320Y-1429000D02*
X302000Y-1433680D01*
X302000Y-1440320D01*
X297320Y-1445000D01*
X290680Y-1445000D01*
X286000Y-1440320D01*
X286000Y-1433680D01*
X290680Y-1429000D01*
X297320Y-1429000D01*
G37*
G36*
X229320Y-1429000D02*
X234000Y-1433680D01*
X234000Y-1440320D01*
X229320Y-1445000D01*
X222680Y-1445000D01*
X218000Y-1440320D01*
X218000Y-1433680D01*
X222680Y-1429000D01*
X229320Y-1429000D01*
G37*
G36*
X229320Y-1404000D02*
X234000Y-1408680D01*
X234000Y-1415320D01*
X229320Y-1420000D01*
X222680Y-1420000D01*
X218000Y-1415320D01*
X218000Y-1408680D01*
X222680Y-1404000D01*
X229320Y-1404000D01*
G37*
G36*
X250320Y-1429000D02*
X255000Y-1433680D01*
X255000Y-1440320D01*
X250320Y-1445000D01*
X243680Y-1445000D01*
X239000Y-1440320D01*
X239000Y-1433680D01*
X243680Y-1429000D01*
X250320Y-1429000D01*
G37*
G36*
X276320Y-1429000D02*
X281000Y-1433680D01*
X281000Y-1440320D01*
X276320Y-1445000D01*
X269680Y-1445000D01*
X265000Y-1440320D01*
X265000Y-1433680D01*
X269680Y-1429000D01*
X276320Y-1429000D01*
G37*
X260000Y-1475000D02*
G54D42*
D03*
X328000Y-1467000D02*
G54D42*
D03*
X192000Y-1467000D02*
G54D42*
D03*
G54D38*
X273000Y-1437000D02*
X260000Y-1437000D01*
X264000Y-1291000D02*
G54D41*
D03*
X244000Y-1207000D02*
G54D43*
D03*
X276000Y-1207000D02*
G54D43*
D03*
X244000Y-1181000D02*
G54D43*
D03*
X276000Y-1181000D02*
G54D43*
D03*
X244000Y-1155000D02*
G54D43*
D03*
X276000Y-1155000D02*
G54D43*
D03*
G54D38*
X328000Y-1442000D02*
X328000Y-1488726D01*
G54D38*
X260000Y-1450000D02*
X260000Y-1475000D01*
G54D38*
X192000Y-1442000D02*
X192000Y-1488726D01*
G54D38*
X273000Y-1423000D02*
X273000Y-1451500D01*
X328000Y-1289000D02*
G54D41*
D03*
X222000Y-1293000D02*
G54D41*
D03*
X328000Y-1237000D02*
G54D41*
D03*
X222000Y-1237000D02*
G54D41*
D03*
G54D38*
X328000Y-1237000D02*
X328000Y-1289000D01*
G54D38*
X244000Y-1181000D02*
X256000Y-1181000D01*
X260000Y-1177000D01*
X260000Y-1143000D01*
X264000Y-1139000D01*
X312000Y-1139000D01*
X344000Y-1177000D02*
G54D41*
D03*
G54D38*
X298100Y-940000D02*
X298000Y-939900D01*
X298000Y-875000D01*
X468636Y-696999D02*
G54D41*
D03*
X468636Y-652999D02*
G54D41*
D03*
X159966Y-719694D02*
G54D41*
D03*
X159966Y-695694D02*
G54D41*
D03*
X159966Y-743694D02*
G54D41*
D03*
X160000Y-776000D02*
G54D41*
D03*
G54D31*
X294000Y-1437000D02*
X294000Y-1504000D01*
G54D31*
G75*
G01X160000Y-1254000D02*
G03X125000Y-1219000I-35000J0D01*
G01*
G54D31*
G75*
G01X395000Y-1219000D02*
G03X360000Y-1254000I0J-35000D01*
G01*
G54D38*
X482000Y-176000D02*
X482000Y-142000D01*
X115000Y-1103500D02*
G54D41*
D03*
X96000Y-1103500D02*
G54D41*
D03*
X96000Y-1177000D02*
G54D41*
D03*
X208000Y-1237000D02*
G54D41*
D03*
X184000Y-1237000D02*
G54D41*
D03*
X70000Y-1125500D02*
G54D41*
D03*
X376000Y-809000D02*
G54D41*
D03*
X360000Y-809000D02*
G54D41*
D03*
X380000Y-1173000D02*
G54D41*
D03*
X380000Y-1187000D02*
G54D41*
D03*
X292000Y-1289000D02*
G54D41*
D03*
G54D31*
X80000Y-1093000D02*
X80000Y-1045000D01*
X70000Y-1035000D01*
X70000Y-855000D01*
X86000Y-839000D01*
G54D31*
X374300Y-920000D02*
X374300Y-857300D01*
X356000Y-839000D01*
X86000Y-839000D01*
G54D38*
X244000Y-1207000D02*
X244000Y-1271000D01*
X264000Y-1291000D01*
G54D38*
X222000Y-1237000D02*
X222000Y-1293000D01*
G54D31*
X159966Y-743694D02*
X160000Y-743694D01*
X160000Y-660000D01*
G54D31*
X160000Y-776000D02*
X160000Y-805000D01*
X170000Y-815000D01*
X250000Y-815000D01*
X260000Y-805000D01*
X260000Y-690000D01*
X90000Y-486000D02*
G54D44*
D03*
X90000Y-586000D02*
G54D44*
D03*
X140000Y-536000D02*
G54D45*
D03*
X40000Y-536000D02*
G54D45*
D03*
G54D38*
X40000Y-536000D02*
X40000Y-553000D01*
X424000Y-759000D02*
G54D41*
D03*
X419000Y-699000D02*
G54D41*
D03*
G54D38*
X419000Y-699000D02*
X419000Y-754000D01*
X424000Y-759000D01*
G54D38*
X360000Y-809000D02*
X370000Y-819000D01*
X404000Y-819000D01*
X436000Y-851000D01*
X436000Y-1029000D01*
X426000Y-1039000D01*
G54D38*
X376000Y-809000D02*
X402000Y-809000D01*
X442000Y-849000D01*
X442000Y-1031000D01*
X432000Y-1041000D01*
G54D38*
X380000Y-1187000D02*
X406000Y-1161000D01*
X406000Y-1067000D01*
X432000Y-1041000D01*
G54D38*
X380000Y-1173000D02*
X400000Y-1153000D01*
X400000Y-1065000D01*
X426000Y-1039000D01*
G54D31*
G75*
G01X395073Y-500000D02*
G03X395073Y-540000I0J-20000D01*
G01*
G54D31*
G75*
G01X485000Y-590000D02*
G03X485000Y-540000I0J25000D01*
G01*
G54D31*
X395073Y-540000D02*
X485000Y-540000D01*
G54D31*
G75*
G01X411073Y-590000D02*
G03X411073Y-630000I0J-20000D01*
G01*
G54D31*
X485000Y-590000D02*
X411073Y-590000D01*
X122000Y-402000D02*
G54D41*
D03*
X177000Y-397000D02*
G54D41*
D03*
X497000Y-87000D02*
G54D41*
D03*
X502000Y-32000D02*
G54D41*
D03*
G54D31*
X510000Y-314000D02*
X510000Y-40000D01*
X502000Y-32000D01*
G54D31*
X502000Y-32000D02*
X482000Y-32000D01*
G54D31*
X414000Y-410000D02*
X130000Y-410000D01*
X122000Y-402000D01*
G54D31*
X122000Y-382000D02*
X122000Y-402000D01*
G54D38*
X177000Y-397000D02*
X177000Y-382000D01*
G54D38*
X482000Y-87000D02*
X497000Y-87000D01*
X266000Y-382000D02*
G54D41*
D03*
X482000Y-176000D02*
G54D41*
D03*
X60000Y-536000D02*
G54D41*
D03*
X120629Y-536521D02*
G54D41*
D03*
X260000Y-746000D02*
G54D41*
D03*
X260000Y-1335000D02*
G54D46*
D03*
X298000Y-875000D02*
G54D41*
D03*
G54D31*
X450000Y-1035000D02*
X440000Y-1045000D01*
X440000Y-1093000D01*
X25000Y-1437500D02*
G54D47*
D03*
X75000Y-1437500D02*
G54D47*
D03*
X50000Y-1387500D02*
G54D47*
D03*
X25000Y-1387500D02*
G54D47*
D03*
X75000Y-1387500D02*
G54D47*
D03*
G54D38*
X75000Y-1437500D02*
X75000Y-1387500D01*
G54D31*
G75*
G01X10000Y-1239000D02*
G03X35000Y-1264000I25000J0D01*
G01*
G54D31*
G75*
G01X84927Y-1304000D02*
G03X84927Y-1264000I0J20000D01*
G01*
G54D31*
X84927Y-1304000D02*
X35000Y-1304000D01*
G54D31*
X84927Y-1264000D02*
X35000Y-1264000D01*
G54D31*
G75*
G01X35000Y-1304000D02*
G03X10000Y-1329000I0J-25000D01*
G01*
G54D31*
X10000Y-1329000D02*
X10000Y-1372500D01*
X25000Y-1387500D01*
G54D31*
X10000Y-1239000D02*
X10000Y-1219000D01*
X125000Y-1219000D01*
X144800Y-1177000D02*
G54D41*
D03*
G54D38*
X144800Y-1177000D02*
X96000Y-1177000D01*
G54D31*
X80000Y-1093000D02*
X80000Y-1115500D01*
X70000Y-1125500D01*
X10000Y-1185500D01*
X10000Y-1219000D01*
G54D38*
X184000Y-1237000D02*
X184000Y-1191500D01*
X96000Y-1103500D01*
G54D38*
X221900Y-940000D02*
X221900Y-860900D01*
X208000Y-847000D01*
X90000Y-847000D01*
X78000Y-859000D01*
X78000Y-1031000D01*
X115000Y-1068000D01*
X115000Y-1103500D01*
G54D38*
X208000Y-1237000D02*
X208000Y-1196500D01*
X115000Y-1103500D01*
X495000Y-1437500D02*
G54D47*
D03*
X445000Y-1437500D02*
G54D47*
D03*
X470000Y-1387500D02*
G54D47*
D03*
X495000Y-1387500D02*
G54D47*
D03*
X445000Y-1387500D02*
G54D47*
D03*
G54D38*
X445000Y-1437500D02*
X445000Y-1387500D01*
G54D31*
G75*
G01X485000Y-1264000D02*
G03X510000Y-1239000I0J25000D01*
G01*
G54D31*
G75*
G01X435073Y-1264000D02*
G03X435073Y-1304000I0J-20000D01*
G01*
G54D31*
X435073Y-1304000D02*
X485000Y-1304000D01*
G54D31*
X435073Y-1264000D02*
X485000Y-1264000D01*
G54D31*
G75*
G01X510000Y-1329000D02*
G03X485000Y-1304000I-25000J0D01*
G01*
G54D31*
X510000Y-1329000D02*
X510000Y-1372500D01*
X495000Y-1387500D01*
G54D31*
X510000Y-1239000D02*
X510000Y-1219000D01*
X395000Y-1219000D01*
G54D31*
X440000Y-1093000D02*
X440000Y-1115500D01*
X450000Y-1125500D01*
X510000Y-1185500D01*
X510000Y-1219000D01*
X424000Y-1194768D02*
G54D41*
D03*
X424000Y-1127500D02*
G54D41*
D03*
G54D38*
X424000Y-1127500D02*
X424000Y-1194768D01*
X409500Y-749000D02*
G54D41*
D03*
X450000Y-1125500D02*
G54D41*
D03*
X444000Y-697000D02*
G54D41*
D03*
X222000Y-875000D02*
G54D41*
D03*
G54D38*
X146100Y-940000D02*
X146000Y-939900D01*
X146000Y-875000D01*
X146000Y-875000D02*
G54D41*
D03*
X374000Y-875000D02*
G54D41*
D03*
X22000Y-1155500D02*
G54D41*
D03*
X40000Y-1173500D02*
G54D41*
D03*
X498000Y-1155500D02*
G54D41*
D03*
X480000Y-1173500D02*
G54D41*
D03*
X422000Y-381000D02*
G54D41*
D03*
X406000Y-365000D02*
G54D41*
D03*
X400000Y-759000D02*
G54D41*
D03*
X400000Y-699000D02*
G54D41*
D03*
G54D38*
X400000Y-699000D02*
X400000Y-754000D01*
X400000Y-759000D01*
G54D31*
X414000Y-410000D02*
X510000Y-314000D01*
X443000Y-402000D02*
G54D41*
D03*
G54D31*
X450000Y-1035000D02*
X450000Y-734000D01*
X444000Y-728000D01*
X444000Y-674000D01*
G54D31*
X395073Y-500000D02*
X485000Y-500000D01*
G54D31*
G75*
G01X375073Y-430000D02*
G03X395073Y-450000I20000J0D01*
G01*
G54D31*
G75*
G01X485000Y-500000D02*
G03X485000Y-450000I0J25000D01*
G01*
G54D31*
X395073Y-450000D02*
X485000Y-450000D01*
G54D31*
X375073Y-430000D02*
X375073Y-410073D01*
X375000Y-410000D01*
G54D31*
X411073Y-630000D02*
X430000Y-630000D01*
X444000Y-644000D01*
X444000Y-674000D01*
G54D31*
X468636Y-696999D02*
X444000Y-697000D01*
G54D31*
X160000Y-1254000D02*
X160000Y-1355000D01*
X175000Y-1370000D01*
X175000Y-1420000D01*
X160000Y-1435000D01*
X160000Y-1489000D01*
X175000Y-1504000D01*
X345000Y-1504000D01*
X360000Y-1489000D01*
X360000Y-1435000D01*
X345000Y-1420000D01*
X345000Y-1370000D01*
X360000Y-1355000D01*
X360000Y-1250000D01*
G36*
X216000Y-754000D02*
X304000Y-754000D01*
X304000Y-796000D01*
X282000Y-818000D01*
X170000Y-818000D01*
X158000Y-806000D01*
X208000Y-806000D01*
X216000Y-798000D01*
X216000Y-754000D01*
G37*
G54D21*
X216000Y-754000D02*
X304000Y-754000D01*
X304000Y-796000D01*
X282000Y-818000D01*
X170000Y-818000D01*
X158000Y-806000D01*
X208000Y-806000D01*
X216000Y-798000D01*
X216000Y-754000D01*
G54D25*
X278000Y-865000D02*
X278000Y-885000D01*
G54D25*
X318000Y-865000D02*
X318000Y-885000D01*
G54D25*
X298000Y-865000D02*
X298000Y-885000D01*
G54D25*
X354000Y-865000D02*
X354000Y-885000D01*
G54D25*
X394000Y-865000D02*
X394000Y-885000D01*
G54D25*
X374000Y-865000D02*
X374000Y-885000D01*
G54D25*
X202000Y-865000D02*
X202000Y-885000D01*
G54D25*
X242000Y-865000D02*
X242000Y-885000D01*
G54D25*
X222000Y-865000D02*
X222000Y-885000D01*
G54D25*
X126000Y-865000D02*
X126000Y-885000D01*
G54D25*
X166000Y-865000D02*
X166000Y-885000D01*
G54D25*
X146000Y-865000D02*
X146000Y-885000D01*
X90000Y-506000D02*
G54D41*
D03*
X90000Y-566000D02*
G54D41*
D03*
G54D38*
X90000Y-566000D02*
X90000Y-586000D01*
G54D38*
X60000Y-536000D02*
X40000Y-536000D01*
G54D38*
X90000Y-506000D02*
X90000Y-486000D01*
G54D38*
X140629Y-536521D02*
X120629Y-536521D01*
M02*
