M48
;Layer_Color=9474304
;FILE_FORMAT=4:2
METRIC,LZ
;TYPE=PLATED
T1F00S00C0.30
T2F00S00C1.00
;TYPE=NON_PLATED
T3F00S00C2.10
T4F00S00C4.20
%
T01
X000742Y001015
X000868
X000995
X001122
X001249
X000995Y001405
T02
X000741Y00012
X000995
X001249
X001122Y00025
X000868
Y000645
X000742Y000534
X000995
X001122Y000645
X001249Y000534
T03
X00025Y00025
X00024Y00145
X00174
X00175Y00025
T04
X000996Y0025
M30
