G04*
G04 #@! TF.GenerationSoftware,Altium Limited,Altium Designer,22.2.1 (43)*
G04*
G04 Layer_Color=8388736*
%FSLAX42Y42*%
%MOMM*%
G71*
G04*
G04 #@! TF.SameCoordinates,2103375D-A71D-46A8-8251-58F9F09037AB*
G04*
G04*
G04 #@! TF.FilePolarity,Negative*
G04*
G01*
G75*
%ADD10C,0.10*%
%ADD14C,0.12*%
%ADD15C,1.20*%
%ADD16R,1.20X1.20*%
%ADD17R,1.20X1.20*%
%ADD18C,1.80*%
%ADD19R,1.70X1.70*%
%ADD20C,1.70*%
%ADD21C,1.40*%
%ADD22C,1.50*%
G36*
X1308Y1634D02*
X1227D01*
X1199Y1552D01*
X1178D01*
X1206Y1634D01*
X1124D01*
X1131Y1655D01*
X1315D01*
X1308Y1634D01*
D02*
G37*
G36*
X1112D02*
X979D01*
X972Y1614D01*
X1105D01*
X1098Y1593D01*
X965D01*
X951Y1552D01*
X931D01*
X962Y1644D01*
X962Y1646D01*
X963Y1647D01*
X964Y1648D01*
X965Y1649D01*
X966Y1650D01*
X967Y1651D01*
X967Y1651D01*
X967Y1651D01*
X969Y1653D01*
X970Y1653D01*
X972Y1654D01*
X973Y1654D01*
X974Y1654D01*
X975Y1655D01*
X1119D01*
X1112Y1634D01*
D02*
G37*
G36*
X946D02*
X813D01*
X806Y1614D01*
X939D01*
X932Y1593D01*
X799D01*
X785Y1552D01*
X765D01*
X796Y1644D01*
X796Y1646D01*
X797Y1647D01*
X798Y1648D01*
X799Y1649D01*
X800Y1650D01*
X800Y1651D01*
X801Y1651D01*
X801Y1651D01*
X803Y1653D01*
X804Y1653D01*
X806Y1654D01*
X807Y1654D01*
X808Y1654D01*
X809Y1655D01*
X953D01*
X946Y1634D01*
D02*
G37*
D10*
X0Y0D02*
Y3400D01*
X2000D01*
Y0D02*
Y3400D01*
X0Y0D02*
X2000D01*
D14*
X80Y3280D02*
Y3350D01*
X115D01*
X127Y3338D01*
Y3315D01*
X115Y3303D01*
X80D01*
X103D02*
X127Y3280D01*
X197Y3350D02*
X150D01*
Y3280D01*
X197D01*
X150Y3315D02*
X173D01*
X220Y3350D02*
Y3303D01*
X243Y3280D01*
X267Y3303D01*
Y3350D01*
X290Y3315D02*
X337D01*
X360Y3280D02*
Y3327D01*
X383Y3350D01*
X407Y3327D01*
Y3280D01*
Y3315D01*
X360D01*
X127Y3170D02*
X80D01*
X127Y3217D01*
Y3228D01*
X115Y3240D01*
X92D01*
X80Y3228D01*
X150D02*
X162Y3240D01*
X185D01*
X197Y3228D01*
Y3182D01*
X185Y3170D01*
X162D01*
X150Y3182D01*
Y3228D01*
X267Y3170D02*
X220D01*
X267Y3217D01*
Y3228D01*
X255Y3240D01*
X232D01*
X220Y3228D01*
X337Y3240D02*
X290D01*
Y3205D01*
X313Y3217D01*
X325D01*
X337Y3205D01*
Y3182D01*
X325Y3170D01*
X302D01*
X290Y3182D01*
X360Y3205D02*
X407D01*
X430Y3228D02*
X442Y3240D01*
X465D01*
X477Y3228D01*
Y3182D01*
X465Y3170D01*
X442D01*
X430Y3182D01*
Y3228D01*
X547Y3240D02*
X500D01*
Y3205D01*
X523Y3217D01*
X535D01*
X547Y3205D01*
Y3182D01*
X535Y3170D01*
X512D01*
X500Y3182D01*
D15*
X1145Y3025D02*
D03*
X845D02*
D03*
X995D02*
D03*
X845Y3175D02*
D03*
X995D02*
D03*
X1075Y170D02*
D03*
X925Y170D02*
D03*
X775Y170D02*
D03*
X625Y170D02*
D03*
X1225Y170D02*
D03*
D16*
X1145Y3175D02*
D03*
D17*
X1375Y170D02*
D03*
D18*
X1740Y1150D02*
D03*
X240D02*
D03*
X1750Y550D02*
D03*
X250D02*
D03*
Y250D02*
D03*
X1750D02*
D03*
X1740Y1450D02*
D03*
X240D02*
D03*
X996Y2500D02*
D03*
D19*
X1254Y1350D02*
D03*
D20*
X1000D02*
D03*
X746D02*
D03*
X1000Y1096D02*
D03*
X746D02*
D03*
X1254D02*
D03*
D21*
X775Y400D02*
D03*
X1075D02*
D03*
X1225D02*
D03*
X925D02*
D03*
Y550D02*
D03*
X1225D02*
D03*
X1075D02*
D03*
X625D02*
D03*
Y700D02*
D03*
X775D02*
D03*
X1075D02*
D03*
X1225D02*
D03*
X925D02*
D03*
X625Y400D02*
D03*
X775Y550D02*
D03*
X1375Y700D02*
D03*
Y550D02*
D03*
Y400D02*
D03*
D22*
X925Y250D02*
D03*
X1375D02*
D03*
X1225D02*
D03*
X1075D02*
D03*
X775D02*
D03*
X625D02*
D03*
M02*
