G04*
G04 #@! TF.GenerationSoftware,Altium Limited,Altium Designer,22.2.1 (43)*
G04*
G04 Layer_Color=65535*
%FSLAX42Y42*%
%MOMM*%
G71*
G04*
G04 #@! TF.SameCoordinates,2103375D-A71D-46A8-8251-58F9F09037AB*
G04*
G04*
G04 #@! TF.FilePolarity,Positive*
G04*
G01*
G75*
%ADD10C,0.10*%
D10*
X1170Y3331D02*
X1160Y3341D01*
X1140D01*
X1130Y3331D01*
Y3291D01*
X1140Y3281D01*
X1160D01*
X1170Y3291D01*
Y3311D01*
X1150D01*
X1100Y2870D02*
Y2930D01*
X1130D01*
X1140Y2920D01*
Y2900D01*
X1130Y2890D01*
X1100D01*
X1120D02*
X1140Y2870D01*
X1200Y2920D02*
X1190Y2930D01*
X1170D01*
X1160Y2920D01*
Y2910D01*
X1170Y2900D01*
X1190D01*
X1200Y2890D01*
Y2880D01*
X1190Y2870D01*
X1170D01*
X1160Y2880D01*
X950Y3281D02*
Y3341D01*
X970Y3321D01*
X990Y3341D01*
Y3281D01*
X1040Y3341D02*
X1020D01*
X1010Y3331D01*
Y3291D01*
X1020Y3281D01*
X1040D01*
X1050Y3291D01*
Y3331D01*
X1040Y3341D01*
X990Y2920D02*
X980Y2930D01*
X960D01*
X950Y2920D01*
Y2910D01*
X960Y2900D01*
X980D01*
X990Y2890D01*
Y2880D01*
X980Y2870D01*
X960D01*
X950Y2880D01*
X1050Y2920D02*
X1040Y2930D01*
X1020D01*
X1010Y2920D01*
Y2880D01*
X1020Y2870D01*
X1040D01*
X1050Y2880D01*
X830Y3281D02*
Y3321D01*
X810Y3301D02*
X850D01*
X810Y2870D02*
Y2930D01*
X830Y2910D01*
X850Y2930D01*
Y2870D01*
X870Y2930D02*
X890D01*
X880D01*
Y2870D01*
X870D01*
X890D01*
X1371Y72D02*
X1363Y80D01*
X1346D01*
X1338Y72D01*
Y38D01*
X1346Y30D01*
X1363D01*
X1371Y38D01*
Y55D01*
X1355D01*
X1388Y30D02*
Y80D01*
X1421Y30D01*
Y80D01*
X1438D02*
Y30D01*
X1463D01*
X1471Y38D01*
Y72D01*
X1463Y80D01*
X1438D01*
X1188Y30D02*
Y80D01*
X1213D01*
X1221Y72D01*
Y55D01*
X1213Y47D01*
X1188D01*
X1205D02*
X1221Y30D01*
X1271Y72D02*
X1263Y80D01*
X1246D01*
X1238Y72D01*
Y63D01*
X1246Y55D01*
X1263D01*
X1271Y47D01*
Y38D01*
X1263Y30D01*
X1246D01*
X1238Y38D01*
X1038Y30D02*
Y80D01*
X1055Y63D01*
X1071Y80D01*
Y30D01*
X1113Y80D02*
X1096D01*
X1088Y72D01*
Y38D01*
X1096Y30D01*
X1113D01*
X1121Y38D01*
Y72D01*
X1113Y80D01*
X921Y72D02*
X913Y80D01*
X896D01*
X888Y72D01*
Y63D01*
X896Y55D01*
X913D01*
X921Y47D01*
Y38D01*
X913Y30D01*
X896D01*
X888Y38D01*
X971Y72D02*
X963Y80D01*
X946D01*
X938Y72D01*
Y38D01*
X946Y30D01*
X963D01*
X971Y38D01*
X698Y80D02*
Y47D01*
X715Y30D01*
X731Y47D01*
Y80D01*
X781Y72D02*
X773Y80D01*
X756D01*
X748Y72D01*
Y38D01*
X756Y30D01*
X773D01*
X781Y38D01*
X831Y72D02*
X823Y80D01*
X806D01*
X798Y72D01*
Y38D01*
X806Y30D01*
X823D01*
X831Y38D01*
X588Y30D02*
Y80D01*
X605Y63D01*
X621Y80D01*
Y30D01*
X638Y80D02*
X655D01*
X646D01*
Y30D01*
X638D01*
X655D01*
X650Y925D02*
Y985D01*
X670Y965D01*
X690Y985D01*
Y925D01*
X710Y985D02*
X730D01*
X720D01*
Y925D01*
X710D01*
X730D01*
X800Y975D02*
X790Y985D01*
X770D01*
X760Y975D01*
Y965D01*
X770Y955D01*
X790D01*
X800Y945D01*
Y935D01*
X790Y925D01*
X770D01*
X760Y935D01*
X850Y985D02*
X830D01*
X820Y975D01*
Y935D01*
X830Y925D01*
X850D01*
X860Y935D01*
Y975D01*
X850Y985D01*
X745Y1460D02*
Y1500D01*
X725Y1480D02*
X765D01*
X990Y975D02*
X980Y985D01*
X960D01*
X950Y975D01*
Y965D01*
X960Y955D01*
X980D01*
X990Y945D01*
Y935D01*
X980Y925D01*
X960D01*
X950Y935D01*
X1050Y975D02*
X1040Y985D01*
X1020D01*
X1010Y975D01*
Y935D01*
X1020Y925D01*
X1040D01*
X1050Y935D01*
X900Y1461D02*
Y1521D01*
X920Y1501D01*
X940Y1521D01*
Y1461D01*
X990Y1521D02*
X970D01*
X960Y1511D01*
Y1471D01*
X970Y1461D01*
X990D01*
X1000Y1471D01*
Y1511D01*
X990Y1521D01*
X1060Y1511D02*
X1050Y1521D01*
X1030D01*
X1020Y1511D01*
Y1501D01*
X1030Y1491D01*
X1050D01*
X1060Y1481D01*
Y1471D01*
X1050Y1461D01*
X1030D01*
X1020Y1471D01*
X1080Y1521D02*
X1100D01*
X1090D01*
Y1461D01*
X1080D01*
X1100D01*
X1175Y925D02*
Y985D01*
X1205D01*
X1215Y975D01*
Y955D01*
X1205Y945D01*
X1175D01*
X1195D02*
X1215Y925D01*
X1275Y975D02*
X1265Y985D01*
X1245D01*
X1235Y975D01*
Y965D01*
X1245Y955D01*
X1265D01*
X1275Y945D01*
Y935D01*
X1265Y925D01*
X1245D01*
X1235Y935D01*
X1295Y985D02*
X1335D01*
X1315D01*
Y925D01*
X1215Y1511D02*
X1205Y1521D01*
X1185D01*
X1175Y1511D01*
Y1471D01*
X1185Y1461D01*
X1205D01*
X1215Y1471D01*
Y1491D01*
X1195D01*
X1235Y1461D02*
Y1521D01*
X1275Y1461D01*
Y1521D01*
X1295D02*
Y1461D01*
X1325D01*
X1335Y1471D01*
Y1511D01*
X1325Y1521D01*
X1295D01*
X390Y420D02*
X400Y430D01*
X420D01*
X430Y420D01*
Y380D01*
X420Y370D01*
X400D01*
X390Y380D01*
Y420D01*
X450Y370D02*
Y380D01*
X460D01*
Y370D01*
X450D01*
X500Y380D02*
X510Y370D01*
X530D01*
X540Y380D01*
Y420D01*
X530Y430D01*
X510D01*
X500Y420D01*
Y410D01*
X510Y400D01*
X540D01*
X390Y570D02*
X400Y580D01*
X420D01*
X430Y570D01*
Y530D01*
X420Y520D01*
X400D01*
X390Y530D01*
Y570D01*
X450Y520D02*
Y530D01*
X460D01*
Y520D01*
X450D01*
X500Y580D02*
X540D01*
Y570D01*
X500Y530D01*
Y520D01*
X390Y720D02*
X400Y730D01*
X420D01*
X430Y720D01*
Y680D01*
X420Y670D01*
X400D01*
X390Y680D01*
Y720D01*
X450Y670D02*
Y680D01*
X460D01*
Y670D01*
X450D01*
X540Y730D02*
X500D01*
Y700D01*
X520Y710D01*
X530D01*
X540Y700D01*
Y680D01*
X530Y670D01*
X510D01*
X500Y680D01*
X390Y220D02*
X410D01*
X400D01*
Y280D01*
X390Y270D01*
X440Y220D02*
Y230D01*
X450D01*
Y220D01*
X440D01*
X530D02*
X490D01*
X530Y260D01*
Y270D01*
X520Y280D01*
X500D01*
X490Y270D01*
X0Y0D02*
Y3400D01*
X2000D01*
Y0D02*
Y3400D01*
X0Y0D02*
X2000D01*
M02*
