G04*
G04 #@! TF.GenerationSoftware,Altium Limited,Altium Designer,22.2.1 (43)*
G04*
G04 Layer_Physical_Order=1*
G04 Layer_Color=255*
%FSLAX42Y42*%
%MOMM*%
G71*
G04*
G04 #@! TF.SameCoordinates,2103375D-A71D-46A8-8251-58F9F09037AB*
G04*
G04*
G04 #@! TF.FilePolarity,Positive*
G04*
G01*
G75*
%ADD10C,0.10*%
%ADD11C,1.00*%
%ADD12R,1.00X1.00*%
%ADD13R,1.00X1.00*%
%ADD23C,0.60*%
%ADD24R,0.90X5.56*%
%ADD25C,1.60*%
%ADD26R,1.50X1.50*%
%ADD27C,1.50*%
%ADD28C,0.80*%
%ADD29C,1.20*%
%ADD30C,1.30*%
G36*
X1308Y1634D02*
X1227D01*
X1199Y1552D01*
X1178D01*
X1206Y1634D01*
X1124D01*
X1131Y1655D01*
X1315D01*
X1308Y1634D01*
D02*
G37*
G36*
X1112D02*
X979D01*
X972Y1614D01*
X1105D01*
X1098Y1593D01*
X965D01*
X951Y1552D01*
X931D01*
X962Y1644D01*
X962Y1646D01*
X963Y1647D01*
X964Y1648D01*
X965Y1649D01*
X966Y1650D01*
X967Y1651D01*
X967Y1651D01*
X967Y1651D01*
X969Y1653D01*
X970Y1653D01*
X972Y1654D01*
X973Y1654D01*
X974Y1654D01*
X975Y1655D01*
X1119D01*
X1112Y1634D01*
D02*
G37*
G36*
X946D02*
X813D01*
X806Y1614D01*
X939D01*
X932Y1593D01*
X799D01*
X785Y1552D01*
X765D01*
X796Y1644D01*
X796Y1646D01*
X797Y1647D01*
X798Y1648D01*
X799Y1649D01*
X800Y1650D01*
X800Y1651D01*
X801Y1651D01*
X801Y1651D01*
X803Y1653D01*
X804Y1653D01*
X806Y1654D01*
X807Y1654D01*
X808Y1654D01*
X809Y1655D01*
X953D01*
X946Y1634D01*
D02*
G37*
D10*
X0Y0D02*
Y3400D01*
X2000D01*
Y0D02*
Y3400D01*
X0Y0D02*
X2000D01*
D11*
X1145Y3025D02*
D03*
X845D02*
D03*
X995D02*
D03*
X845Y3175D02*
D03*
X995D02*
D03*
X1075Y170D02*
D03*
X925Y170D02*
D03*
X775Y170D02*
D03*
X625Y170D02*
D03*
X1225Y170D02*
D03*
D12*
X1145Y3175D02*
D03*
D13*
X1375Y170D02*
D03*
D23*
X785Y3275D02*
X895D01*
X590Y3080D02*
X785Y3275D01*
X590Y2240D02*
Y3080D01*
Y2240D02*
X730Y2100D01*
X1440Y2300D02*
Y2725D01*
X1149Y2880D02*
X1285D01*
X1440Y2725D01*
Y2300D02*
X1640Y2100D01*
X1004Y3025D02*
X1149Y2880D01*
X895Y3275D02*
X995Y3175D01*
X996Y786D02*
Y1096D01*
X925Y450D02*
Y715D01*
X746Y1350D02*
X871Y1225D01*
Y990D02*
Y1225D01*
X995Y3025D02*
X1004D01*
X983Y1113D02*
X1000Y1096D01*
X870Y840D02*
Y989D01*
X775Y550D02*
Y700D01*
Y745D02*
X870Y840D01*
X775Y700D02*
Y745D01*
X870Y989D02*
X871Y990D01*
X1125Y756D02*
Y1225D01*
X1075Y706D02*
X1125Y756D01*
X1075Y550D02*
Y700D01*
Y706D01*
Y450D02*
Y550D01*
X625D02*
X625Y470D01*
X925Y715D02*
X996Y786D01*
X625Y400D02*
Y450D01*
X1000Y1350D02*
X1125Y1225D01*
X1225Y1067D02*
X1254Y1096D01*
Y1350D02*
X1400Y1204D01*
X625Y400D02*
Y470D01*
X775Y400D02*
Y550D01*
X1375Y700D02*
X1379Y704D01*
X625Y975D02*
X746Y1096D01*
X1225Y450D02*
Y1067D01*
X625Y550D02*
Y975D01*
X1400Y670D02*
Y1204D01*
D24*
X625Y428D02*
D03*
X775D02*
D03*
X925D02*
D03*
X1075D02*
D03*
X1225D02*
D03*
X1375D02*
D03*
D25*
X1740Y1150D02*
D03*
X240D02*
D03*
X1750Y550D02*
D03*
X250D02*
D03*
Y250D02*
D03*
X1750D02*
D03*
X1740Y1450D02*
D03*
X240D02*
D03*
X996Y2500D02*
D03*
D26*
X1254Y1350D02*
D03*
D27*
X1000D02*
D03*
X746D02*
D03*
X1000Y1096D02*
D03*
X746D02*
D03*
X1254D02*
D03*
D28*
X1640Y2100D02*
D03*
X730D02*
D03*
X845Y3025D02*
D03*
X995D02*
D03*
X1145D02*
D03*
X1145Y3175D02*
D03*
X995Y3175D02*
D03*
X845D02*
D03*
D29*
X775Y400D02*
D03*
X1075D02*
D03*
X1225D02*
D03*
X925D02*
D03*
Y550D02*
D03*
X1225D02*
D03*
X1075D02*
D03*
X625D02*
D03*
Y700D02*
D03*
X775D02*
D03*
X1075D02*
D03*
X1225D02*
D03*
X925D02*
D03*
X625Y400D02*
D03*
X775Y550D02*
D03*
X1375Y700D02*
D03*
Y550D02*
D03*
Y400D02*
D03*
D30*
X925Y250D02*
D03*
X1375D02*
D03*
X1225D02*
D03*
X1075D02*
D03*
X775D02*
D03*
X625D02*
D03*
M02*
