M48
;Layer_Color=9474304
;FILE_FORMAT=4:2
METRIC,LZ
;TYPE=PLATED
T1F00S00C0.30
T2F00S00C0.90
;TYPE=NON_PLATED
T3F00S00C0.80
T4F00S00C1.60
%
T01
X00169Y00024
X00179
X00191Y00099
X001904Y001247
X00165
X00165Y001
X001396Y000993
Y001247
X0005Y001691
X000166Y00166
Y00175
X00037Y00225
X00069
X00067Y00206
X00064Y00322
X00047Y00391
X00078
X001005Y003285
X001155Y003285
X00115Y00296
X001065Y002865
X00094Y00273
X000949Y00249
X00125Y00248
X00118Y00265
X00144Y00307
X00155Y003146
X00171Y00363
X00159Y003761
X00162Y00454
X00158Y00463
X0017Y00448
X00182Y00446
X00195
X00206
Y00472
X0025Y0035
Y00331
X00283Y002647
X00274Y00245
Y00233
X0023Y00218
X002173Y002393
X002Y00225
X00184Y00217
X00191Y00194
X00152Y00221
X00143
X00161Y00233
X0018Y00258
X00095Y00206
T02
X00073Y000808
Y001062
Y001316
Y00157
Y001824
X00285Y00213
Y002892
Y003146
Y0034
Y003654
T03
X00026Y00206
Y00236
T04
X0028Y0002
X0002
X0007Y0035
X0002Y0048
X0028
M30
