G04*
G04 #@! TF.GenerationSoftware,Altium Limited,Altium Designer,22.2.1 (43)*
G04*
G04 Layer_Color=65535*
%FSLAX42Y42*%
%MOMM*%
G71*
G04*
G04 #@! TF.SameCoordinates,DB8E118B-81D3-46FB-BB3D-5E7861096478*
G04*
G04*
G04 #@! TF.FilePolarity,Positive*
G04*
G01*
G75*
%ADD10C,0.20*%
%ADD11C,0.25*%
%ADD12C,0.05*%
%ADD13C,0.10*%
D10*
X1312Y935D02*
Y1485D01*
X678Y935D02*
Y1485D01*
X1312Y95D02*
Y645D01*
X678Y95D02*
Y645D01*
D11*
X172Y607D02*
Y556D01*
Y582D01*
X299D01*
X325Y556D01*
Y531D01*
X299Y505D01*
X172Y658D02*
Y759D01*
Y709D01*
X325D01*
Y810D02*
X223D01*
X172Y861D01*
X223Y912D01*
X325D01*
X248D01*
Y810D01*
X198Y1064D02*
X172Y1039D01*
Y988D01*
X198Y962D01*
X299D01*
X325Y988D01*
Y1039D01*
X299Y1064D01*
X248D01*
Y1013D01*
D12*
X671Y1621D02*
X691Y1591D01*
Y1621D02*
X671Y1591D01*
X721D02*
X701D01*
X721Y1611D01*
Y1616D01*
X716Y1621D01*
X706D01*
X701Y1616D01*
X671Y781D02*
X691Y751D01*
Y781D02*
X671Y751D01*
X701D02*
X711D01*
X706D01*
Y781D01*
X701Y776D01*
D13*
X0Y0D02*
Y3400D01*
X2000D01*
Y0D02*
Y3400D01*
X0Y0D02*
X2000D01*
M02*
