G04*
G04 #@! TF.GenerationSoftware,Altium Limited,Altium Designer,22.2.1 (43)*
G04*
G04 Layer_Physical_Order=2*
G04 Layer_Color=16711680*
%FSLAX42Y42*%
%MOMM*%
G71*
G04*
G04 #@! TF.SameCoordinates,DB8E118B-81D3-46FB-BB3D-5E7861096478*
G04*
G04*
G04 #@! TF.FilePolarity,Positive*
G04*
G01*
G75*
%ADD13C,0.10*%
%ADD19C,1.60*%
%ADD20C,0.50*%
%ADD21C,1.20*%
%ADD22C,0.30*%
D13*
X0Y0D02*
Y3400D01*
X2000D01*
Y0D02*
Y3400D01*
X0Y0D02*
X2000D01*
D19*
X250Y250D02*
D03*
X1750D02*
D03*
X1740Y1450D02*
D03*
X240D02*
D03*
X996Y2500D02*
D03*
D20*
X1249Y1015D02*
D03*
X868D02*
D03*
X995D02*
D03*
X1122D02*
D03*
X742D02*
D03*
X995Y1405D02*
D03*
D21*
Y120D02*
D03*
X1249Y534D02*
D03*
X741Y120D02*
D03*
X1249D02*
D03*
X1122Y250D02*
D03*
X868D02*
D03*
X742Y534D02*
D03*
X1122Y645D02*
D03*
X995Y534D02*
D03*
X868Y645D02*
D03*
D22*
X1122Y250D02*
X1234D01*
X1430Y447D02*
Y707D01*
X1234Y250D02*
X1430Y447D01*
X1550Y421D02*
Y714D01*
X1249Y120D02*
X1550Y421D01*
X1122Y1015D02*
X1430Y707D01*
X1249Y1015D02*
X1550Y714D01*
X930Y790D02*
Y1150D01*
X640Y787D02*
X868Y1015D01*
X1370Y500D02*
Y640D01*
X995Y1015D02*
X1370Y640D01*
X1270Y400D02*
X1370Y500D01*
X1060Y400D02*
X1270D01*
X995Y120D02*
Y335D01*
X1060Y400D01*
X640Y478D02*
X868Y250D01*
X640Y478D02*
Y787D01*
X930Y790D02*
X995Y725D01*
X930Y1150D02*
X995Y1215D01*
X580Y281D02*
Y853D01*
Y281D02*
X741Y120D01*
X580Y853D02*
X742Y1015D01*
X995Y534D02*
Y725D01*
Y1215D02*
Y1405D01*
M02*
