G04*
G04 #@! TF.GenerationSoftware,Altium Limited,Altium Designer,22.2.1 (43)*
G04*
G04 Layer_Color=128*
%FSLAX42Y42*%
%MOMM*%
G71*
G04*
G04 #@! TF.SameCoordinates,DB8E118B-81D3-46FB-BB3D-5E7861096478*
G04*
G04*
G04 #@! TF.FilePolarity,Positive*
G04*
G01*
G75*
%ADD13C,0.10*%
%ADD23C,0.05*%
D13*
X0Y0D02*
Y3400D01*
X2000D01*
Y0D02*
Y3400D01*
X0Y0D02*
X2000D01*
D23*
X145Y250D02*
X355D01*
X250Y145D02*
Y355D01*
X1645Y250D02*
X1855D01*
X1750Y145D02*
Y355D01*
X1635Y1450D02*
X1845D01*
X1740Y1345D02*
Y1555D01*
X135Y1450D02*
X345D01*
X240Y1345D02*
Y1555D01*
X786Y2500D02*
X1206D01*
X996Y2290D02*
Y2710D01*
X1234Y1015D02*
X1264D01*
X1249Y1000D02*
Y1030D01*
X853Y1015D02*
X883D01*
X868Y1000D02*
Y1030D01*
X945Y120D02*
X1045D01*
X995Y70D02*
Y170D01*
X1199Y534D02*
X1299D01*
X1249Y484D02*
Y584D01*
X980Y1015D02*
X1010D01*
X995Y1000D02*
Y1030D01*
X1107Y1015D02*
X1137D01*
X1122Y1000D02*
Y1030D01*
X727Y1015D02*
X757D01*
X742Y1000D02*
Y1030D01*
X980Y1405D02*
X1010D01*
X995Y1390D02*
Y1420D01*
X691Y120D02*
X791D01*
X741Y70D02*
Y170D01*
X1199Y120D02*
X1299D01*
X1249Y70D02*
Y170D01*
X1072Y250D02*
X1172D01*
X1122Y200D02*
Y300D01*
X818Y250D02*
X918D01*
X868Y200D02*
Y300D01*
X692Y534D02*
X792D01*
X742Y484D02*
Y584D01*
X1072Y645D02*
X1172D01*
X1122Y595D02*
Y695D01*
X945Y534D02*
X1045D01*
X995Y484D02*
Y584D01*
X818Y645D02*
X918D01*
X868Y595D02*
Y695D01*
M02*
