G04*
G04 #@! TF.GenerationSoftware,Altium Limited,Altium Designer,22.2.1 (43)*
G04*
G04 Layer_Color=8388736*
%FSLAX42Y42*%
%MOMM*%
G71*
G04*
G04 #@! TF.SameCoordinates,DB8E118B-81D3-46FB-BB3D-5E7861096478*
G04*
G04*
G04 #@! TF.FilePolarity,Negative*
G04*
G01*
G75*
%ADD13C,0.10*%
%ADD15C,0.12*%
%ADD16R,0.81X2.45*%
%ADD17C,1.80*%
D13*
X0Y0D02*
Y3400D01*
X2000D01*
Y0D02*
Y3400D01*
X0Y0D02*
X2000D01*
D15*
X80Y3280D02*
Y3350D01*
X115D01*
X127Y3338D01*
Y3315D01*
X115Y3303D01*
X80D01*
X103D02*
X127Y3280D01*
X197Y3350D02*
X150D01*
Y3280D01*
X197D01*
X150Y3315D02*
X173D01*
X220Y3350D02*
Y3303D01*
X243Y3280D01*
X267Y3303D01*
Y3350D01*
X290Y3315D02*
X337D01*
X360Y3280D02*
Y3327D01*
X383Y3350D01*
X407Y3327D01*
Y3280D01*
Y3315D01*
X360D01*
X127Y3170D02*
X80D01*
X127Y3217D01*
Y3228D01*
X115Y3240D01*
X92D01*
X80Y3228D01*
X150D02*
X162Y3240D01*
X185D01*
X197Y3228D01*
Y3182D01*
X185Y3170D01*
X162D01*
X150Y3182D01*
Y3228D01*
X267Y3170D02*
X220D01*
X267Y3217D01*
Y3228D01*
X255Y3240D01*
X232D01*
X220Y3228D01*
X337Y3240D02*
X290D01*
Y3205D01*
X313Y3217D01*
X325D01*
X337Y3205D01*
Y3182D01*
X325Y3170D01*
X302D01*
X290Y3182D01*
X360Y3205D02*
X407D01*
X430Y3170D02*
X453D01*
X442D01*
Y3240D01*
X430Y3228D01*
X488D02*
X500Y3240D01*
X523D01*
X535Y3228D01*
Y3182D01*
X523Y3170D01*
X500D01*
X488Y3182D01*
Y3228D01*
D16*
X1249Y1405D02*
D03*
Y1015D02*
D03*
X868Y1405D02*
D03*
Y1015D02*
D03*
X741D02*
D03*
Y1405D02*
D03*
X995Y1015D02*
D03*
Y1405D02*
D03*
X1122Y1015D02*
D03*
Y1405D02*
D03*
X1249Y565D02*
D03*
Y175D02*
D03*
X868Y565D02*
D03*
Y175D02*
D03*
X741D02*
D03*
Y565D02*
D03*
X995Y175D02*
D03*
Y565D02*
D03*
X1122Y175D02*
D03*
Y565D02*
D03*
D17*
X250Y250D02*
D03*
X1750D02*
D03*
X1740Y1450D02*
D03*
X240D02*
D03*
X996Y2500D02*
D03*
M02*
